G04 EAGLE Gerber RS-274X export*
G75*
%MOMM*%
%FSLAX34Y34*%
%LPD*%
%INBottom Copper*%
%IPPOS*%
%AMOC8*
5,1,8,0,0,1.08239X$1,22.5*%
G01*
%ADD10C,1.879600*%
%ADD11C,0.800100*%
%ADD12C,0.406400*%

G36*
X45359Y25725D02*
X45359Y25725D01*
X45409Y25721D01*
X45517Y25739D01*
X45626Y25750D01*
X45673Y25767D01*
X45722Y25775D01*
X45822Y25820D01*
X45926Y25857D01*
X45967Y25885D01*
X46012Y25906D01*
X46098Y25974D01*
X46189Y26036D01*
X46222Y26073D01*
X46260Y26104D01*
X46326Y26192D01*
X46399Y26274D01*
X46422Y26319D01*
X46452Y26358D01*
X46523Y26503D01*
X46955Y27548D01*
X48652Y29245D01*
X50870Y30163D01*
X53270Y30163D01*
X55488Y29245D01*
X56166Y28566D01*
X56244Y28506D01*
X56316Y28438D01*
X56369Y28409D01*
X56417Y28372D01*
X56508Y28332D01*
X56595Y28284D01*
X56653Y28269D01*
X56709Y28245D01*
X56807Y28230D01*
X56903Y28205D01*
X57003Y28199D01*
X57023Y28195D01*
X57035Y28197D01*
X57063Y28195D01*
X92220Y28195D01*
X92249Y28198D01*
X92279Y28196D01*
X92407Y28218D01*
X92536Y28235D01*
X92563Y28245D01*
X92592Y28250D01*
X92711Y28304D01*
X92831Y28352D01*
X92855Y28369D01*
X92882Y28381D01*
X92983Y28462D01*
X93089Y28538D01*
X93107Y28561D01*
X93130Y28580D01*
X93209Y28683D01*
X93291Y28783D01*
X93304Y28810D01*
X93322Y28834D01*
X93393Y28978D01*
X94248Y31043D01*
X95945Y32740D01*
X98162Y33658D01*
X100563Y33658D01*
X102780Y32740D01*
X104477Y31043D01*
X105332Y28978D01*
X105347Y28953D01*
X105356Y28925D01*
X105426Y28815D01*
X105490Y28702D01*
X105510Y28681D01*
X105526Y28656D01*
X105621Y28567D01*
X105711Y28474D01*
X105736Y28458D01*
X105758Y28438D01*
X105872Y28375D01*
X105982Y28307D01*
X106011Y28299D01*
X106036Y28284D01*
X106162Y28252D01*
X106286Y28214D01*
X106316Y28212D01*
X106344Y28205D01*
X106505Y28195D01*
X140480Y28195D01*
X140509Y28198D01*
X140539Y28196D01*
X140667Y28218D01*
X140796Y28235D01*
X140823Y28245D01*
X140852Y28250D01*
X140971Y28304D01*
X141091Y28352D01*
X141115Y28369D01*
X141142Y28381D01*
X141243Y28462D01*
X141349Y28538D01*
X141367Y28561D01*
X141390Y28580D01*
X141469Y28683D01*
X141551Y28783D01*
X141564Y28810D01*
X141582Y28834D01*
X141653Y28978D01*
X142508Y31043D01*
X144205Y32740D01*
X146422Y33658D01*
X148823Y33658D01*
X151040Y32740D01*
X152737Y31043D01*
X153592Y28978D01*
X153607Y28953D01*
X153616Y28925D01*
X153686Y28815D01*
X153750Y28702D01*
X153770Y28681D01*
X153786Y28656D01*
X153881Y28567D01*
X153971Y28474D01*
X153996Y28458D01*
X154018Y28438D01*
X154132Y28375D01*
X154242Y28307D01*
X154271Y28299D01*
X154296Y28284D01*
X154422Y28252D01*
X154546Y28214D01*
X154576Y28212D01*
X154604Y28205D01*
X154765Y28195D01*
X188740Y28195D01*
X188769Y28198D01*
X188799Y28196D01*
X188927Y28218D01*
X189056Y28235D01*
X189083Y28245D01*
X189112Y28250D01*
X189231Y28304D01*
X189351Y28352D01*
X189375Y28369D01*
X189402Y28381D01*
X189503Y28462D01*
X189609Y28538D01*
X189627Y28561D01*
X189650Y28580D01*
X189729Y28683D01*
X189811Y28783D01*
X189824Y28810D01*
X189842Y28834D01*
X189913Y28978D01*
X190768Y31043D01*
X192465Y32740D01*
X194682Y33658D01*
X197083Y33658D01*
X199300Y32740D01*
X200997Y31043D01*
X201852Y28978D01*
X201867Y28953D01*
X201876Y28925D01*
X201946Y28815D01*
X202010Y28702D01*
X202030Y28681D01*
X202046Y28656D01*
X202141Y28567D01*
X202231Y28474D01*
X202256Y28458D01*
X202278Y28438D01*
X202392Y28375D01*
X202502Y28307D01*
X202531Y28299D01*
X202556Y28284D01*
X202682Y28252D01*
X202806Y28214D01*
X202836Y28212D01*
X202864Y28205D01*
X203025Y28195D01*
X237000Y28195D01*
X237029Y28198D01*
X237059Y28196D01*
X237187Y28218D01*
X237316Y28235D01*
X237343Y28245D01*
X237372Y28250D01*
X237491Y28304D01*
X237611Y28352D01*
X237635Y28369D01*
X237662Y28381D01*
X237763Y28462D01*
X237869Y28538D01*
X237887Y28561D01*
X237910Y28580D01*
X237989Y28683D01*
X238071Y28783D01*
X238084Y28810D01*
X238102Y28834D01*
X238173Y28978D01*
X239028Y31043D01*
X240725Y32740D01*
X242942Y33658D01*
X245343Y33658D01*
X247560Y32740D01*
X249257Y31043D01*
X250112Y28978D01*
X250127Y28953D01*
X250136Y28925D01*
X250206Y28815D01*
X250270Y28702D01*
X250290Y28681D01*
X250306Y28656D01*
X250401Y28567D01*
X250491Y28474D01*
X250516Y28458D01*
X250538Y28438D01*
X250652Y28375D01*
X250762Y28307D01*
X250791Y28299D01*
X250816Y28284D01*
X250942Y28252D01*
X251066Y28214D01*
X251096Y28212D01*
X251124Y28205D01*
X251285Y28195D01*
X285260Y28195D01*
X285289Y28198D01*
X285319Y28196D01*
X285447Y28218D01*
X285576Y28235D01*
X285603Y28245D01*
X285632Y28250D01*
X285751Y28304D01*
X285871Y28352D01*
X285895Y28369D01*
X285922Y28381D01*
X286023Y28462D01*
X286129Y28538D01*
X286147Y28561D01*
X286170Y28580D01*
X286249Y28683D01*
X286331Y28783D01*
X286344Y28810D01*
X286362Y28834D01*
X286433Y28978D01*
X287288Y31043D01*
X288985Y32740D01*
X291202Y33658D01*
X293603Y33658D01*
X295820Y32740D01*
X297517Y31043D01*
X298372Y28978D01*
X298387Y28953D01*
X298396Y28925D01*
X298466Y28815D01*
X298530Y28702D01*
X298550Y28681D01*
X298566Y28656D01*
X298661Y28567D01*
X298751Y28474D01*
X298776Y28458D01*
X298798Y28438D01*
X298912Y28375D01*
X299022Y28307D01*
X299051Y28299D01*
X299076Y28284D01*
X299202Y28252D01*
X299326Y28214D01*
X299356Y28212D01*
X299384Y28205D01*
X299545Y28195D01*
X333520Y28195D01*
X333549Y28198D01*
X333579Y28196D01*
X333707Y28218D01*
X333836Y28235D01*
X333863Y28245D01*
X333892Y28250D01*
X334011Y28304D01*
X334131Y28352D01*
X334155Y28369D01*
X334182Y28381D01*
X334283Y28462D01*
X334389Y28538D01*
X334407Y28561D01*
X334430Y28580D01*
X334509Y28683D01*
X334591Y28783D01*
X334604Y28810D01*
X334622Y28834D01*
X334693Y28978D01*
X335548Y31043D01*
X337245Y32740D01*
X339462Y33658D01*
X341863Y33658D01*
X344080Y32740D01*
X345777Y31043D01*
X346632Y28978D01*
X346647Y28953D01*
X346656Y28925D01*
X346726Y28815D01*
X346790Y28702D01*
X346810Y28681D01*
X346826Y28656D01*
X346921Y28567D01*
X347011Y28474D01*
X347036Y28458D01*
X347058Y28438D01*
X347172Y28375D01*
X347282Y28307D01*
X347311Y28299D01*
X347336Y28284D01*
X347462Y28252D01*
X347586Y28214D01*
X347616Y28212D01*
X347644Y28205D01*
X347805Y28195D01*
X381780Y28195D01*
X381809Y28198D01*
X381839Y28196D01*
X381967Y28218D01*
X382096Y28235D01*
X382123Y28245D01*
X382152Y28250D01*
X382271Y28304D01*
X382391Y28352D01*
X382415Y28369D01*
X382442Y28381D01*
X382543Y28462D01*
X382649Y28538D01*
X382667Y28561D01*
X382690Y28580D01*
X382769Y28683D01*
X382851Y28783D01*
X382864Y28810D01*
X382882Y28834D01*
X382953Y28978D01*
X383808Y31043D01*
X385505Y32740D01*
X387722Y33658D01*
X390123Y33658D01*
X392340Y32740D01*
X394037Y31043D01*
X394892Y28978D01*
X394907Y28953D01*
X394916Y28925D01*
X394986Y28815D01*
X395050Y28702D01*
X395070Y28681D01*
X395086Y28656D01*
X395181Y28567D01*
X395271Y28474D01*
X395296Y28458D01*
X395318Y28438D01*
X395432Y28375D01*
X395542Y28307D01*
X395571Y28299D01*
X395596Y28284D01*
X395722Y28252D01*
X395846Y28214D01*
X395876Y28212D01*
X395904Y28205D01*
X396065Y28195D01*
X430040Y28195D01*
X430069Y28198D01*
X430099Y28196D01*
X430227Y28218D01*
X430356Y28235D01*
X430383Y28245D01*
X430412Y28250D01*
X430531Y28304D01*
X430651Y28352D01*
X430675Y28369D01*
X430702Y28381D01*
X430803Y28462D01*
X430909Y28538D01*
X430927Y28561D01*
X430950Y28580D01*
X431029Y28683D01*
X431111Y28783D01*
X431124Y28810D01*
X431142Y28834D01*
X431213Y28978D01*
X432068Y31043D01*
X433765Y32740D01*
X435982Y33658D01*
X438383Y33658D01*
X440600Y32740D01*
X442297Y31043D01*
X443152Y28978D01*
X443167Y28953D01*
X443176Y28925D01*
X443246Y28815D01*
X443310Y28702D01*
X443330Y28681D01*
X443346Y28656D01*
X443441Y28567D01*
X443531Y28474D01*
X443556Y28458D01*
X443578Y28438D01*
X443692Y28375D01*
X443802Y28307D01*
X443831Y28299D01*
X443856Y28284D01*
X443982Y28252D01*
X444106Y28214D01*
X444136Y28212D01*
X444164Y28205D01*
X444325Y28195D01*
X508111Y28195D01*
X508140Y28198D01*
X508170Y28196D01*
X508298Y28218D01*
X508426Y28235D01*
X508454Y28245D01*
X508483Y28250D01*
X508602Y28304D01*
X508722Y28352D01*
X508746Y28369D01*
X508773Y28381D01*
X508874Y28462D01*
X508980Y28538D01*
X508998Y28561D01*
X509021Y28580D01*
X509100Y28683D01*
X509182Y28783D01*
X509195Y28810D01*
X509213Y28834D01*
X509284Y28978D01*
X511009Y33145D01*
X514225Y36361D01*
X518184Y38000D01*
X518296Y38064D01*
X518411Y38123D01*
X518434Y38143D01*
X518460Y38158D01*
X518553Y38248D01*
X518650Y38333D01*
X518667Y38358D01*
X518688Y38379D01*
X518756Y38490D01*
X518829Y38596D01*
X518839Y38625D01*
X518855Y38650D01*
X518893Y38774D01*
X518936Y38895D01*
X518939Y38925D01*
X518948Y38954D01*
X518954Y39083D01*
X518967Y39212D01*
X518962Y39242D01*
X518963Y39272D01*
X518937Y39398D01*
X518917Y39526D01*
X518905Y39554D01*
X518899Y39583D01*
X518842Y39700D01*
X518791Y39818D01*
X518773Y39842D01*
X518759Y39869D01*
X518675Y39967D01*
X518596Y40070D01*
X518573Y40088D01*
X518553Y40111D01*
X518447Y40185D01*
X518345Y40265D01*
X518318Y40277D01*
X518293Y40294D01*
X518172Y40340D01*
X518053Y40391D01*
X518012Y40401D01*
X517996Y40407D01*
X517974Y40409D01*
X517909Y40424D01*
X516117Y41006D01*
X514443Y41859D01*
X512922Y42964D01*
X511594Y44292D01*
X510489Y45813D01*
X509636Y47487D01*
X509055Y49274D01*
X509015Y49531D01*
X519430Y49531D01*
X519548Y49546D01*
X519667Y49553D01*
X519705Y49566D01*
X519745Y49571D01*
X519856Y49614D01*
X519969Y49651D01*
X520003Y49673D01*
X520041Y49688D01*
X520137Y49758D01*
X520238Y49821D01*
X520266Y49851D01*
X520298Y49874D01*
X520374Y49966D01*
X520456Y50053D01*
X520475Y50088D01*
X520501Y50119D01*
X520552Y50227D01*
X520609Y50331D01*
X520620Y50371D01*
X520637Y50407D01*
X520659Y50524D01*
X520689Y50639D01*
X520693Y50700D01*
X520697Y50720D01*
X520695Y50740D01*
X520699Y50800D01*
X520699Y52071D01*
X521970Y52071D01*
X522088Y52086D01*
X522207Y52093D01*
X522245Y52106D01*
X522285Y52111D01*
X522396Y52155D01*
X522509Y52191D01*
X522544Y52213D01*
X522581Y52228D01*
X522677Y52298D01*
X522778Y52361D01*
X522806Y52391D01*
X522839Y52415D01*
X522914Y52506D01*
X522996Y52593D01*
X523016Y52628D01*
X523041Y52660D01*
X523092Y52767D01*
X523150Y52872D01*
X523160Y52911D01*
X523177Y52947D01*
X523199Y53064D01*
X523229Y53179D01*
X523233Y53240D01*
X523237Y53260D01*
X523235Y53280D01*
X523239Y53340D01*
X523239Y63755D01*
X523496Y63715D01*
X525283Y63134D01*
X526957Y62281D01*
X528478Y61176D01*
X529806Y59848D01*
X529833Y59811D01*
X529888Y59753D01*
X529934Y59688D01*
X529996Y59637D01*
X530051Y59579D01*
X530118Y59536D01*
X530179Y59485D01*
X530252Y59451D01*
X530319Y59408D01*
X530395Y59384D01*
X530467Y59350D01*
X530545Y59335D01*
X530621Y59310D01*
X530701Y59305D01*
X530780Y59290D01*
X530859Y59295D01*
X530939Y59290D01*
X531017Y59305D01*
X531097Y59310D01*
X531173Y59334D01*
X531251Y59349D01*
X531324Y59383D01*
X531399Y59408D01*
X531467Y59450D01*
X531539Y59484D01*
X531601Y59535D01*
X531668Y59578D01*
X531723Y59636D01*
X531784Y59687D01*
X531831Y59751D01*
X531886Y59810D01*
X531925Y59879D01*
X531972Y59944D01*
X532001Y60018D01*
X532040Y60088D01*
X532060Y60165D01*
X532089Y60240D01*
X532099Y60319D01*
X532119Y60396D01*
X532129Y60553D01*
X532129Y60555D01*
X532129Y60556D01*
X532129Y60557D01*
X532129Y74930D01*
X532127Y74952D01*
X532125Y75030D01*
X531844Y78606D01*
X531830Y78673D01*
X531826Y78742D01*
X531786Y78898D01*
X529576Y85700D01*
X529525Y85808D01*
X529481Y85918D01*
X529449Y85970D01*
X529440Y85988D01*
X529427Y86004D01*
X529395Y86054D01*
X525191Y91841D01*
X525110Y91927D01*
X525034Y92019D01*
X524988Y92057D01*
X524974Y92072D01*
X524956Y92083D01*
X524911Y92121D01*
X519124Y96325D01*
X519020Y96383D01*
X518920Y96446D01*
X518864Y96469D01*
X518846Y96478D01*
X518826Y96484D01*
X518770Y96506D01*
X511968Y98716D01*
X511900Y98729D01*
X511835Y98751D01*
X511676Y98774D01*
X508100Y99055D01*
X508078Y99054D01*
X508000Y99059D01*
X25699Y99059D01*
X25660Y99054D01*
X25620Y99057D01*
X25460Y99037D01*
X21738Y98324D01*
X21673Y98302D01*
X21604Y98291D01*
X21454Y98234D01*
X14344Y95018D01*
X14243Y94955D01*
X14138Y94900D01*
X14091Y94862D01*
X14073Y94851D01*
X14059Y94837D01*
X14012Y94799D01*
X8245Y89544D01*
X8168Y89453D01*
X8085Y89368D01*
X8051Y89317D01*
X8038Y89302D01*
X8029Y89283D01*
X7997Y89234D01*
X4135Y82453D01*
X4090Y82343D01*
X4037Y82236D01*
X4021Y82178D01*
X4014Y82159D01*
X4011Y82139D01*
X3995Y82081D01*
X2418Y74439D01*
X2413Y74370D01*
X2397Y74303D01*
X2392Y74142D01*
X2479Y71450D01*
X2491Y71372D01*
X2494Y71293D01*
X2516Y71216D01*
X2529Y71136D01*
X2541Y71108D01*
X2541Y70061D01*
X2543Y70047D01*
X2548Y69921D01*
X2648Y69021D01*
X2644Y69007D01*
X2630Y68982D01*
X2598Y68856D01*
X2560Y68731D01*
X2558Y68702D01*
X2551Y68674D01*
X2541Y68514D01*
X2541Y61140D01*
X2558Y61003D01*
X2571Y60864D01*
X2578Y60845D01*
X2581Y60825D01*
X2632Y60696D01*
X2679Y60565D01*
X2690Y60548D01*
X2698Y60529D01*
X2779Y60417D01*
X2857Y60302D01*
X2873Y60288D01*
X2884Y60272D01*
X2992Y60183D01*
X3096Y60091D01*
X3114Y60082D01*
X3129Y60069D01*
X3255Y60010D01*
X3379Y59947D01*
X3399Y59942D01*
X3417Y59934D01*
X3554Y59907D01*
X3689Y59877D01*
X3710Y59878D01*
X3729Y59874D01*
X3868Y59882D01*
X4007Y59887D01*
X4027Y59892D01*
X4047Y59894D01*
X4179Y59936D01*
X4313Y59975D01*
X4330Y59985D01*
X4349Y59992D01*
X4467Y60066D01*
X4587Y60137D01*
X4608Y60155D01*
X4618Y60162D01*
X4632Y60177D01*
X4707Y60243D01*
X6225Y61761D01*
X10426Y63501D01*
X14974Y63501D01*
X19175Y61761D01*
X22391Y58545D01*
X24131Y54344D01*
X24131Y49796D01*
X23464Y48187D01*
X23456Y48159D01*
X23443Y48133D01*
X23415Y48006D01*
X23380Y47881D01*
X23380Y47851D01*
X23373Y47822D01*
X23377Y47692D01*
X23375Y47563D01*
X23382Y47534D01*
X23383Y47504D01*
X23419Y47380D01*
X23449Y47253D01*
X23463Y47227D01*
X23471Y47199D01*
X23537Y47087D01*
X23598Y46972D01*
X23618Y46950D01*
X23633Y46925D01*
X23739Y46804D01*
X44452Y26091D01*
X44492Y26061D01*
X44525Y26024D01*
X44617Y25963D01*
X44704Y25896D01*
X44749Y25876D01*
X44791Y25849D01*
X44895Y25813D01*
X44996Y25770D01*
X45045Y25762D01*
X45092Y25746D01*
X45201Y25737D01*
X45310Y25720D01*
X45359Y25725D01*
G37*
%LPC*%
G36*
X504456Y68579D02*
X504456Y68579D01*
X500255Y70319D01*
X497039Y73535D01*
X495299Y77736D01*
X495299Y82284D01*
X497039Y86485D01*
X500255Y89701D01*
X504456Y91441D01*
X509004Y91441D01*
X513205Y89701D01*
X516421Y86485D01*
X518161Y82284D01*
X518161Y77736D01*
X516421Y73535D01*
X513205Y70319D01*
X509004Y68579D01*
X504456Y68579D01*
G37*
%LPD*%
%LPC*%
G36*
X479056Y68579D02*
X479056Y68579D01*
X474855Y70319D01*
X471639Y73535D01*
X469899Y77736D01*
X469899Y82284D01*
X471639Y86485D01*
X474855Y89701D01*
X479056Y91441D01*
X483604Y91441D01*
X487805Y89701D01*
X491021Y86485D01*
X492761Y82284D01*
X492761Y77736D01*
X491021Y73535D01*
X487805Y70319D01*
X483604Y68579D01*
X479056Y68579D01*
G37*
%LPD*%
%LPC*%
G36*
X453656Y68579D02*
X453656Y68579D01*
X449455Y70319D01*
X446239Y73535D01*
X444499Y77736D01*
X444499Y82284D01*
X446239Y86485D01*
X449455Y89701D01*
X453656Y91441D01*
X458204Y91441D01*
X462405Y89701D01*
X465621Y86485D01*
X467361Y82284D01*
X467361Y77736D01*
X465621Y73535D01*
X462405Y70319D01*
X458204Y68579D01*
X453656Y68579D01*
G37*
%LPD*%
%LPC*%
G36*
X428256Y68579D02*
X428256Y68579D01*
X424055Y70319D01*
X420839Y73535D01*
X419099Y77736D01*
X419099Y82284D01*
X420839Y86485D01*
X424055Y89701D01*
X428256Y91441D01*
X432804Y91441D01*
X437005Y89701D01*
X440221Y86485D01*
X441961Y82284D01*
X441961Y77736D01*
X440221Y73535D01*
X437005Y70319D01*
X432804Y68579D01*
X428256Y68579D01*
G37*
%LPD*%
%LPC*%
G36*
X402856Y68579D02*
X402856Y68579D01*
X398655Y70319D01*
X395439Y73535D01*
X393699Y77736D01*
X393699Y82284D01*
X395439Y86485D01*
X398655Y89701D01*
X402856Y91441D01*
X407404Y91441D01*
X411605Y89701D01*
X414821Y86485D01*
X416561Y82284D01*
X416561Y77736D01*
X414821Y73535D01*
X411605Y70319D01*
X407404Y68579D01*
X402856Y68579D01*
G37*
%LPD*%
%LPC*%
G36*
X377456Y68579D02*
X377456Y68579D01*
X373255Y70319D01*
X370039Y73535D01*
X368299Y77736D01*
X368299Y82284D01*
X370039Y86485D01*
X373255Y89701D01*
X377456Y91441D01*
X382004Y91441D01*
X386205Y89701D01*
X389421Y86485D01*
X391161Y82284D01*
X391161Y77736D01*
X389421Y73535D01*
X386205Y70319D01*
X382004Y68579D01*
X377456Y68579D01*
G37*
%LPD*%
%LPC*%
G36*
X352056Y68579D02*
X352056Y68579D01*
X347855Y70319D01*
X344639Y73535D01*
X342899Y77736D01*
X342899Y82284D01*
X344639Y86485D01*
X347855Y89701D01*
X352056Y91441D01*
X356604Y91441D01*
X360805Y89701D01*
X364021Y86485D01*
X365761Y82284D01*
X365761Y77736D01*
X364021Y73535D01*
X360805Y70319D01*
X356604Y68579D01*
X352056Y68579D01*
G37*
%LPD*%
%LPC*%
G36*
X326656Y68579D02*
X326656Y68579D01*
X322455Y70319D01*
X319239Y73535D01*
X317499Y77736D01*
X317499Y82284D01*
X319239Y86485D01*
X322455Y89701D01*
X326656Y91441D01*
X331204Y91441D01*
X335405Y89701D01*
X338621Y86485D01*
X340361Y82284D01*
X340361Y77736D01*
X338621Y73535D01*
X335405Y70319D01*
X331204Y68579D01*
X326656Y68579D01*
G37*
%LPD*%
%LPC*%
G36*
X301256Y68579D02*
X301256Y68579D01*
X297055Y70319D01*
X293839Y73535D01*
X292099Y77736D01*
X292099Y82284D01*
X293839Y86485D01*
X297055Y89701D01*
X301256Y91441D01*
X305804Y91441D01*
X310005Y89701D01*
X313221Y86485D01*
X314961Y82284D01*
X314961Y77736D01*
X313221Y73535D01*
X310005Y70319D01*
X305804Y68579D01*
X301256Y68579D01*
G37*
%LPD*%
%LPC*%
G36*
X275856Y68579D02*
X275856Y68579D01*
X271655Y70319D01*
X268439Y73535D01*
X266699Y77736D01*
X266699Y82284D01*
X268439Y86485D01*
X271655Y89701D01*
X275856Y91441D01*
X280404Y91441D01*
X284605Y89701D01*
X287821Y86485D01*
X289561Y82284D01*
X289561Y77736D01*
X287821Y73535D01*
X284605Y70319D01*
X280404Y68579D01*
X275856Y68579D01*
G37*
%LPD*%
%LPC*%
G36*
X250456Y68579D02*
X250456Y68579D01*
X246255Y70319D01*
X243039Y73535D01*
X241299Y77736D01*
X241299Y82284D01*
X243039Y86485D01*
X246255Y89701D01*
X250456Y91441D01*
X255004Y91441D01*
X259205Y89701D01*
X262421Y86485D01*
X264161Y82284D01*
X264161Y77736D01*
X262421Y73535D01*
X259205Y70319D01*
X255004Y68579D01*
X250456Y68579D01*
G37*
%LPD*%
%LPC*%
G36*
X225056Y68579D02*
X225056Y68579D01*
X220855Y70319D01*
X217639Y73535D01*
X215899Y77736D01*
X215899Y82284D01*
X217639Y86485D01*
X220855Y89701D01*
X225056Y91441D01*
X229604Y91441D01*
X233805Y89701D01*
X237021Y86485D01*
X238761Y82284D01*
X238761Y77736D01*
X237021Y73535D01*
X233805Y70319D01*
X229604Y68579D01*
X225056Y68579D01*
G37*
%LPD*%
%LPC*%
G36*
X199656Y68579D02*
X199656Y68579D01*
X195455Y70319D01*
X192239Y73535D01*
X190499Y77736D01*
X190499Y82284D01*
X192239Y86485D01*
X195455Y89701D01*
X199656Y91441D01*
X204204Y91441D01*
X208405Y89701D01*
X211621Y86485D01*
X213361Y82284D01*
X213361Y77736D01*
X211621Y73535D01*
X208405Y70319D01*
X204204Y68579D01*
X199656Y68579D01*
G37*
%LPD*%
%LPC*%
G36*
X174256Y68579D02*
X174256Y68579D01*
X170055Y70319D01*
X166839Y73535D01*
X165099Y77736D01*
X165099Y82284D01*
X166839Y86485D01*
X170055Y89701D01*
X174256Y91441D01*
X178804Y91441D01*
X183005Y89701D01*
X186221Y86485D01*
X187961Y82284D01*
X187961Y77736D01*
X186221Y73535D01*
X183005Y70319D01*
X178804Y68579D01*
X174256Y68579D01*
G37*
%LPD*%
%LPC*%
G36*
X148856Y68579D02*
X148856Y68579D01*
X144655Y70319D01*
X141439Y73535D01*
X139699Y77736D01*
X139699Y82284D01*
X141439Y86485D01*
X144655Y89701D01*
X148856Y91441D01*
X153404Y91441D01*
X157605Y89701D01*
X160821Y86485D01*
X162561Y82284D01*
X162561Y77736D01*
X160821Y73535D01*
X157605Y70319D01*
X153404Y68579D01*
X148856Y68579D01*
G37*
%LPD*%
%LPC*%
G36*
X123456Y68579D02*
X123456Y68579D01*
X119255Y70319D01*
X116039Y73535D01*
X114299Y77736D01*
X114299Y82284D01*
X116039Y86485D01*
X119255Y89701D01*
X123456Y91441D01*
X128004Y91441D01*
X132205Y89701D01*
X135421Y86485D01*
X137161Y82284D01*
X137161Y77736D01*
X135421Y73535D01*
X132205Y70319D01*
X128004Y68579D01*
X123456Y68579D01*
G37*
%LPD*%
%LPC*%
G36*
X98056Y68579D02*
X98056Y68579D01*
X93855Y70319D01*
X90639Y73535D01*
X88899Y77736D01*
X88899Y82284D01*
X90639Y86485D01*
X93855Y89701D01*
X98056Y91441D01*
X102604Y91441D01*
X106805Y89701D01*
X110021Y86485D01*
X111761Y82284D01*
X111761Y77736D01*
X110021Y73535D01*
X106805Y70319D01*
X102604Y68579D01*
X98056Y68579D01*
G37*
%LPD*%
%LPC*%
G36*
X72656Y68579D02*
X72656Y68579D01*
X68455Y70319D01*
X65239Y73535D01*
X63499Y77736D01*
X63499Y82284D01*
X65239Y86485D01*
X68455Y89701D01*
X72656Y91441D01*
X77204Y91441D01*
X81405Y89701D01*
X84621Y86485D01*
X86361Y82284D01*
X86361Y77736D01*
X84621Y73535D01*
X81405Y70319D01*
X77204Y68579D01*
X72656Y68579D01*
G37*
%LPD*%
%LPC*%
G36*
X47256Y68579D02*
X47256Y68579D01*
X43055Y70319D01*
X39839Y73535D01*
X38099Y77736D01*
X38099Y82284D01*
X39839Y86485D01*
X43055Y89701D01*
X47256Y91441D01*
X51804Y91441D01*
X56005Y89701D01*
X59221Y86485D01*
X60961Y82284D01*
X60961Y77736D01*
X59221Y73535D01*
X56005Y70319D01*
X51804Y68579D01*
X47256Y68579D01*
G37*
%LPD*%
%LPC*%
G36*
X21856Y68579D02*
X21856Y68579D01*
X17655Y70319D01*
X14439Y73535D01*
X12699Y77736D01*
X12699Y82284D01*
X14439Y86485D01*
X17655Y89701D01*
X21856Y91441D01*
X26404Y91441D01*
X30605Y89701D01*
X33821Y86485D01*
X35561Y82284D01*
X35561Y77736D01*
X33821Y73535D01*
X30605Y70319D01*
X26404Y68579D01*
X21856Y68579D01*
G37*
%LPD*%
%LPC*%
G36*
X509015Y54609D02*
X509015Y54609D01*
X509055Y54866D01*
X509636Y56653D01*
X510489Y58327D01*
X511594Y59848D01*
X512922Y61176D01*
X514443Y62281D01*
X516117Y63134D01*
X517904Y63715D01*
X518161Y63755D01*
X518161Y54609D01*
X509015Y54609D01*
G37*
%LPD*%
D10*
X12700Y52070D03*
X12700Y26670D03*
X520700Y52070D03*
X520700Y26670D03*
X24130Y80010D03*
X49530Y80010D03*
X74930Y80010D03*
X100330Y80010D03*
X125730Y80010D03*
X151130Y80010D03*
X176530Y80010D03*
X201930Y80010D03*
X227330Y80010D03*
X252730Y80010D03*
X278130Y80010D03*
X303530Y80010D03*
X328930Y80010D03*
X354330Y80010D03*
X379730Y80010D03*
X405130Y80010D03*
X430530Y80010D03*
X455930Y80010D03*
X481330Y80010D03*
X506730Y80010D03*
D11*
X73264Y63896D03*
D12*
X105410Y63896D01*
X153670Y63896D01*
D11*
X148590Y57150D03*
D12*
X508874Y63896D02*
X520700Y52070D01*
X508874Y63896D02*
X441960Y63896D01*
X392430Y63896D01*
X345440Y63896D02*
X297180Y63896D01*
X248920Y63896D01*
X199390Y63896D01*
X153670Y63896D01*
D11*
X100817Y55393D03*
D12*
X100817Y59304D01*
X105410Y63896D01*
D11*
X195883Y55880D03*
X244143Y55880D03*
D12*
X148590Y57150D02*
X148590Y58816D01*
X153670Y63896D01*
X244143Y59119D02*
X244143Y55880D01*
X244143Y59119D02*
X248920Y63896D01*
D11*
X292403Y55880D03*
D12*
X292403Y59119D01*
X297180Y63896D01*
D11*
X340663Y57150D03*
D12*
X340663Y59119D01*
X345440Y63896D01*
X195883Y60389D02*
X195883Y55880D01*
X195883Y60389D02*
X199390Y63896D01*
D11*
X388923Y55880D03*
D12*
X388923Y60389D01*
X392430Y63896D01*
D11*
X438150Y55880D03*
D12*
X438150Y60086D01*
X441960Y63896D01*
X392430Y63896D02*
X345440Y63896D01*
D11*
X52070Y24130D03*
D12*
X102858Y24130D01*
D11*
X99363Y27625D03*
X147623Y27625D03*
D12*
X518160Y24130D02*
X520700Y26670D01*
X144127Y24130D02*
X102858Y24130D01*
X144127Y24130D02*
X192387Y24130D01*
X240647Y24130D01*
X288907Y24130D01*
X337167Y24130D01*
X385427Y24130D01*
X433687Y24130D02*
X518160Y24130D01*
X433687Y24130D02*
X385427Y24130D01*
D11*
X195883Y27625D03*
D12*
X102858Y24130D02*
X99363Y27625D01*
D11*
X244143Y27625D03*
X292403Y27625D03*
D12*
X288907Y24130D01*
X147623Y27625D02*
X144127Y24130D01*
X192387Y24130D02*
X195883Y27625D01*
X240647Y24130D02*
X244143Y27625D01*
D11*
X340663Y27625D03*
D12*
X337167Y24130D01*
D11*
X388923Y27625D03*
D12*
X385427Y24130D01*
D11*
X437183Y27625D03*
D12*
X433687Y24130D01*
D11*
X76200Y16066D03*
D12*
X12725Y52070D02*
X12700Y52070D01*
X48730Y16066D02*
X76200Y16066D01*
X48730Y16066D02*
X12725Y52070D01*
D11*
X125558Y16066D03*
D12*
X76200Y16066D01*
D11*
X172720Y16066D03*
D12*
X125558Y16066D01*
D11*
X220980Y16066D03*
D12*
X172720Y16066D01*
D11*
X269240Y16066D03*
D12*
X220980Y16066D01*
D11*
X317500Y16066D03*
D12*
X269240Y16066D01*
D11*
X365760Y16066D03*
D12*
X317500Y16066D01*
D11*
X414020Y16066D03*
D12*
X365760Y16066D01*
D11*
X462280Y16066D03*
D12*
X414020Y16066D01*
M02*
