G04 EAGLE Gerber RS-274X export*
G75*
%MOMM*%
%FSLAX34Y34*%
%LPD*%
%INTop Copper*%
%IPPOS*%
%AMOC8*
5,1,8,0,0,1.08239X$1,22.5*%
G01*
%ADD10R,1.000000X0.500000*%
%ADD11C,1.879600*%
%ADD12C,0.406400*%
%ADD13C,0.800100*%

G36*
X502942Y2543D02*
X502942Y2543D01*
X503020Y2545D01*
X507390Y2889D01*
X507458Y2903D01*
X507527Y2907D01*
X507683Y2947D01*
X515997Y5648D01*
X516104Y5699D01*
X516215Y5742D01*
X516266Y5775D01*
X516284Y5784D01*
X516300Y5796D01*
X516351Y5828D01*
X523423Y10967D01*
X523509Y11048D01*
X523601Y11123D01*
X523640Y11170D01*
X523654Y11184D01*
X523665Y11201D01*
X523703Y11247D01*
X525521Y13749D01*
X525583Y13863D01*
X525651Y13973D01*
X525660Y14001D01*
X525674Y14028D01*
X525707Y14153D01*
X525745Y14277D01*
X525746Y14307D01*
X525754Y14336D01*
X525754Y14465D01*
X525760Y14594D01*
X525754Y14624D01*
X525754Y14654D01*
X525722Y14779D01*
X525695Y14906D01*
X525682Y14933D01*
X525675Y14962D01*
X525613Y15075D01*
X525556Y15191D01*
X525536Y15214D01*
X525522Y15241D01*
X525433Y15335D01*
X525349Y15433D01*
X525325Y15451D01*
X525304Y15473D01*
X525195Y15542D01*
X525089Y15616D01*
X525061Y15627D01*
X525036Y15643D01*
X524913Y15683D01*
X524792Y15729D01*
X524762Y15733D01*
X524733Y15742D01*
X524605Y15750D01*
X524476Y15764D01*
X524446Y15760D01*
X524416Y15762D01*
X524289Y15738D01*
X524161Y15720D01*
X524120Y15706D01*
X524103Y15703D01*
X524084Y15694D01*
X524009Y15668D01*
X522974Y15239D01*
X518426Y15239D01*
X514225Y16979D01*
X511009Y20195D01*
X510336Y21822D01*
X510321Y21847D01*
X510312Y21875D01*
X510242Y21985D01*
X510178Y22098D01*
X510158Y22119D01*
X510142Y22144D01*
X510047Y22233D01*
X509957Y22326D01*
X509932Y22342D01*
X509910Y22362D01*
X509797Y22425D01*
X509686Y22493D01*
X509658Y22501D01*
X509632Y22516D01*
X509506Y22548D01*
X509382Y22586D01*
X509352Y22588D01*
X509324Y22595D01*
X509163Y22605D01*
X508727Y22605D01*
X508629Y22593D01*
X508530Y22590D01*
X508471Y22573D01*
X508411Y22565D01*
X508319Y22529D01*
X508224Y22501D01*
X508172Y22471D01*
X508116Y22448D01*
X508036Y22390D01*
X507950Y22340D01*
X507875Y22274D01*
X507858Y22262D01*
X507850Y22252D01*
X507829Y22234D01*
X506777Y21181D01*
X506712Y21181D01*
X506594Y21166D01*
X506475Y21159D01*
X506437Y21146D01*
X506396Y21141D01*
X506286Y21098D01*
X506173Y21061D01*
X506138Y21039D01*
X506101Y21024D01*
X506005Y20955D01*
X505904Y20891D01*
X505876Y20861D01*
X505843Y20838D01*
X505767Y20746D01*
X505686Y20659D01*
X505666Y20624D01*
X505641Y20593D01*
X505590Y20485D01*
X505532Y20381D01*
X505522Y20341D01*
X505505Y20305D01*
X505483Y20188D01*
X505453Y20073D01*
X505449Y20013D01*
X505445Y19993D01*
X505447Y19972D01*
X505443Y19912D01*
X505443Y13468D01*
X504252Y12277D01*
X492568Y12277D01*
X491377Y13468D01*
X491377Y27409D01*
X491366Y27501D01*
X491364Y27593D01*
X491346Y27658D01*
X491337Y27725D01*
X491303Y27811D01*
X491279Y27900D01*
X491227Y28005D01*
X491220Y28020D01*
X491215Y28027D01*
X491207Y28044D01*
X491042Y28329D01*
X490869Y28976D01*
X490869Y30541D01*
X498410Y30541D01*
X498528Y30556D01*
X498647Y30563D01*
X498685Y30575D01*
X498725Y30580D01*
X498836Y30624D01*
X498949Y30661D01*
X498983Y30683D01*
X499021Y30697D01*
X499117Y30767D01*
X499218Y30831D01*
X499246Y30861D01*
X499278Y30884D01*
X499354Y30976D01*
X499436Y31063D01*
X499455Y31098D01*
X499481Y31129D01*
X499532Y31237D01*
X499589Y31341D01*
X499599Y31380D01*
X499617Y31417D01*
X499639Y31534D01*
X499669Y31649D01*
X499673Y31709D01*
X499676Y31729D01*
X499676Y31730D01*
X499675Y31750D01*
X499679Y31810D01*
X499664Y31928D01*
X499657Y32047D01*
X499644Y32085D01*
X499639Y32126D01*
X499595Y32236D01*
X499559Y32350D01*
X499537Y32384D01*
X499522Y32421D01*
X499452Y32518D01*
X499388Y32618D01*
X499359Y32646D01*
X499335Y32679D01*
X499243Y32755D01*
X499157Y32836D01*
X499121Y32856D01*
X499090Y32882D01*
X498983Y32932D01*
X498878Y32990D01*
X498839Y33000D01*
X498803Y33017D01*
X498686Y33039D01*
X498570Y33069D01*
X498510Y33073D01*
X498490Y33077D01*
X498470Y33076D01*
X498410Y33079D01*
X490869Y33079D01*
X490869Y34644D01*
X491042Y35291D01*
X491207Y35576D01*
X491243Y35661D01*
X491288Y35742D01*
X491304Y35807D01*
X491330Y35869D01*
X491344Y35961D01*
X491367Y36050D01*
X491374Y36167D01*
X491377Y36184D01*
X491376Y36192D01*
X491377Y36211D01*
X491377Y49909D01*
X491366Y50001D01*
X491364Y50093D01*
X491346Y50158D01*
X491337Y50225D01*
X491303Y50311D01*
X491279Y50400D01*
X491227Y50505D01*
X491220Y50520D01*
X491215Y50527D01*
X491207Y50544D01*
X491042Y50829D01*
X490869Y51476D01*
X490869Y53041D01*
X498410Y53041D01*
X505951Y53041D01*
X505951Y51476D01*
X505778Y50829D01*
X505613Y50544D01*
X505577Y50459D01*
X505532Y50378D01*
X505516Y50313D01*
X505490Y50251D01*
X505476Y50159D01*
X505453Y50070D01*
X505446Y49953D01*
X505443Y49936D01*
X505444Y49928D01*
X505443Y49909D01*
X505443Y43708D01*
X505458Y43590D01*
X505465Y43471D01*
X505478Y43433D01*
X505483Y43392D01*
X505526Y43282D01*
X505563Y43169D01*
X505585Y43134D01*
X505600Y43097D01*
X505669Y43001D01*
X505733Y42900D01*
X505763Y42872D01*
X505786Y42839D01*
X505878Y42763D01*
X505965Y42682D01*
X506000Y42662D01*
X506031Y42637D01*
X506139Y42586D01*
X506243Y42528D01*
X506283Y42518D01*
X506319Y42501D01*
X506436Y42479D01*
X506551Y42449D01*
X506611Y42445D01*
X506631Y42441D01*
X506652Y42443D01*
X506712Y42439D01*
X506777Y42439D01*
X509530Y39686D01*
X511539Y37677D01*
X511539Y36738D01*
X511556Y36600D01*
X511569Y36462D01*
X511576Y36443D01*
X511579Y36423D01*
X511630Y36293D01*
X511677Y36163D01*
X511688Y36146D01*
X511696Y36127D01*
X511777Y36015D01*
X511855Y35900D01*
X511871Y35886D01*
X511882Y35870D01*
X511990Y35781D01*
X512094Y35689D01*
X512112Y35680D01*
X512127Y35667D01*
X512253Y35608D01*
X512377Y35545D01*
X512397Y35540D01*
X512415Y35532D01*
X512552Y35505D01*
X512687Y35475D01*
X512708Y35476D01*
X512727Y35472D01*
X512866Y35480D01*
X513005Y35485D01*
X513025Y35490D01*
X513045Y35492D01*
X513177Y35534D01*
X513311Y35573D01*
X513328Y35583D01*
X513347Y35590D01*
X513465Y35664D01*
X513585Y35735D01*
X513606Y35753D01*
X513616Y35760D01*
X513630Y35775D01*
X513705Y35841D01*
X514225Y36361D01*
X518184Y38000D01*
X518296Y38064D01*
X518411Y38123D01*
X518434Y38143D01*
X518460Y38158D01*
X518553Y38248D01*
X518650Y38333D01*
X518667Y38358D01*
X518688Y38379D01*
X518756Y38489D01*
X518829Y38596D01*
X518839Y38624D01*
X518855Y38650D01*
X518893Y38774D01*
X518936Y38895D01*
X518939Y38925D01*
X518948Y38954D01*
X518954Y39083D01*
X518967Y39212D01*
X518962Y39242D01*
X518963Y39272D01*
X518937Y39398D01*
X518917Y39526D01*
X518905Y39554D01*
X518899Y39583D01*
X518842Y39699D01*
X518791Y39818D01*
X518773Y39842D01*
X518759Y39869D01*
X518675Y39967D01*
X518596Y40069D01*
X518573Y40088D01*
X518553Y40111D01*
X518447Y40185D01*
X518345Y40265D01*
X518318Y40277D01*
X518293Y40294D01*
X518172Y40340D01*
X518053Y40391D01*
X518011Y40401D01*
X517996Y40407D01*
X517974Y40409D01*
X517909Y40424D01*
X516117Y41006D01*
X514443Y41859D01*
X512922Y42964D01*
X511594Y44292D01*
X510489Y45813D01*
X509636Y47487D01*
X509055Y49274D01*
X509015Y49531D01*
X519430Y49531D01*
X519548Y49546D01*
X519667Y49553D01*
X519705Y49566D01*
X519745Y49571D01*
X519856Y49614D01*
X519969Y49651D01*
X520003Y49673D01*
X520041Y49688D01*
X520137Y49758D01*
X520238Y49821D01*
X520266Y49851D01*
X520298Y49874D01*
X520374Y49966D01*
X520456Y50053D01*
X520475Y50088D01*
X520501Y50119D01*
X520552Y50227D01*
X520609Y50331D01*
X520620Y50371D01*
X520637Y50407D01*
X520659Y50524D01*
X520689Y50639D01*
X520693Y50700D01*
X520697Y50720D01*
X520695Y50740D01*
X520699Y50800D01*
X520699Y52071D01*
X521970Y52071D01*
X522088Y52086D01*
X522207Y52093D01*
X522245Y52106D01*
X522285Y52111D01*
X522396Y52155D01*
X522509Y52191D01*
X522544Y52213D01*
X522581Y52228D01*
X522677Y52298D01*
X522778Y52361D01*
X522806Y52391D01*
X522839Y52415D01*
X522914Y52506D01*
X522996Y52593D01*
X523016Y52628D01*
X523041Y52660D01*
X523092Y52767D01*
X523150Y52872D01*
X523160Y52911D01*
X523177Y52947D01*
X523199Y53064D01*
X523229Y53179D01*
X523233Y53240D01*
X523237Y53260D01*
X523235Y53280D01*
X523239Y53340D01*
X523239Y63755D01*
X523496Y63715D01*
X525283Y63134D01*
X526957Y62281D01*
X528478Y61176D01*
X529806Y59848D01*
X529833Y59811D01*
X529888Y59753D01*
X529934Y59688D01*
X529996Y59637D01*
X530051Y59579D01*
X530118Y59536D01*
X530179Y59485D01*
X530252Y59451D01*
X530319Y59408D01*
X530395Y59384D01*
X530467Y59350D01*
X530546Y59335D01*
X530622Y59310D01*
X530701Y59305D01*
X530780Y59290D01*
X530859Y59295D01*
X530939Y59290D01*
X531017Y59305D01*
X531097Y59310D01*
X531173Y59334D01*
X531251Y59349D01*
X531324Y59383D01*
X531399Y59408D01*
X531467Y59451D01*
X531539Y59485D01*
X531601Y59535D01*
X531668Y59578D01*
X531723Y59636D01*
X531785Y59687D01*
X531831Y59751D01*
X531886Y59810D01*
X531925Y59880D01*
X531972Y59944D01*
X532001Y60018D01*
X532040Y60088D01*
X532060Y60165D01*
X532089Y60240D01*
X532099Y60319D01*
X532119Y60396D01*
X532129Y60554D01*
X532129Y60555D01*
X532129Y60556D01*
X532129Y60557D01*
X532129Y74930D01*
X532127Y74952D01*
X532125Y75030D01*
X531844Y78606D01*
X531830Y78673D01*
X531826Y78742D01*
X531786Y78898D01*
X529576Y85700D01*
X529525Y85808D01*
X529481Y85918D01*
X529449Y85970D01*
X529440Y85988D01*
X529427Y86004D01*
X529395Y86054D01*
X525191Y91841D01*
X525110Y91927D01*
X525034Y92019D01*
X524988Y92057D01*
X524974Y92072D01*
X524956Y92083D01*
X524911Y92121D01*
X519124Y96325D01*
X519020Y96383D01*
X518920Y96446D01*
X518864Y96469D01*
X518846Y96478D01*
X518826Y96484D01*
X518770Y96506D01*
X511968Y98716D01*
X511900Y98729D01*
X511835Y98751D01*
X511676Y98774D01*
X508100Y99055D01*
X508078Y99054D01*
X508000Y99059D01*
X25699Y99059D01*
X25660Y99054D01*
X25620Y99057D01*
X25460Y99037D01*
X21738Y98324D01*
X21673Y98302D01*
X21604Y98291D01*
X21454Y98234D01*
X14344Y95018D01*
X14243Y94955D01*
X14138Y94900D01*
X14091Y94862D01*
X14073Y94851D01*
X14059Y94837D01*
X14012Y94799D01*
X8245Y89544D01*
X8168Y89453D01*
X8085Y89368D01*
X8051Y89317D01*
X8038Y89302D01*
X8029Y89283D01*
X7997Y89234D01*
X4135Y82453D01*
X4090Y82343D01*
X4037Y82236D01*
X4021Y82178D01*
X4014Y82159D01*
X4011Y82139D01*
X3995Y82081D01*
X2418Y74439D01*
X2413Y74370D01*
X2397Y74303D01*
X2392Y74142D01*
X2479Y71450D01*
X2491Y71372D01*
X2494Y71293D01*
X2516Y71216D01*
X2529Y71136D01*
X2541Y71108D01*
X2541Y70061D01*
X2543Y70047D01*
X2548Y69921D01*
X2648Y69021D01*
X2644Y69007D01*
X2630Y68982D01*
X2598Y68856D01*
X2560Y68731D01*
X2558Y68702D01*
X2551Y68674D01*
X2541Y68514D01*
X2541Y61140D01*
X2558Y61003D01*
X2571Y60864D01*
X2578Y60845D01*
X2581Y60825D01*
X2632Y60696D01*
X2679Y60565D01*
X2690Y60548D01*
X2698Y60529D01*
X2779Y60417D01*
X2857Y60302D01*
X2873Y60288D01*
X2884Y60272D01*
X2992Y60183D01*
X3096Y60091D01*
X3114Y60082D01*
X3129Y60069D01*
X3255Y60010D01*
X3379Y59947D01*
X3399Y59942D01*
X3417Y59934D01*
X3554Y59907D01*
X3689Y59877D01*
X3710Y59878D01*
X3729Y59874D01*
X3868Y59882D01*
X4007Y59887D01*
X4027Y59892D01*
X4047Y59894D01*
X4179Y59936D01*
X4313Y59975D01*
X4330Y59985D01*
X4349Y59992D01*
X4467Y60066D01*
X4587Y60137D01*
X4608Y60155D01*
X4618Y60162D01*
X4632Y60177D01*
X4707Y60243D01*
X6225Y61761D01*
X10426Y63501D01*
X14974Y63501D01*
X18310Y62119D01*
X18358Y62106D01*
X18403Y62084D01*
X18511Y62064D01*
X18617Y62035D01*
X18667Y62034D01*
X18716Y62025D01*
X18825Y62031D01*
X18935Y62030D01*
X18983Y62041D01*
X19033Y62044D01*
X19137Y62078D01*
X19244Y62104D01*
X19288Y62127D01*
X19335Y62142D01*
X19428Y62201D01*
X19525Y62253D01*
X19562Y62286D01*
X19604Y62313D01*
X19679Y62393D01*
X19761Y62466D01*
X19788Y62508D01*
X19822Y62544D01*
X19875Y62640D01*
X19935Y62732D01*
X19952Y62779D01*
X19976Y62823D01*
X20003Y62929D01*
X20039Y63033D01*
X20043Y63083D01*
X20055Y63131D01*
X20065Y63291D01*
X20065Y68473D01*
X20062Y68502D01*
X20064Y68532D01*
X20042Y68660D01*
X20025Y68789D01*
X20015Y68816D01*
X20010Y68845D01*
X19956Y68964D01*
X19908Y69084D01*
X19891Y69108D01*
X19879Y69135D01*
X19798Y69236D01*
X19722Y69342D01*
X19699Y69360D01*
X19680Y69383D01*
X19577Y69461D01*
X19477Y69544D01*
X19450Y69557D01*
X19426Y69575D01*
X19282Y69646D01*
X17655Y70319D01*
X14439Y73535D01*
X12699Y77736D01*
X12699Y82284D01*
X14439Y86485D01*
X17655Y89701D01*
X21856Y91441D01*
X26404Y91441D01*
X30605Y89701D01*
X33821Y86485D01*
X35561Y82284D01*
X35561Y77736D01*
X33797Y73479D01*
X33779Y73412D01*
X33751Y73348D01*
X33737Y73259D01*
X33713Y73172D01*
X33712Y73103D01*
X33701Y73034D01*
X33710Y72944D01*
X33708Y72854D01*
X33725Y72786D01*
X33731Y72717D01*
X33762Y72632D01*
X33782Y72545D01*
X33815Y72483D01*
X33839Y72418D01*
X33889Y72343D01*
X33931Y72264D01*
X33978Y72212D01*
X34017Y72155D01*
X34085Y72095D01*
X34145Y72029D01*
X34203Y71990D01*
X34256Y71944D01*
X34336Y71903D01*
X34411Y71854D01*
X34477Y71831D01*
X34539Y71799D01*
X34627Y71780D01*
X34712Y71751D01*
X34781Y71745D01*
X34849Y71730D01*
X34939Y71733D01*
X35029Y71725D01*
X35097Y71737D01*
X35167Y71739D01*
X35253Y71764D01*
X35342Y71780D01*
X35406Y71809D01*
X35473Y71828D01*
X35550Y71874D01*
X35632Y71910D01*
X35686Y71954D01*
X35747Y71989D01*
X35867Y72096D01*
X38498Y74726D01*
X38516Y74750D01*
X38539Y74769D01*
X38613Y74875D01*
X38693Y74978D01*
X38705Y75005D01*
X38722Y75029D01*
X38768Y75150D01*
X38819Y75269D01*
X38824Y75299D01*
X38834Y75326D01*
X38849Y75455D01*
X38869Y75584D01*
X38866Y75613D01*
X38870Y75642D01*
X38851Y75771D01*
X38839Y75900D01*
X38829Y75928D01*
X38825Y75957D01*
X38773Y76110D01*
X38099Y77736D01*
X38099Y82284D01*
X39839Y86485D01*
X43055Y89701D01*
X47256Y91441D01*
X51804Y91441D01*
X56005Y89701D01*
X59221Y86485D01*
X60961Y82284D01*
X60961Y77736D01*
X59221Y73535D01*
X56005Y70319D01*
X51804Y68579D01*
X47256Y68579D01*
X45890Y69145D01*
X45842Y69158D01*
X45797Y69180D01*
X45689Y69200D01*
X45583Y69229D01*
X45533Y69230D01*
X45484Y69239D01*
X45375Y69233D01*
X45265Y69234D01*
X45217Y69223D01*
X45167Y69220D01*
X45063Y69186D01*
X44956Y69160D01*
X44912Y69137D01*
X44865Y69122D01*
X44772Y69063D01*
X44675Y69011D01*
X44638Y68978D01*
X44596Y68951D01*
X44521Y68871D01*
X44439Y68798D01*
X44412Y68756D01*
X44378Y68720D01*
X44325Y68624D01*
X44265Y68532D01*
X44248Y68485D01*
X44224Y68441D01*
X44197Y68335D01*
X44161Y68231D01*
X44157Y68181D01*
X44145Y68133D01*
X44135Y67973D01*
X44135Y60112D01*
X44150Y59994D01*
X44157Y59875D01*
X44170Y59837D01*
X44175Y59796D01*
X44218Y59686D01*
X44255Y59573D01*
X44277Y59538D01*
X44292Y59501D01*
X44361Y59405D01*
X44425Y59304D01*
X44455Y59276D01*
X44478Y59243D01*
X44570Y59167D01*
X44657Y59086D01*
X44692Y59066D01*
X44723Y59041D01*
X44831Y58990D01*
X44935Y58932D01*
X44975Y58922D01*
X45011Y58905D01*
X45128Y58883D01*
X45243Y58853D01*
X45303Y58849D01*
X45323Y58845D01*
X45344Y58847D01*
X45404Y58843D01*
X45912Y58843D01*
X47103Y57652D01*
X47103Y30502D01*
X47109Y30453D01*
X47107Y30403D01*
X47129Y30296D01*
X47143Y30187D01*
X47161Y30141D01*
X47171Y30092D01*
X47219Y29993D01*
X47260Y29891D01*
X47289Y29851D01*
X47311Y29806D01*
X47382Y29723D01*
X47446Y29634D01*
X47485Y29602D01*
X47517Y29564D01*
X47607Y29501D01*
X47691Y29431D01*
X47736Y29410D01*
X47777Y29381D01*
X47880Y29342D01*
X47979Y29295D01*
X48028Y29286D01*
X48074Y29268D01*
X48184Y29256D01*
X48291Y29236D01*
X48341Y29239D01*
X48390Y29233D01*
X48499Y29249D01*
X48609Y29255D01*
X48656Y29271D01*
X48705Y29278D01*
X48858Y29330D01*
X50870Y30163D01*
X53270Y30163D01*
X54774Y29540D01*
X54822Y29527D01*
X54867Y29506D01*
X54975Y29485D01*
X55081Y29456D01*
X55131Y29455D01*
X55180Y29446D01*
X55289Y29453D01*
X55399Y29451D01*
X55447Y29463D01*
X55497Y29466D01*
X55601Y29500D01*
X55708Y29525D01*
X55752Y29549D01*
X55799Y29564D01*
X55892Y29623D01*
X55989Y29674D01*
X56026Y29707D01*
X56068Y29734D01*
X56143Y29814D01*
X56225Y29888D01*
X56252Y29929D01*
X56286Y29966D01*
X56339Y30062D01*
X56399Y30154D01*
X56416Y30201D01*
X56440Y30244D01*
X56467Y30350D01*
X56503Y30454D01*
X56507Y30504D01*
X56516Y30541D01*
X64070Y30541D01*
X64188Y30556D01*
X64307Y30563D01*
X64345Y30575D01*
X64385Y30580D01*
X64496Y30624D01*
X64609Y30661D01*
X64643Y30683D01*
X64681Y30697D01*
X64777Y30767D01*
X64878Y30831D01*
X64906Y30861D01*
X64938Y30884D01*
X65014Y30976D01*
X65096Y31063D01*
X65115Y31098D01*
X65141Y31129D01*
X65192Y31237D01*
X65249Y31341D01*
X65259Y31380D01*
X65277Y31417D01*
X65299Y31534D01*
X65329Y31649D01*
X65333Y31709D01*
X65336Y31729D01*
X65336Y31730D01*
X65335Y31750D01*
X65339Y31810D01*
X65324Y31928D01*
X65317Y32047D01*
X65304Y32085D01*
X65299Y32126D01*
X65255Y32236D01*
X65219Y32350D01*
X65197Y32384D01*
X65182Y32421D01*
X65112Y32518D01*
X65048Y32618D01*
X65019Y32646D01*
X64995Y32679D01*
X64903Y32755D01*
X64817Y32836D01*
X64781Y32856D01*
X64750Y32882D01*
X64643Y32932D01*
X64538Y32990D01*
X64499Y33000D01*
X64463Y33017D01*
X64346Y33039D01*
X64230Y33069D01*
X64170Y33073D01*
X64150Y33077D01*
X64130Y33076D01*
X64070Y33079D01*
X56529Y33079D01*
X56529Y34644D01*
X56702Y35291D01*
X56867Y35576D01*
X56903Y35661D01*
X56948Y35742D01*
X56964Y35807D01*
X56990Y35869D01*
X57004Y35961D01*
X57027Y36050D01*
X57034Y36167D01*
X57037Y36184D01*
X57036Y36192D01*
X57037Y36211D01*
X57037Y49909D01*
X57026Y50001D01*
X57024Y50093D01*
X57006Y50158D01*
X56997Y50225D01*
X56963Y50311D01*
X56939Y50400D01*
X56887Y50505D01*
X56880Y50520D01*
X56875Y50527D01*
X56867Y50544D01*
X56702Y50829D01*
X56529Y51476D01*
X56529Y53041D01*
X64070Y53041D01*
X71611Y53041D01*
X71611Y51476D01*
X71438Y50829D01*
X71273Y50544D01*
X71237Y50459D01*
X71192Y50378D01*
X71176Y50313D01*
X71150Y50251D01*
X71136Y50159D01*
X71113Y50070D01*
X71106Y49953D01*
X71103Y49936D01*
X71104Y49928D01*
X71103Y49909D01*
X71103Y43708D01*
X71118Y43590D01*
X71125Y43471D01*
X71138Y43433D01*
X71143Y43392D01*
X71186Y43282D01*
X71223Y43169D01*
X71245Y43134D01*
X71260Y43097D01*
X71329Y43001D01*
X71393Y42900D01*
X71423Y42872D01*
X71446Y42839D01*
X71538Y42763D01*
X71625Y42682D01*
X71660Y42662D01*
X71691Y42637D01*
X71799Y42586D01*
X71903Y42528D01*
X71943Y42518D01*
X71979Y42501D01*
X72096Y42479D01*
X72211Y42449D01*
X72271Y42445D01*
X72291Y42441D01*
X72312Y42443D01*
X72372Y42439D01*
X72437Y42439D01*
X73035Y41841D01*
X73144Y41756D01*
X73251Y41667D01*
X73270Y41659D01*
X73286Y41646D01*
X73413Y41591D01*
X73539Y41532D01*
X73559Y41528D01*
X73578Y41520D01*
X73716Y41498D01*
X73852Y41472D01*
X73872Y41473D01*
X73892Y41470D01*
X74031Y41483D01*
X74169Y41492D01*
X74188Y41498D01*
X74208Y41500D01*
X74340Y41547D01*
X74471Y41590D01*
X74489Y41601D01*
X74508Y41608D01*
X74623Y41686D01*
X74740Y41760D01*
X74754Y41775D01*
X74771Y41786D01*
X74863Y41890D01*
X74958Y41992D01*
X74968Y42009D01*
X74981Y42025D01*
X75044Y42148D01*
X75112Y42270D01*
X75117Y42290D01*
X75126Y42308D01*
X75156Y42444D01*
X75191Y42578D01*
X75193Y42606D01*
X75196Y42618D01*
X75195Y42639D01*
X75201Y42739D01*
X75201Y60177D01*
X76892Y61868D01*
X76953Y61946D01*
X77020Y62018D01*
X77050Y62071D01*
X77087Y62119D01*
X77126Y62210D01*
X77174Y62297D01*
X77189Y62355D01*
X77213Y62411D01*
X77229Y62509D01*
X77253Y62604D01*
X77260Y62705D01*
X77263Y62725D01*
X77262Y62737D01*
X77264Y62765D01*
X77264Y67310D01*
X77249Y67428D01*
X77241Y67547D01*
X77229Y67585D01*
X77224Y67626D01*
X77180Y67736D01*
X77143Y67849D01*
X77122Y67884D01*
X77107Y67921D01*
X77037Y68017D01*
X76973Y68118D01*
X76944Y68146D01*
X76920Y68179D01*
X76828Y68255D01*
X76742Y68336D01*
X76706Y68356D01*
X76675Y68381D01*
X76567Y68432D01*
X76463Y68490D01*
X76424Y68500D01*
X76387Y68517D01*
X76270Y68539D01*
X76155Y68569D01*
X76095Y68573D01*
X76075Y68577D01*
X76055Y68575D01*
X75994Y68579D01*
X72656Y68579D01*
X68455Y70319D01*
X65239Y73535D01*
X63499Y77736D01*
X63499Y82284D01*
X65239Y86485D01*
X68455Y89701D01*
X72656Y91441D01*
X77204Y91441D01*
X81405Y89701D01*
X84621Y86485D01*
X86361Y82284D01*
X86361Y77736D01*
X85490Y75633D01*
X85487Y75625D01*
X85483Y75616D01*
X85445Y75471D01*
X85406Y75327D01*
X85406Y75317D01*
X85403Y75308D01*
X85393Y75148D01*
X85393Y73886D01*
X85410Y73748D01*
X85424Y73609D01*
X85430Y73590D01*
X85433Y73570D01*
X85484Y73441D01*
X85531Y73310D01*
X85543Y73293D01*
X85550Y73275D01*
X85632Y73162D01*
X85710Y73047D01*
X85725Y73034D01*
X85737Y73017D01*
X85844Y72928D01*
X85948Y72836D01*
X85966Y72827D01*
X85982Y72814D01*
X86107Y72755D01*
X86231Y72692D01*
X86251Y72687D01*
X86270Y72679D01*
X86406Y72653D01*
X86542Y72622D01*
X86562Y72623D01*
X86582Y72619D01*
X86720Y72628D01*
X86860Y72632D01*
X86879Y72638D01*
X86899Y72639D01*
X87031Y72682D01*
X87165Y72720D01*
X87183Y72731D01*
X87202Y72737D01*
X87319Y72811D01*
X87439Y72882D01*
X87460Y72900D01*
X87470Y72907D01*
X87484Y72922D01*
X87560Y72988D01*
X89298Y74726D01*
X89316Y74750D01*
X89339Y74769D01*
X89413Y74875D01*
X89493Y74978D01*
X89505Y75005D01*
X89522Y75029D01*
X89568Y75150D01*
X89619Y75269D01*
X89624Y75299D01*
X89634Y75326D01*
X89649Y75455D01*
X89669Y75584D01*
X89666Y75613D01*
X89670Y75642D01*
X89651Y75771D01*
X89639Y75900D01*
X89629Y75928D01*
X89625Y75957D01*
X89573Y76110D01*
X88899Y77736D01*
X88899Y82284D01*
X90639Y86485D01*
X93855Y89701D01*
X98056Y91441D01*
X102604Y91441D01*
X106805Y89701D01*
X110021Y86485D01*
X111761Y82284D01*
X111761Y77736D01*
X110021Y73535D01*
X106805Y70319D01*
X102604Y68579D01*
X98056Y68579D01*
X96430Y69253D01*
X96401Y69261D01*
X96375Y69274D01*
X96248Y69303D01*
X96123Y69337D01*
X96093Y69337D01*
X96064Y69344D01*
X95935Y69340D01*
X95805Y69342D01*
X95776Y69335D01*
X95747Y69334D01*
X95622Y69298D01*
X95496Y69268D01*
X95469Y69254D01*
X95441Y69246D01*
X95329Y69180D01*
X95214Y69119D01*
X95193Y69099D01*
X95167Y69084D01*
X95046Y68978D01*
X92766Y66698D01*
X92706Y66620D01*
X92638Y66548D01*
X92609Y66495D01*
X92572Y66447D01*
X92532Y66356D01*
X92484Y66269D01*
X92469Y66211D01*
X92445Y66155D01*
X92430Y66057D01*
X92405Y65961D01*
X92399Y65861D01*
X92395Y65841D01*
X92397Y65829D01*
X92395Y65801D01*
X92395Y60112D01*
X92410Y59994D01*
X92417Y59875D01*
X92430Y59837D01*
X92435Y59796D01*
X92478Y59686D01*
X92515Y59573D01*
X92537Y59538D01*
X92552Y59501D01*
X92621Y59405D01*
X92685Y59304D01*
X92715Y59276D01*
X92738Y59243D01*
X92830Y59167D01*
X92917Y59086D01*
X92952Y59066D01*
X92983Y59041D01*
X93091Y58990D01*
X93195Y58932D01*
X93235Y58922D01*
X93271Y58905D01*
X93388Y58883D01*
X93503Y58853D01*
X93563Y58849D01*
X93583Y58845D01*
X93604Y58847D01*
X93664Y58843D01*
X94172Y58843D01*
X95363Y57652D01*
X95363Y34398D01*
X95369Y34349D01*
X95367Y34299D01*
X95389Y34192D01*
X95403Y34083D01*
X95421Y34037D01*
X95431Y33988D01*
X95479Y33889D01*
X95520Y33787D01*
X95549Y33747D01*
X95571Y33702D01*
X95642Y33619D01*
X95706Y33530D01*
X95745Y33498D01*
X95777Y33460D01*
X95867Y33397D01*
X95951Y33327D01*
X95996Y33306D01*
X96037Y33277D01*
X96140Y33238D01*
X96239Y33191D01*
X96288Y33182D01*
X96334Y33164D01*
X96444Y33152D01*
X96551Y33132D01*
X96601Y33135D01*
X96650Y33129D01*
X96759Y33145D01*
X96869Y33151D01*
X96916Y33167D01*
X96965Y33174D01*
X97118Y33226D01*
X98162Y33658D01*
X100563Y33658D01*
X102952Y32669D01*
X103001Y32647D01*
X103127Y32588D01*
X103147Y32584D01*
X103165Y32576D01*
X103303Y32554D01*
X103440Y32528D01*
X103459Y32529D01*
X103479Y32526D01*
X103618Y32539D01*
X103757Y32548D01*
X103776Y32554D01*
X103795Y32556D01*
X103927Y32603D01*
X104059Y32646D01*
X104076Y32657D01*
X104095Y32663D01*
X104211Y32742D01*
X104328Y32816D01*
X104342Y32831D01*
X104358Y32842D01*
X104451Y32946D01*
X104546Y33048D01*
X104556Y33065D01*
X104569Y33080D01*
X104632Y33204D01*
X104700Y33326D01*
X104705Y33345D01*
X104714Y33363D01*
X104744Y33499D01*
X104779Y33634D01*
X104781Y33662D01*
X104783Y33673D01*
X104783Y33694D01*
X104789Y33795D01*
X104789Y34644D01*
X104962Y35291D01*
X105127Y35576D01*
X105163Y35661D01*
X105208Y35742D01*
X105224Y35807D01*
X105250Y35869D01*
X105264Y35961D01*
X105287Y36050D01*
X105294Y36167D01*
X105297Y36184D01*
X105296Y36192D01*
X105297Y36211D01*
X105297Y49909D01*
X105286Y50001D01*
X105284Y50093D01*
X105266Y50158D01*
X105257Y50225D01*
X105223Y50311D01*
X105199Y50400D01*
X105147Y50505D01*
X105140Y50521D01*
X105135Y50527D01*
X105127Y50544D01*
X104962Y50829D01*
X104789Y51476D01*
X104789Y53041D01*
X112330Y53041D01*
X119871Y53041D01*
X119871Y51476D01*
X119698Y50829D01*
X119533Y50544D01*
X119497Y50459D01*
X119452Y50378D01*
X119436Y50313D01*
X119410Y50251D01*
X119396Y50159D01*
X119373Y50070D01*
X119366Y49953D01*
X119363Y49936D01*
X119364Y49928D01*
X119363Y49909D01*
X119363Y44176D01*
X119378Y44058D01*
X119385Y43939D01*
X119398Y43901D01*
X119403Y43860D01*
X119446Y43750D01*
X119483Y43637D01*
X119505Y43602D01*
X119520Y43565D01*
X119589Y43469D01*
X119653Y43368D01*
X119683Y43340D01*
X119706Y43307D01*
X119798Y43231D01*
X119885Y43150D01*
X119920Y43130D01*
X119951Y43105D01*
X120059Y43054D01*
X120110Y43026D01*
X121295Y41841D01*
X121404Y41756D01*
X121511Y41667D01*
X121530Y41659D01*
X121546Y41646D01*
X121673Y41591D01*
X121799Y41532D01*
X121819Y41528D01*
X121838Y41520D01*
X121976Y41498D01*
X122112Y41472D01*
X122132Y41473D01*
X122152Y41470D01*
X122291Y41483D01*
X122429Y41492D01*
X122448Y41498D01*
X122468Y41500D01*
X122600Y41547D01*
X122731Y41590D01*
X122749Y41601D01*
X122768Y41608D01*
X122883Y41686D01*
X123000Y41760D01*
X123014Y41775D01*
X123031Y41786D01*
X123123Y41890D01*
X123218Y41992D01*
X123228Y42009D01*
X123241Y42025D01*
X123305Y42149D01*
X123372Y42270D01*
X123377Y42290D01*
X123386Y42308D01*
X123416Y42444D01*
X123451Y42578D01*
X123453Y42606D01*
X123456Y42618D01*
X123455Y42639D01*
X123461Y42739D01*
X123461Y67729D01*
X123458Y67758D01*
X123460Y67788D01*
X123438Y67916D01*
X123421Y68045D01*
X123411Y68072D01*
X123406Y68101D01*
X123352Y68220D01*
X123304Y68340D01*
X123287Y68364D01*
X123275Y68391D01*
X123194Y68492D01*
X123118Y68598D01*
X123095Y68617D01*
X123076Y68640D01*
X122973Y68717D01*
X122873Y68800D01*
X122846Y68813D01*
X122822Y68831D01*
X122678Y68902D01*
X119255Y70319D01*
X116039Y73535D01*
X114299Y77736D01*
X114299Y82284D01*
X116039Y86485D01*
X119255Y89701D01*
X123456Y91441D01*
X128004Y91441D01*
X132205Y89701D01*
X135421Y86485D01*
X137161Y82284D01*
X137161Y77736D01*
X135397Y73479D01*
X135379Y73412D01*
X135351Y73348D01*
X135337Y73259D01*
X135313Y73172D01*
X135312Y73103D01*
X135301Y73034D01*
X135310Y72944D01*
X135308Y72854D01*
X135325Y72786D01*
X135331Y72717D01*
X135362Y72632D01*
X135382Y72545D01*
X135415Y72483D01*
X135439Y72418D01*
X135489Y72343D01*
X135531Y72264D01*
X135578Y72212D01*
X135617Y72155D01*
X135685Y72095D01*
X135745Y72029D01*
X135803Y71990D01*
X135856Y71944D01*
X135936Y71903D01*
X136011Y71854D01*
X136077Y71831D01*
X136139Y71799D01*
X136227Y71780D01*
X136312Y71751D01*
X136381Y71745D01*
X136449Y71730D01*
X136539Y71733D01*
X136629Y71725D01*
X136697Y71737D01*
X136767Y71739D01*
X136853Y71764D01*
X136942Y71780D01*
X137006Y71809D01*
X137073Y71828D01*
X137150Y71874D01*
X137232Y71910D01*
X137286Y71954D01*
X137347Y71989D01*
X137467Y72096D01*
X140098Y74726D01*
X140116Y74750D01*
X140139Y74769D01*
X140213Y74875D01*
X140293Y74978D01*
X140305Y75005D01*
X140322Y75029D01*
X140368Y75150D01*
X140419Y75269D01*
X140424Y75299D01*
X140434Y75326D01*
X140449Y75455D01*
X140469Y75584D01*
X140466Y75613D01*
X140470Y75642D01*
X140451Y75771D01*
X140439Y75900D01*
X140429Y75928D01*
X140425Y75957D01*
X140373Y76110D01*
X139699Y77736D01*
X139699Y82284D01*
X141439Y86485D01*
X144655Y89701D01*
X148856Y91441D01*
X153404Y91441D01*
X157605Y89701D01*
X160821Y86485D01*
X162561Y82284D01*
X162561Y77736D01*
X160821Y73535D01*
X157605Y70319D01*
X153404Y68579D01*
X148856Y68579D01*
X147230Y69253D01*
X147201Y69261D01*
X147175Y69274D01*
X147048Y69303D01*
X146923Y69337D01*
X146893Y69337D01*
X146864Y69344D01*
X146735Y69340D01*
X146605Y69342D01*
X146576Y69335D01*
X146547Y69334D01*
X146422Y69298D01*
X146296Y69268D01*
X146269Y69254D01*
X146241Y69246D01*
X146129Y69180D01*
X146014Y69119D01*
X145993Y69099D01*
X145967Y69084D01*
X145846Y68978D01*
X141026Y64158D01*
X140966Y64080D01*
X140898Y64008D01*
X140869Y63955D01*
X140832Y63907D01*
X140792Y63816D01*
X140744Y63729D01*
X140729Y63671D01*
X140705Y63615D01*
X140690Y63517D01*
X140665Y63421D01*
X140659Y63321D01*
X140655Y63301D01*
X140657Y63289D01*
X140655Y63261D01*
X140655Y60112D01*
X140670Y59994D01*
X140677Y59875D01*
X140690Y59837D01*
X140695Y59796D01*
X140738Y59686D01*
X140775Y59573D01*
X140797Y59538D01*
X140812Y59501D01*
X140881Y59405D01*
X140945Y59304D01*
X140975Y59276D01*
X140998Y59243D01*
X141090Y59167D01*
X141177Y59086D01*
X141212Y59066D01*
X141243Y59041D01*
X141351Y58990D01*
X141455Y58932D01*
X141495Y58922D01*
X141531Y58905D01*
X141648Y58883D01*
X141763Y58853D01*
X141823Y58849D01*
X141843Y58845D01*
X141864Y58847D01*
X141924Y58843D01*
X142432Y58843D01*
X143623Y57652D01*
X143623Y34398D01*
X143629Y34349D01*
X143627Y34299D01*
X143649Y34192D01*
X143663Y34083D01*
X143681Y34037D01*
X143691Y33988D01*
X143739Y33889D01*
X143780Y33787D01*
X143809Y33747D01*
X143831Y33702D01*
X143902Y33619D01*
X143966Y33530D01*
X144005Y33498D01*
X144037Y33460D01*
X144127Y33397D01*
X144211Y33327D01*
X144256Y33306D01*
X144297Y33277D01*
X144400Y33238D01*
X144499Y33191D01*
X144548Y33182D01*
X144594Y33164D01*
X144704Y33152D01*
X144811Y33132D01*
X144861Y33135D01*
X144910Y33129D01*
X145019Y33145D01*
X145129Y33151D01*
X145176Y33167D01*
X145225Y33174D01*
X145378Y33226D01*
X146422Y33658D01*
X148823Y33658D01*
X151212Y32669D01*
X151261Y32647D01*
X151387Y32588D01*
X151407Y32584D01*
X151425Y32576D01*
X151563Y32554D01*
X151700Y32528D01*
X151719Y32529D01*
X151739Y32526D01*
X151878Y32539D01*
X152017Y32548D01*
X152036Y32554D01*
X152055Y32556D01*
X152187Y32603D01*
X152319Y32646D01*
X152336Y32657D01*
X152355Y32663D01*
X152471Y32742D01*
X152588Y32816D01*
X152602Y32831D01*
X152618Y32842D01*
X152711Y32946D01*
X152806Y33048D01*
X152816Y33065D01*
X152829Y33080D01*
X152892Y33204D01*
X152960Y33326D01*
X152965Y33345D01*
X152974Y33363D01*
X153004Y33499D01*
X153039Y33634D01*
X153041Y33662D01*
X153043Y33673D01*
X153043Y33694D01*
X153049Y33795D01*
X153049Y34644D01*
X153222Y35291D01*
X153387Y35576D01*
X153423Y35661D01*
X153468Y35742D01*
X153484Y35807D01*
X153510Y35869D01*
X153524Y35961D01*
X153547Y36050D01*
X153554Y36167D01*
X153557Y36184D01*
X153556Y36192D01*
X153557Y36211D01*
X153557Y49909D01*
X153546Y50001D01*
X153544Y50093D01*
X153526Y50158D01*
X153517Y50225D01*
X153483Y50311D01*
X153459Y50400D01*
X153407Y50505D01*
X153400Y50520D01*
X153395Y50527D01*
X153387Y50544D01*
X153222Y50829D01*
X153049Y51476D01*
X153049Y53041D01*
X160590Y53041D01*
X168131Y53041D01*
X168131Y51476D01*
X167958Y50829D01*
X167793Y50544D01*
X167757Y50459D01*
X167712Y50378D01*
X167696Y50313D01*
X167670Y50251D01*
X167656Y50159D01*
X167633Y50070D01*
X167626Y49953D01*
X167623Y49936D01*
X167624Y49928D01*
X167623Y49909D01*
X167623Y43708D01*
X167638Y43590D01*
X167645Y43471D01*
X167658Y43433D01*
X167663Y43392D01*
X167706Y43282D01*
X167743Y43169D01*
X167765Y43134D01*
X167780Y43097D01*
X167849Y43001D01*
X167913Y42900D01*
X167943Y42872D01*
X167966Y42839D01*
X168058Y42763D01*
X168145Y42682D01*
X168180Y42662D01*
X168211Y42637D01*
X168319Y42586D01*
X168423Y42528D01*
X168463Y42518D01*
X168499Y42501D01*
X168616Y42479D01*
X168731Y42449D01*
X168791Y42445D01*
X168811Y42441D01*
X168832Y42443D01*
X168892Y42439D01*
X168957Y42439D01*
X169555Y41841D01*
X169664Y41756D01*
X169771Y41667D01*
X169790Y41659D01*
X169806Y41646D01*
X169933Y41591D01*
X170059Y41532D01*
X170079Y41528D01*
X170098Y41520D01*
X170236Y41498D01*
X170372Y41472D01*
X170392Y41473D01*
X170412Y41470D01*
X170551Y41483D01*
X170689Y41492D01*
X170708Y41498D01*
X170728Y41500D01*
X170860Y41547D01*
X170991Y41590D01*
X171009Y41601D01*
X171028Y41608D01*
X171143Y41686D01*
X171260Y41760D01*
X171274Y41775D01*
X171291Y41786D01*
X171383Y41890D01*
X171478Y41992D01*
X171488Y42009D01*
X171501Y42025D01*
X171564Y42148D01*
X171632Y42270D01*
X171637Y42290D01*
X171646Y42308D01*
X171676Y42444D01*
X171711Y42578D01*
X171713Y42606D01*
X171716Y42618D01*
X171715Y42639D01*
X171721Y42739D01*
X171721Y60177D01*
X172094Y60549D01*
X172154Y60628D01*
X172222Y60700D01*
X172251Y60753D01*
X172288Y60801D01*
X172328Y60892D01*
X172376Y60978D01*
X172391Y61037D01*
X172415Y61092D01*
X172430Y61190D01*
X172455Y61286D01*
X172461Y61386D01*
X172465Y61407D01*
X172463Y61419D01*
X172465Y61447D01*
X172465Y68473D01*
X172462Y68502D01*
X172464Y68532D01*
X172442Y68660D01*
X172425Y68789D01*
X172415Y68816D01*
X172410Y68845D01*
X172356Y68964D01*
X172308Y69084D01*
X172291Y69108D01*
X172279Y69135D01*
X172198Y69236D01*
X172122Y69342D01*
X172099Y69360D01*
X172080Y69383D01*
X171977Y69461D01*
X171877Y69544D01*
X171850Y69557D01*
X171826Y69575D01*
X171682Y69646D01*
X170055Y70319D01*
X166839Y73535D01*
X165099Y77736D01*
X165099Y82284D01*
X166839Y86485D01*
X170055Y89701D01*
X174256Y91441D01*
X178804Y91441D01*
X183005Y89701D01*
X186221Y86485D01*
X187961Y82284D01*
X187961Y77736D01*
X186197Y73479D01*
X186179Y73412D01*
X186151Y73348D01*
X186137Y73259D01*
X186113Y73172D01*
X186112Y73103D01*
X186101Y73034D01*
X186110Y72944D01*
X186108Y72854D01*
X186125Y72786D01*
X186131Y72717D01*
X186162Y72632D01*
X186182Y72545D01*
X186215Y72483D01*
X186239Y72418D01*
X186289Y72343D01*
X186331Y72264D01*
X186378Y72212D01*
X186417Y72155D01*
X186485Y72095D01*
X186545Y72029D01*
X186603Y71990D01*
X186656Y71944D01*
X186736Y71903D01*
X186811Y71854D01*
X186877Y71831D01*
X186939Y71799D01*
X187027Y71780D01*
X187112Y71751D01*
X187181Y71745D01*
X187249Y71730D01*
X187339Y71733D01*
X187429Y71725D01*
X187497Y71737D01*
X187567Y71739D01*
X187653Y71764D01*
X187742Y71780D01*
X187806Y71809D01*
X187873Y71828D01*
X187950Y71874D01*
X188032Y71910D01*
X188086Y71954D01*
X188147Y71989D01*
X188267Y72096D01*
X190898Y74726D01*
X190916Y74750D01*
X190939Y74769D01*
X191013Y74875D01*
X191093Y74978D01*
X191105Y75005D01*
X191122Y75029D01*
X191168Y75150D01*
X191219Y75269D01*
X191224Y75299D01*
X191234Y75326D01*
X191249Y75455D01*
X191269Y75584D01*
X191266Y75613D01*
X191270Y75642D01*
X191251Y75771D01*
X191239Y75900D01*
X191229Y75928D01*
X191225Y75957D01*
X191173Y76110D01*
X190499Y77736D01*
X190499Y82284D01*
X192239Y86485D01*
X195455Y89701D01*
X199656Y91441D01*
X204204Y91441D01*
X208405Y89701D01*
X211621Y86485D01*
X213361Y82284D01*
X213361Y77736D01*
X211621Y73535D01*
X208405Y70319D01*
X204204Y68579D01*
X199656Y68579D01*
X198030Y69253D01*
X198001Y69261D01*
X197975Y69274D01*
X197848Y69303D01*
X197723Y69337D01*
X197693Y69337D01*
X197664Y69344D01*
X197535Y69340D01*
X197405Y69342D01*
X197376Y69335D01*
X197347Y69334D01*
X197222Y69298D01*
X197096Y69268D01*
X197069Y69254D01*
X197041Y69246D01*
X196929Y69180D01*
X196814Y69119D01*
X196793Y69099D01*
X196767Y69084D01*
X196646Y68978D01*
X189286Y61618D01*
X189226Y61540D01*
X189158Y61468D01*
X189129Y61415D01*
X189092Y61367D01*
X189052Y61276D01*
X189004Y61189D01*
X188989Y61131D01*
X188965Y61075D01*
X188950Y60977D01*
X188925Y60881D01*
X188919Y60781D01*
X188915Y60761D01*
X188917Y60749D01*
X188915Y60721D01*
X188915Y60112D01*
X188930Y59994D01*
X188937Y59875D01*
X188950Y59837D01*
X188955Y59796D01*
X188998Y59686D01*
X189035Y59573D01*
X189057Y59538D01*
X189072Y59501D01*
X189141Y59405D01*
X189205Y59304D01*
X189235Y59276D01*
X189258Y59243D01*
X189350Y59167D01*
X189437Y59086D01*
X189472Y59066D01*
X189503Y59041D01*
X189611Y58990D01*
X189715Y58932D01*
X189755Y58922D01*
X189791Y58905D01*
X189908Y58883D01*
X190023Y58853D01*
X190083Y58849D01*
X190103Y58845D01*
X190124Y58847D01*
X190184Y58843D01*
X190692Y58843D01*
X191883Y57652D01*
X191883Y34398D01*
X191889Y34349D01*
X191887Y34299D01*
X191909Y34192D01*
X191923Y34083D01*
X191941Y34037D01*
X191951Y33988D01*
X191999Y33889D01*
X192040Y33787D01*
X192069Y33747D01*
X192091Y33702D01*
X192162Y33619D01*
X192226Y33530D01*
X192265Y33498D01*
X192297Y33460D01*
X192387Y33397D01*
X192471Y33327D01*
X192516Y33306D01*
X192557Y33277D01*
X192660Y33238D01*
X192759Y33191D01*
X192808Y33182D01*
X192854Y33164D01*
X192964Y33152D01*
X193071Y33132D01*
X193121Y33135D01*
X193170Y33129D01*
X193279Y33145D01*
X193389Y33151D01*
X193436Y33167D01*
X193485Y33174D01*
X193638Y33226D01*
X194682Y33658D01*
X197083Y33658D01*
X199472Y32669D01*
X199521Y32647D01*
X199647Y32588D01*
X199667Y32584D01*
X199685Y32576D01*
X199823Y32554D01*
X199960Y32528D01*
X199979Y32529D01*
X199999Y32526D01*
X200138Y32539D01*
X200277Y32548D01*
X200296Y32554D01*
X200315Y32556D01*
X200447Y32603D01*
X200579Y32646D01*
X200596Y32657D01*
X200615Y32663D01*
X200731Y32742D01*
X200848Y32816D01*
X200862Y32831D01*
X200878Y32842D01*
X200971Y32946D01*
X201066Y33048D01*
X201076Y33065D01*
X201089Y33080D01*
X201152Y33204D01*
X201220Y33326D01*
X201225Y33345D01*
X201234Y33363D01*
X201264Y33499D01*
X201299Y33634D01*
X201301Y33662D01*
X201303Y33673D01*
X201303Y33694D01*
X201309Y33795D01*
X201309Y34644D01*
X201482Y35291D01*
X201647Y35576D01*
X201683Y35661D01*
X201728Y35742D01*
X201744Y35807D01*
X201770Y35869D01*
X201784Y35961D01*
X201807Y36050D01*
X201814Y36167D01*
X201817Y36184D01*
X201816Y36192D01*
X201817Y36211D01*
X201817Y49909D01*
X201806Y50001D01*
X201804Y50093D01*
X201786Y50158D01*
X201777Y50225D01*
X201743Y50311D01*
X201719Y50400D01*
X201667Y50505D01*
X201660Y50520D01*
X201655Y50527D01*
X201647Y50544D01*
X201482Y50829D01*
X201309Y51476D01*
X201309Y53041D01*
X208850Y53041D01*
X216391Y53041D01*
X216391Y51476D01*
X216218Y50829D01*
X216053Y50544D01*
X216017Y50459D01*
X215972Y50378D01*
X215956Y50313D01*
X215930Y50251D01*
X215916Y50159D01*
X215893Y50070D01*
X215886Y49953D01*
X215883Y49936D01*
X215884Y49928D01*
X215883Y49909D01*
X215883Y43708D01*
X215898Y43590D01*
X215905Y43471D01*
X215918Y43433D01*
X215923Y43392D01*
X215966Y43282D01*
X216003Y43169D01*
X216025Y43134D01*
X216040Y43097D01*
X216109Y43001D01*
X216173Y42900D01*
X216203Y42872D01*
X216226Y42839D01*
X216318Y42763D01*
X216405Y42682D01*
X216440Y42662D01*
X216471Y42637D01*
X216579Y42586D01*
X216683Y42528D01*
X216723Y42518D01*
X216759Y42501D01*
X216876Y42479D01*
X216991Y42449D01*
X217051Y42445D01*
X217071Y42441D01*
X217092Y42443D01*
X217152Y42439D01*
X217217Y42439D01*
X217815Y41841D01*
X217924Y41756D01*
X218031Y41667D01*
X218050Y41659D01*
X218066Y41646D01*
X218193Y41591D01*
X218319Y41532D01*
X218339Y41528D01*
X218358Y41520D01*
X218496Y41498D01*
X218632Y41472D01*
X218652Y41473D01*
X218672Y41470D01*
X218811Y41483D01*
X218949Y41492D01*
X218968Y41498D01*
X218988Y41500D01*
X219120Y41547D01*
X219251Y41590D01*
X219269Y41601D01*
X219288Y41608D01*
X219403Y41686D01*
X219520Y41760D01*
X219534Y41775D01*
X219551Y41786D01*
X219643Y41890D01*
X219738Y41992D01*
X219748Y42009D01*
X219761Y42025D01*
X219824Y42148D01*
X219892Y42270D01*
X219897Y42290D01*
X219906Y42308D01*
X219936Y42444D01*
X219971Y42578D01*
X219973Y42606D01*
X219976Y42618D01*
X219975Y42639D01*
X219981Y42739D01*
X219981Y61631D01*
X222894Y64543D01*
X222954Y64621D01*
X223022Y64693D01*
X223051Y64746D01*
X223088Y64794D01*
X223128Y64885D01*
X223176Y64972D01*
X223191Y65030D01*
X223215Y65086D01*
X223230Y65184D01*
X223255Y65280D01*
X223261Y65380D01*
X223265Y65400D01*
X223263Y65412D01*
X223265Y65440D01*
X223265Y68473D01*
X223262Y68502D01*
X223264Y68532D01*
X223242Y68660D01*
X223225Y68789D01*
X223215Y68816D01*
X223210Y68845D01*
X223156Y68964D01*
X223108Y69084D01*
X223091Y69108D01*
X223079Y69135D01*
X222998Y69236D01*
X222922Y69342D01*
X222899Y69360D01*
X222880Y69383D01*
X222777Y69461D01*
X222677Y69544D01*
X222650Y69557D01*
X222626Y69575D01*
X222482Y69646D01*
X220855Y70319D01*
X217639Y73535D01*
X215899Y77736D01*
X215899Y82284D01*
X217639Y86485D01*
X220855Y89701D01*
X225056Y91441D01*
X229604Y91441D01*
X233805Y89701D01*
X237021Y86485D01*
X238761Y82284D01*
X238761Y77736D01*
X236997Y73479D01*
X236979Y73412D01*
X236951Y73348D01*
X236937Y73259D01*
X236913Y73172D01*
X236912Y73103D01*
X236901Y73034D01*
X236910Y72944D01*
X236908Y72854D01*
X236925Y72787D01*
X236931Y72717D01*
X236962Y72632D01*
X236982Y72545D01*
X237015Y72483D01*
X237039Y72418D01*
X237089Y72343D01*
X237131Y72264D01*
X237178Y72212D01*
X237217Y72155D01*
X237285Y72095D01*
X237345Y72029D01*
X237404Y71990D01*
X237456Y71944D01*
X237536Y71903D01*
X237611Y71854D01*
X237677Y71831D01*
X237739Y71800D01*
X237827Y71780D01*
X237912Y71751D01*
X237981Y71745D01*
X238049Y71730D01*
X238139Y71733D01*
X238229Y71725D01*
X238297Y71737D01*
X238367Y71740D01*
X238453Y71764D01*
X238542Y71780D01*
X238606Y71809D01*
X238673Y71828D01*
X238750Y71874D01*
X238832Y71910D01*
X238886Y71954D01*
X238947Y71989D01*
X239067Y72096D01*
X241698Y74726D01*
X241716Y74750D01*
X241739Y74769D01*
X241813Y74875D01*
X241893Y74978D01*
X241905Y75005D01*
X241922Y75029D01*
X241968Y75150D01*
X242019Y75269D01*
X242024Y75299D01*
X242034Y75326D01*
X242049Y75455D01*
X242069Y75584D01*
X242066Y75613D01*
X242070Y75642D01*
X242051Y75771D01*
X242039Y75900D01*
X242029Y75928D01*
X242025Y75957D01*
X241973Y76110D01*
X241299Y77736D01*
X241299Y82284D01*
X243039Y86485D01*
X246255Y89701D01*
X250456Y91441D01*
X255004Y91441D01*
X259205Y89701D01*
X262421Y86485D01*
X264161Y82284D01*
X264161Y77736D01*
X262421Y73535D01*
X259205Y70319D01*
X255004Y68579D01*
X250456Y68579D01*
X248830Y69253D01*
X248801Y69261D01*
X248775Y69274D01*
X248648Y69303D01*
X248523Y69337D01*
X248493Y69337D01*
X248465Y69344D01*
X248335Y69340D01*
X248205Y69342D01*
X248176Y69335D01*
X248147Y69334D01*
X248022Y69298D01*
X247896Y69268D01*
X247869Y69254D01*
X247841Y69246D01*
X247729Y69180D01*
X247614Y69119D01*
X247593Y69099D01*
X247567Y69084D01*
X247446Y68978D01*
X239029Y60561D01*
X238956Y60466D01*
X238877Y60377D01*
X238859Y60341D01*
X238834Y60309D01*
X238787Y60200D01*
X238733Y60094D01*
X238724Y60055D01*
X238708Y60018D01*
X238689Y59900D01*
X238663Y59784D01*
X238664Y59743D01*
X238658Y59703D01*
X238669Y59585D01*
X238673Y59466D01*
X238684Y59427D01*
X238688Y59387D01*
X238728Y59275D01*
X238761Y59160D01*
X238781Y59127D01*
X238784Y59118D01*
X238785Y59115D01*
X238795Y59088D01*
X238862Y58989D01*
X238923Y58887D01*
X238949Y58856D01*
X238954Y58849D01*
X238963Y58840D01*
X238974Y58824D01*
X238989Y58811D01*
X239029Y58766D01*
X240143Y57652D01*
X240143Y34398D01*
X240149Y34349D01*
X240147Y34299D01*
X240169Y34192D01*
X240183Y34083D01*
X240201Y34037D01*
X240211Y33988D01*
X240259Y33889D01*
X240300Y33787D01*
X240329Y33747D01*
X240351Y33702D01*
X240422Y33619D01*
X240486Y33530D01*
X240525Y33498D01*
X240557Y33460D01*
X240647Y33397D01*
X240731Y33327D01*
X240776Y33306D01*
X240817Y33277D01*
X240920Y33238D01*
X241019Y33191D01*
X241068Y33182D01*
X241114Y33164D01*
X241224Y33152D01*
X241331Y33132D01*
X241381Y33135D01*
X241430Y33129D01*
X241539Y33145D01*
X241649Y33151D01*
X241696Y33167D01*
X241745Y33174D01*
X241898Y33226D01*
X242942Y33658D01*
X245343Y33658D01*
X247732Y32669D01*
X247781Y32647D01*
X247907Y32588D01*
X247927Y32584D01*
X247945Y32576D01*
X248083Y32554D01*
X248220Y32528D01*
X248239Y32529D01*
X248259Y32526D01*
X248398Y32539D01*
X248537Y32548D01*
X248556Y32554D01*
X248575Y32556D01*
X248707Y32603D01*
X248839Y32646D01*
X248856Y32657D01*
X248875Y32663D01*
X248991Y32742D01*
X249108Y32816D01*
X249122Y32831D01*
X249138Y32842D01*
X249231Y32946D01*
X249326Y33048D01*
X249336Y33065D01*
X249349Y33080D01*
X249412Y33204D01*
X249480Y33326D01*
X249485Y33345D01*
X249494Y33363D01*
X249524Y33499D01*
X249559Y33634D01*
X249561Y33662D01*
X249563Y33673D01*
X249563Y33694D01*
X249569Y33795D01*
X249569Y34644D01*
X249742Y35291D01*
X249907Y35576D01*
X249943Y35661D01*
X249988Y35742D01*
X250004Y35807D01*
X250030Y35869D01*
X250044Y35961D01*
X250067Y36050D01*
X250074Y36167D01*
X250077Y36184D01*
X250076Y36192D01*
X250077Y36211D01*
X250077Y49909D01*
X250066Y50001D01*
X250064Y50093D01*
X250046Y50158D01*
X250037Y50225D01*
X250003Y50311D01*
X249979Y50400D01*
X249927Y50505D01*
X249920Y50520D01*
X249915Y50527D01*
X249907Y50544D01*
X249742Y50829D01*
X249569Y51476D01*
X249569Y53041D01*
X257110Y53041D01*
X264651Y53041D01*
X264651Y51476D01*
X264478Y50829D01*
X264313Y50544D01*
X264277Y50459D01*
X264232Y50378D01*
X264216Y50313D01*
X264190Y50251D01*
X264176Y50159D01*
X264153Y50070D01*
X264146Y49953D01*
X264143Y49936D01*
X264144Y49928D01*
X264143Y49909D01*
X264143Y43708D01*
X264158Y43590D01*
X264165Y43471D01*
X264178Y43433D01*
X264183Y43392D01*
X264226Y43282D01*
X264263Y43169D01*
X264285Y43134D01*
X264300Y43097D01*
X264369Y43001D01*
X264433Y42900D01*
X264463Y42872D01*
X264486Y42839D01*
X264578Y42763D01*
X264665Y42682D01*
X264700Y42662D01*
X264731Y42637D01*
X264839Y42586D01*
X264943Y42528D01*
X264983Y42518D01*
X265019Y42501D01*
X265136Y42479D01*
X265251Y42449D01*
X265311Y42445D01*
X265331Y42441D01*
X265352Y42443D01*
X265412Y42439D01*
X265477Y42439D01*
X266075Y41841D01*
X266184Y41756D01*
X266291Y41667D01*
X266310Y41659D01*
X266326Y41646D01*
X266453Y41591D01*
X266579Y41532D01*
X266599Y41528D01*
X266618Y41520D01*
X266756Y41498D01*
X266892Y41472D01*
X266912Y41473D01*
X266932Y41470D01*
X267071Y41483D01*
X267209Y41492D01*
X267228Y41498D01*
X267248Y41500D01*
X267380Y41547D01*
X267511Y41590D01*
X267529Y41601D01*
X267548Y41608D01*
X267663Y41686D01*
X267780Y41760D01*
X267794Y41775D01*
X267811Y41786D01*
X267903Y41890D01*
X267998Y41992D01*
X268008Y42009D01*
X268021Y42025D01*
X268084Y42148D01*
X268152Y42270D01*
X268157Y42290D01*
X268166Y42308D01*
X268196Y42444D01*
X268231Y42578D01*
X268233Y42606D01*
X268236Y42618D01*
X268235Y42639D01*
X268241Y42739D01*
X268241Y60177D01*
X273694Y65629D01*
X273754Y65708D01*
X273822Y65780D01*
X273851Y65833D01*
X273888Y65881D01*
X273928Y65972D01*
X273976Y66058D01*
X273991Y66117D01*
X274015Y66172D01*
X274030Y66270D01*
X274055Y66366D01*
X274061Y66466D01*
X274065Y66487D01*
X274063Y66499D01*
X274065Y66527D01*
X274065Y68473D01*
X274062Y68502D01*
X274064Y68532D01*
X274042Y68660D01*
X274025Y68789D01*
X274015Y68816D01*
X274010Y68845D01*
X273956Y68964D01*
X273908Y69084D01*
X273891Y69108D01*
X273879Y69135D01*
X273798Y69236D01*
X273722Y69342D01*
X273699Y69360D01*
X273680Y69383D01*
X273577Y69461D01*
X273477Y69544D01*
X273450Y69557D01*
X273426Y69575D01*
X273282Y69646D01*
X271655Y70319D01*
X268439Y73535D01*
X266699Y77736D01*
X266699Y82284D01*
X268439Y86485D01*
X271655Y89701D01*
X275856Y91441D01*
X280404Y91441D01*
X284605Y89701D01*
X287821Y86485D01*
X289561Y82284D01*
X289561Y77736D01*
X287821Y73535D01*
X284605Y70319D01*
X282978Y69646D01*
X282953Y69631D01*
X282925Y69622D01*
X282815Y69552D01*
X282702Y69488D01*
X282681Y69468D01*
X282656Y69452D01*
X282567Y69357D01*
X282474Y69267D01*
X282458Y69242D01*
X282438Y69220D01*
X282375Y69107D01*
X282307Y68996D01*
X282299Y68968D01*
X282284Y68942D01*
X282252Y68816D01*
X282214Y68692D01*
X282212Y68662D01*
X282205Y68634D01*
X282195Y68473D01*
X282195Y65890D01*
X282212Y65752D01*
X282225Y65613D01*
X282232Y65594D01*
X282235Y65574D01*
X282286Y65445D01*
X282333Y65314D01*
X282344Y65297D01*
X282352Y65279D01*
X282433Y65166D01*
X282511Y65051D01*
X282527Y65038D01*
X282538Y65021D01*
X282646Y64932D01*
X282750Y64841D01*
X282768Y64831D01*
X282783Y64818D01*
X282909Y64759D01*
X283033Y64696D01*
X283053Y64691D01*
X283071Y64683D01*
X283207Y64657D01*
X283343Y64626D01*
X283364Y64627D01*
X283383Y64623D01*
X283522Y64632D01*
X283661Y64636D01*
X283681Y64642D01*
X283701Y64643D01*
X283833Y64686D01*
X283967Y64724D01*
X283984Y64735D01*
X284003Y64741D01*
X284121Y64815D01*
X284241Y64886D01*
X284262Y64905D01*
X284272Y64911D01*
X284286Y64926D01*
X284361Y64992D01*
X292966Y73597D01*
X292984Y73620D01*
X293006Y73639D01*
X293081Y73745D01*
X293161Y73848D01*
X293173Y73875D01*
X293190Y73899D01*
X293236Y74020D01*
X293287Y74140D01*
X293292Y74169D01*
X293302Y74197D01*
X293317Y74326D01*
X293337Y74454D01*
X293334Y74483D01*
X293338Y74513D01*
X293319Y74641D01*
X293307Y74771D01*
X293297Y74798D01*
X293293Y74828D01*
X293241Y74980D01*
X292099Y77736D01*
X292099Y82284D01*
X293839Y86485D01*
X297055Y89701D01*
X301256Y91441D01*
X305804Y91441D01*
X310005Y89701D01*
X313221Y86485D01*
X314961Y82284D01*
X314961Y77736D01*
X313221Y73535D01*
X310005Y70319D01*
X305804Y68579D01*
X301256Y68579D01*
X300759Y68785D01*
X300731Y68793D01*
X300704Y68806D01*
X300578Y68835D01*
X300452Y68869D01*
X300423Y68870D01*
X300394Y68876D01*
X300264Y68872D01*
X300135Y68874D01*
X300106Y68867D01*
X300076Y68866D01*
X299952Y68830D01*
X299825Y68800D01*
X299799Y68786D01*
X299771Y68778D01*
X299659Y68712D01*
X299544Y68651D01*
X299522Y68631D01*
X299497Y68616D01*
X299376Y68510D01*
X288774Y57909D01*
X288714Y57830D01*
X288646Y57758D01*
X288617Y57705D01*
X288580Y57657D01*
X288540Y57566D01*
X288492Y57480D01*
X288477Y57421D01*
X288453Y57365D01*
X288438Y57267D01*
X288413Y57172D01*
X288407Y57072D01*
X288403Y57051D01*
X288405Y57039D01*
X288403Y57011D01*
X288403Y34398D01*
X288409Y34349D01*
X288407Y34299D01*
X288429Y34192D01*
X288443Y34083D01*
X288461Y34037D01*
X288471Y33988D01*
X288519Y33889D01*
X288560Y33787D01*
X288589Y33747D01*
X288611Y33702D01*
X288682Y33619D01*
X288746Y33530D01*
X288785Y33498D01*
X288817Y33460D01*
X288907Y33397D01*
X288991Y33327D01*
X289036Y33306D01*
X289077Y33277D01*
X289180Y33238D01*
X289279Y33191D01*
X289328Y33182D01*
X289374Y33164D01*
X289484Y33152D01*
X289591Y33132D01*
X289641Y33135D01*
X289690Y33129D01*
X289799Y33145D01*
X289909Y33151D01*
X289956Y33167D01*
X290005Y33174D01*
X290158Y33226D01*
X291202Y33658D01*
X293603Y33658D01*
X295992Y32669D01*
X296041Y32647D01*
X296167Y32588D01*
X296187Y32584D01*
X296205Y32576D01*
X296343Y32554D01*
X296480Y32528D01*
X296499Y32529D01*
X296519Y32526D01*
X296658Y32539D01*
X296797Y32548D01*
X296816Y32554D01*
X296835Y32556D01*
X296967Y32603D01*
X297099Y32646D01*
X297116Y32657D01*
X297135Y32663D01*
X297251Y32742D01*
X297368Y32816D01*
X297382Y32831D01*
X297398Y32842D01*
X297491Y32946D01*
X297586Y33048D01*
X297596Y33065D01*
X297609Y33080D01*
X297672Y33204D01*
X297740Y33326D01*
X297745Y33345D01*
X297754Y33363D01*
X297784Y33499D01*
X297819Y33634D01*
X297821Y33662D01*
X297823Y33673D01*
X297823Y33694D01*
X297829Y33795D01*
X297829Y34644D01*
X298002Y35291D01*
X298167Y35576D01*
X298203Y35661D01*
X298248Y35742D01*
X298264Y35807D01*
X298290Y35869D01*
X298304Y35961D01*
X298327Y36050D01*
X298334Y36167D01*
X298337Y36184D01*
X298336Y36192D01*
X298337Y36211D01*
X298337Y49909D01*
X298326Y50001D01*
X298324Y50093D01*
X298306Y50158D01*
X298297Y50225D01*
X298263Y50311D01*
X298239Y50400D01*
X298187Y50505D01*
X298180Y50520D01*
X298175Y50527D01*
X298167Y50544D01*
X298002Y50829D01*
X297829Y51476D01*
X297829Y53041D01*
X305370Y53041D01*
X312911Y53041D01*
X312911Y51476D01*
X312738Y50829D01*
X312573Y50544D01*
X312537Y50459D01*
X312492Y50378D01*
X312476Y50313D01*
X312450Y50251D01*
X312436Y50159D01*
X312413Y50070D01*
X312406Y49953D01*
X312403Y49936D01*
X312404Y49928D01*
X312403Y49909D01*
X312403Y44391D01*
X312415Y44293D01*
X312418Y44194D01*
X312435Y44136D01*
X312443Y44076D01*
X312479Y43984D01*
X312507Y43889D01*
X312537Y43837D01*
X312560Y43780D01*
X312618Y43700D01*
X312668Y43615D01*
X312734Y43539D01*
X312746Y43523D01*
X312756Y43515D01*
X312774Y43494D01*
X314335Y41934D01*
X314444Y41849D01*
X314551Y41760D01*
X314570Y41751D01*
X314586Y41739D01*
X314714Y41683D01*
X314839Y41624D01*
X314859Y41621D01*
X314878Y41613D01*
X315016Y41591D01*
X315152Y41565D01*
X315172Y41566D01*
X315192Y41563D01*
X315331Y41576D01*
X315469Y41584D01*
X315488Y41591D01*
X315508Y41593D01*
X315640Y41640D01*
X315771Y41682D01*
X315789Y41693D01*
X315808Y41700D01*
X315923Y41778D01*
X316040Y41853D01*
X316054Y41867D01*
X316071Y41879D01*
X316163Y41983D01*
X316258Y42084D01*
X316268Y42102D01*
X316281Y42117D01*
X316345Y42241D01*
X316412Y42363D01*
X316417Y42382D01*
X316426Y42400D01*
X316456Y42536D01*
X316491Y42671D01*
X316493Y42699D01*
X316496Y42711D01*
X316495Y42731D01*
X316501Y42831D01*
X316501Y60177D01*
X324074Y67749D01*
X324104Y67789D01*
X324141Y67822D01*
X324201Y67914D01*
X324269Y68001D01*
X324288Y68046D01*
X324316Y68088D01*
X324351Y68192D01*
X324395Y68293D01*
X324403Y68342D01*
X324419Y68389D01*
X324428Y68498D01*
X324445Y68607D01*
X324440Y68656D01*
X324444Y68706D01*
X324425Y68814D01*
X324415Y68923D01*
X324398Y68970D01*
X324390Y69019D01*
X324345Y69119D01*
X324307Y69223D01*
X324279Y69264D01*
X324259Y69309D01*
X324191Y69395D01*
X324129Y69486D01*
X324092Y69519D01*
X324061Y69557D01*
X323973Y69623D01*
X323890Y69696D01*
X323846Y69719D01*
X323806Y69749D01*
X323662Y69820D01*
X322455Y70319D01*
X319239Y73535D01*
X317499Y77736D01*
X317499Y82284D01*
X319239Y86485D01*
X322455Y89701D01*
X326656Y91441D01*
X331204Y91441D01*
X335405Y89701D01*
X338621Y86485D01*
X340361Y82284D01*
X340361Y77736D01*
X338597Y73479D01*
X338579Y73412D01*
X338551Y73348D01*
X338537Y73259D01*
X338513Y73172D01*
X338512Y73103D01*
X338501Y73034D01*
X338510Y72944D01*
X338508Y72854D01*
X338525Y72786D01*
X338531Y72717D01*
X338562Y72632D01*
X338582Y72545D01*
X338615Y72483D01*
X338639Y72418D01*
X338689Y72343D01*
X338731Y72264D01*
X338778Y72212D01*
X338817Y72155D01*
X338885Y72095D01*
X338945Y72029D01*
X339003Y71990D01*
X339056Y71944D01*
X339136Y71903D01*
X339211Y71854D01*
X339277Y71831D01*
X339339Y71799D01*
X339427Y71780D01*
X339512Y71751D01*
X339581Y71745D01*
X339649Y71730D01*
X339739Y71733D01*
X339829Y71725D01*
X339897Y71737D01*
X339967Y71739D01*
X340053Y71764D01*
X340142Y71780D01*
X340206Y71808D01*
X340273Y71828D01*
X340350Y71874D01*
X340432Y71910D01*
X340486Y71954D01*
X340547Y71989D01*
X340667Y72096D01*
X343298Y74726D01*
X343316Y74750D01*
X343339Y74769D01*
X343413Y74875D01*
X343493Y74978D01*
X343505Y75005D01*
X343522Y75029D01*
X343568Y75150D01*
X343619Y75269D01*
X343624Y75299D01*
X343634Y75326D01*
X343649Y75455D01*
X343669Y75584D01*
X343666Y75613D01*
X343670Y75642D01*
X343651Y75771D01*
X343639Y75900D01*
X343629Y75928D01*
X343625Y75957D01*
X343573Y76110D01*
X342899Y77736D01*
X342899Y82284D01*
X344639Y86485D01*
X347855Y89701D01*
X352056Y91441D01*
X356604Y91441D01*
X360805Y89701D01*
X364021Y86485D01*
X365761Y82284D01*
X365761Y77736D01*
X363997Y73479D01*
X363979Y73412D01*
X363951Y73348D01*
X363937Y73259D01*
X363913Y73172D01*
X363912Y73103D01*
X363901Y73034D01*
X363910Y72944D01*
X363908Y72854D01*
X363925Y72786D01*
X363931Y72717D01*
X363962Y72632D01*
X363982Y72545D01*
X364015Y72483D01*
X364039Y72418D01*
X364089Y72343D01*
X364104Y72315D01*
X364047Y72342D01*
X363923Y72405D01*
X363903Y72410D01*
X363885Y72418D01*
X363748Y72445D01*
X363613Y72475D01*
X363592Y72474D01*
X363573Y72478D01*
X363434Y72470D01*
X363295Y72465D01*
X363275Y72460D01*
X363255Y72458D01*
X363123Y72416D01*
X362989Y72377D01*
X362972Y72367D01*
X362953Y72360D01*
X362835Y72286D01*
X362715Y72215D01*
X362694Y72197D01*
X362684Y72190D01*
X362670Y72175D01*
X362595Y72109D01*
X360805Y70319D01*
X356604Y68579D01*
X352056Y68579D01*
X350430Y69253D01*
X350401Y69261D01*
X350375Y69274D01*
X350248Y69303D01*
X350123Y69337D01*
X350093Y69337D01*
X350064Y69344D01*
X349935Y69340D01*
X349805Y69342D01*
X349776Y69335D01*
X349747Y69334D01*
X349622Y69298D01*
X349496Y69268D01*
X349469Y69254D01*
X349441Y69246D01*
X349329Y69180D01*
X349214Y69119D01*
X349193Y69099D01*
X349167Y69084D01*
X349046Y68978D01*
X341218Y61150D01*
X339531Y61150D01*
X339433Y61137D01*
X339334Y61134D01*
X339276Y61118D01*
X339216Y61110D01*
X339124Y61073D01*
X339029Y61046D01*
X338977Y61015D01*
X338920Y60993D01*
X338840Y60935D01*
X338755Y60884D01*
X338679Y60818D01*
X338663Y60806D01*
X338655Y60797D01*
X338634Y60778D01*
X337034Y59179D01*
X336974Y59100D01*
X336906Y59028D01*
X336877Y58975D01*
X336840Y58927D01*
X336800Y58836D01*
X336752Y58750D01*
X336737Y58691D01*
X336713Y58635D01*
X336698Y58537D01*
X336673Y58442D01*
X336667Y58342D01*
X336663Y58321D01*
X336665Y58309D01*
X336663Y58281D01*
X336663Y34398D01*
X336669Y34349D01*
X336667Y34299D01*
X336689Y34192D01*
X336703Y34083D01*
X336721Y34037D01*
X336731Y33988D01*
X336779Y33889D01*
X336820Y33787D01*
X336849Y33747D01*
X336871Y33702D01*
X336942Y33619D01*
X337006Y33530D01*
X337045Y33498D01*
X337077Y33460D01*
X337167Y33397D01*
X337251Y33327D01*
X337296Y33306D01*
X337337Y33277D01*
X337440Y33238D01*
X337539Y33191D01*
X337588Y33182D01*
X337634Y33164D01*
X337744Y33152D01*
X337851Y33132D01*
X337901Y33135D01*
X337950Y33129D01*
X338059Y33145D01*
X338169Y33151D01*
X338216Y33167D01*
X338265Y33174D01*
X338418Y33226D01*
X339462Y33658D01*
X341863Y33658D01*
X344252Y32669D01*
X344301Y32647D01*
X344427Y32588D01*
X344447Y32584D01*
X344465Y32576D01*
X344603Y32554D01*
X344740Y32528D01*
X344759Y32529D01*
X344779Y32526D01*
X344918Y32539D01*
X345057Y32548D01*
X345076Y32554D01*
X345095Y32556D01*
X345227Y32603D01*
X345359Y32646D01*
X345376Y32657D01*
X345395Y32663D01*
X345511Y32742D01*
X345628Y32816D01*
X345642Y32831D01*
X345658Y32842D01*
X345751Y32946D01*
X345846Y33048D01*
X345856Y33065D01*
X345869Y33080D01*
X345932Y33204D01*
X346000Y33326D01*
X346005Y33345D01*
X346014Y33363D01*
X346044Y33499D01*
X346079Y33634D01*
X346081Y33662D01*
X346083Y33673D01*
X346083Y33694D01*
X346089Y33795D01*
X346089Y34644D01*
X346262Y35291D01*
X346427Y35576D01*
X346463Y35661D01*
X346508Y35742D01*
X346524Y35807D01*
X346550Y35869D01*
X346564Y35961D01*
X346587Y36050D01*
X346594Y36167D01*
X346597Y36184D01*
X346596Y36192D01*
X346597Y36211D01*
X346597Y49909D01*
X346586Y50001D01*
X346584Y50093D01*
X346566Y50158D01*
X346557Y50225D01*
X346523Y50311D01*
X346499Y50400D01*
X346447Y50505D01*
X346440Y50520D01*
X346435Y50527D01*
X346427Y50544D01*
X346262Y50829D01*
X346089Y51476D01*
X346089Y53041D01*
X353630Y53041D01*
X361171Y53041D01*
X361171Y51476D01*
X360998Y50829D01*
X360833Y50544D01*
X360797Y50459D01*
X360752Y50378D01*
X360736Y50313D01*
X360710Y50251D01*
X360696Y50159D01*
X360673Y50070D01*
X360666Y49953D01*
X360663Y49936D01*
X360664Y49928D01*
X360663Y49909D01*
X360663Y44391D01*
X360675Y44293D01*
X360678Y44194D01*
X360695Y44136D01*
X360703Y44076D01*
X360739Y43984D01*
X360767Y43889D01*
X360797Y43836D01*
X360820Y43780D01*
X360878Y43700D01*
X360928Y43615D01*
X360994Y43539D01*
X361006Y43523D01*
X361016Y43515D01*
X361034Y43494D01*
X362595Y41934D01*
X362704Y41849D01*
X362811Y41760D01*
X362830Y41751D01*
X362846Y41739D01*
X362974Y41683D01*
X363099Y41624D01*
X363119Y41621D01*
X363138Y41613D01*
X363276Y41591D01*
X363412Y41565D01*
X363432Y41566D01*
X363452Y41563D01*
X363591Y41576D01*
X363729Y41584D01*
X363748Y41591D01*
X363768Y41593D01*
X363900Y41640D01*
X364031Y41682D01*
X364049Y41693D01*
X364068Y41700D01*
X364183Y41778D01*
X364300Y41853D01*
X364314Y41867D01*
X364331Y41879D01*
X364423Y41983D01*
X364518Y42084D01*
X364528Y42102D01*
X364541Y42117D01*
X364605Y42241D01*
X364672Y42363D01*
X364677Y42382D01*
X364686Y42400D01*
X364716Y42536D01*
X364751Y42671D01*
X364753Y42699D01*
X364756Y42711D01*
X364755Y42731D01*
X364761Y42831D01*
X364761Y71212D01*
X364744Y71349D01*
X364731Y71488D01*
X364724Y71507D01*
X364721Y71527D01*
X364670Y71656D01*
X364623Y71787D01*
X364612Y71804D01*
X364604Y71823D01*
X364555Y71890D01*
X364611Y71854D01*
X364677Y71831D01*
X364739Y71799D01*
X364827Y71780D01*
X364912Y71751D01*
X364981Y71745D01*
X365049Y71730D01*
X365139Y71733D01*
X365229Y71725D01*
X365297Y71737D01*
X365367Y71739D01*
X365453Y71764D01*
X365542Y71780D01*
X365606Y71809D01*
X365673Y71828D01*
X365750Y71874D01*
X365832Y71910D01*
X365887Y71954D01*
X365947Y71989D01*
X366067Y72096D01*
X368698Y74726D01*
X368716Y74750D01*
X368739Y74769D01*
X368813Y74875D01*
X368893Y74978D01*
X368905Y75005D01*
X368922Y75029D01*
X368968Y75150D01*
X369019Y75269D01*
X369024Y75299D01*
X369034Y75326D01*
X369049Y75455D01*
X369069Y75584D01*
X369066Y75613D01*
X369070Y75642D01*
X369051Y75771D01*
X369039Y75900D01*
X369029Y75928D01*
X369025Y75957D01*
X368973Y76110D01*
X368299Y77736D01*
X368299Y82284D01*
X370039Y86485D01*
X373255Y89701D01*
X377456Y91441D01*
X382004Y91441D01*
X386205Y89701D01*
X389421Y86485D01*
X391161Y82284D01*
X391161Y78336D01*
X391164Y78311D01*
X391162Y78287D01*
X391184Y78154D01*
X391201Y78020D01*
X391210Y77997D01*
X391214Y77973D01*
X391268Y77849D01*
X391318Y77725D01*
X391332Y77705D01*
X391342Y77682D01*
X391425Y77576D01*
X391504Y77467D01*
X391524Y77451D01*
X391539Y77432D01*
X391646Y77350D01*
X391749Y77264D01*
X391772Y77254D01*
X391791Y77239D01*
X391916Y77186D01*
X392037Y77129D01*
X392061Y77124D01*
X392084Y77115D01*
X392218Y77094D01*
X392349Y77069D01*
X392374Y77071D01*
X392399Y77067D01*
X392533Y77081D01*
X392667Y77089D01*
X392690Y77096D01*
X392715Y77099D01*
X392841Y77145D01*
X392969Y77187D01*
X392990Y77200D01*
X393014Y77209D01*
X393124Y77285D01*
X393238Y77357D01*
X393255Y77375D01*
X393275Y77389D01*
X393364Y77490D01*
X393456Y77589D01*
X393468Y77610D01*
X393484Y77629D01*
X393565Y77768D01*
X393583Y77820D01*
X393610Y77867D01*
X393636Y77969D01*
X393671Y78068D01*
X393675Y78122D01*
X393689Y78175D01*
X393699Y78336D01*
X393699Y82284D01*
X395439Y86485D01*
X398655Y89701D01*
X402856Y91441D01*
X407404Y91441D01*
X411605Y89701D01*
X414821Y86485D01*
X416561Y82284D01*
X416561Y77736D01*
X414797Y73479D01*
X414779Y73412D01*
X414751Y73348D01*
X414737Y73259D01*
X414713Y73172D01*
X414712Y73103D01*
X414701Y73034D01*
X414710Y72944D01*
X414708Y72854D01*
X414725Y72786D01*
X414731Y72717D01*
X414762Y72632D01*
X414782Y72545D01*
X414815Y72483D01*
X414839Y72418D01*
X414889Y72343D01*
X414931Y72264D01*
X414978Y72212D01*
X415017Y72155D01*
X415085Y72095D01*
X415145Y72029D01*
X415204Y71990D01*
X415256Y71944D01*
X415336Y71903D01*
X415411Y71854D01*
X415477Y71831D01*
X415539Y71799D01*
X415627Y71780D01*
X415712Y71751D01*
X415781Y71745D01*
X415849Y71730D01*
X415939Y71733D01*
X416029Y71725D01*
X416097Y71737D01*
X416167Y71739D01*
X416253Y71764D01*
X416342Y71780D01*
X416406Y71808D01*
X416473Y71828D01*
X416550Y71874D01*
X416632Y71910D01*
X416686Y71954D01*
X416747Y71989D01*
X416867Y72096D01*
X419498Y74726D01*
X419516Y74750D01*
X419539Y74769D01*
X419613Y74875D01*
X419693Y74978D01*
X419705Y75005D01*
X419722Y75029D01*
X419768Y75150D01*
X419819Y75269D01*
X419824Y75299D01*
X419834Y75326D01*
X419849Y75455D01*
X419869Y75584D01*
X419866Y75613D01*
X419870Y75642D01*
X419851Y75771D01*
X419839Y75900D01*
X419829Y75928D01*
X419825Y75957D01*
X419773Y76110D01*
X419099Y77736D01*
X419099Y82284D01*
X420839Y86485D01*
X424055Y89701D01*
X428256Y91441D01*
X432804Y91441D01*
X437005Y89701D01*
X440221Y86485D01*
X441961Y82284D01*
X441961Y79908D01*
X441964Y79884D01*
X441962Y79859D01*
X441983Y79732D01*
X441983Y79728D01*
X441984Y79726D01*
X442001Y79593D01*
X442010Y79570D01*
X442014Y79545D01*
X442068Y79422D01*
X442118Y79297D01*
X442132Y79277D01*
X442142Y79254D01*
X442225Y79149D01*
X442304Y79040D01*
X442324Y79024D01*
X442339Y79004D01*
X442446Y78923D01*
X442549Y78837D01*
X442572Y78826D01*
X442591Y78811D01*
X442716Y78759D01*
X442837Y78701D01*
X442861Y78697D01*
X442884Y78687D01*
X443018Y78667D01*
X443149Y78642D01*
X443174Y78643D01*
X443199Y78639D01*
X443333Y78653D01*
X443467Y78661D01*
X443490Y78669D01*
X443515Y78671D01*
X443641Y78718D01*
X443769Y78759D01*
X443790Y78773D01*
X443814Y78781D01*
X443924Y78857D01*
X444038Y78930D01*
X444055Y78948D01*
X444075Y78962D01*
X444164Y79063D01*
X444256Y79161D01*
X444268Y79183D01*
X444284Y79202D01*
X444365Y79341D01*
X444383Y79392D01*
X444410Y79440D01*
X444436Y79542D01*
X444471Y79641D01*
X444475Y79695D01*
X444489Y79748D01*
X444499Y79908D01*
X444499Y82284D01*
X446239Y86485D01*
X449455Y89701D01*
X453656Y91441D01*
X458204Y91441D01*
X462405Y89701D01*
X465621Y86485D01*
X467361Y82284D01*
X467361Y77736D01*
X465621Y73535D01*
X462405Y70319D01*
X458204Y68579D01*
X453656Y68579D01*
X449455Y70319D01*
X449092Y70683D01*
X448997Y70756D01*
X448908Y70835D01*
X448872Y70853D01*
X448840Y70878D01*
X448731Y70925D01*
X448625Y70979D01*
X448586Y70988D01*
X448548Y71004D01*
X448431Y71023D01*
X448315Y71049D01*
X448274Y71048D01*
X448234Y71054D01*
X448116Y71043D01*
X447997Y71039D01*
X447958Y71028D01*
X447918Y71024D01*
X447806Y70984D01*
X447691Y70951D01*
X447656Y70930D01*
X447618Y70917D01*
X447520Y70850D01*
X447417Y70789D01*
X447372Y70750D01*
X447355Y70738D01*
X447342Y70723D01*
X447296Y70683D01*
X434522Y57909D01*
X434461Y57830D01*
X434393Y57758D01*
X434364Y57705D01*
X434327Y57657D01*
X434288Y57566D01*
X434240Y57480D01*
X434225Y57421D01*
X434201Y57365D01*
X434185Y57267D01*
X434160Y57172D01*
X434154Y57072D01*
X434151Y57051D01*
X434152Y57039D01*
X434150Y57011D01*
X434150Y56562D01*
X433554Y55966D01*
X433494Y55888D01*
X433426Y55816D01*
X433397Y55763D01*
X433360Y55715D01*
X433320Y55624D01*
X433272Y55537D01*
X433257Y55479D01*
X433233Y55423D01*
X433218Y55325D01*
X433193Y55229D01*
X433187Y55129D01*
X433183Y55109D01*
X433185Y55097D01*
X433183Y55069D01*
X433183Y34398D01*
X433189Y34349D01*
X433187Y34299D01*
X433209Y34192D01*
X433223Y34083D01*
X433241Y34037D01*
X433251Y33988D01*
X433299Y33889D01*
X433340Y33787D01*
X433369Y33747D01*
X433391Y33702D01*
X433462Y33619D01*
X433526Y33530D01*
X433565Y33498D01*
X433597Y33460D01*
X433687Y33397D01*
X433771Y33327D01*
X433816Y33306D01*
X433857Y33277D01*
X433960Y33238D01*
X434059Y33191D01*
X434108Y33182D01*
X434154Y33164D01*
X434264Y33152D01*
X434371Y33132D01*
X434421Y33135D01*
X434470Y33129D01*
X434579Y33145D01*
X434689Y33151D01*
X434736Y33167D01*
X434785Y33174D01*
X434938Y33226D01*
X435982Y33658D01*
X438383Y33658D01*
X440772Y32669D01*
X440821Y32647D01*
X440947Y32588D01*
X440967Y32584D01*
X440985Y32576D01*
X441123Y32554D01*
X441260Y32528D01*
X441279Y32529D01*
X441299Y32526D01*
X441438Y32539D01*
X441577Y32548D01*
X441596Y32554D01*
X441615Y32556D01*
X441747Y32603D01*
X441879Y32646D01*
X441896Y32657D01*
X441915Y32663D01*
X442031Y32742D01*
X442148Y32816D01*
X442162Y32831D01*
X442178Y32842D01*
X442271Y32946D01*
X442366Y33048D01*
X442376Y33065D01*
X442389Y33080D01*
X442452Y33204D01*
X442520Y33326D01*
X442525Y33345D01*
X442534Y33363D01*
X442564Y33499D01*
X442599Y33634D01*
X442601Y33662D01*
X442603Y33673D01*
X442603Y33694D01*
X442609Y33795D01*
X442609Y34644D01*
X442782Y35291D01*
X442947Y35576D01*
X442983Y35661D01*
X443028Y35742D01*
X443044Y35807D01*
X443070Y35869D01*
X443084Y35961D01*
X443107Y36050D01*
X443114Y36167D01*
X443117Y36184D01*
X443116Y36192D01*
X443117Y36211D01*
X443117Y49909D01*
X443106Y50001D01*
X443104Y50093D01*
X443086Y50158D01*
X443077Y50225D01*
X443043Y50311D01*
X443019Y50400D01*
X442967Y50505D01*
X442960Y50520D01*
X442955Y50527D01*
X442947Y50544D01*
X442782Y50829D01*
X442609Y51476D01*
X442609Y53041D01*
X450150Y53041D01*
X457691Y53041D01*
X457691Y51476D01*
X457518Y50829D01*
X457353Y50544D01*
X457317Y50459D01*
X457272Y50378D01*
X457256Y50313D01*
X457230Y50251D01*
X457216Y50159D01*
X457193Y50070D01*
X457186Y49953D01*
X457183Y49936D01*
X457184Y49928D01*
X457183Y49909D01*
X457183Y43708D01*
X457198Y43590D01*
X457205Y43471D01*
X457218Y43433D01*
X457223Y43392D01*
X457266Y43282D01*
X457303Y43169D01*
X457325Y43134D01*
X457340Y43097D01*
X457409Y43001D01*
X457473Y42900D01*
X457503Y42872D01*
X457526Y42839D01*
X457618Y42763D01*
X457705Y42682D01*
X457740Y42662D01*
X457771Y42637D01*
X457879Y42586D01*
X457983Y42528D01*
X458023Y42518D01*
X458059Y42501D01*
X458176Y42479D01*
X458291Y42449D01*
X458351Y42445D01*
X458371Y42441D01*
X458392Y42443D01*
X458452Y42439D01*
X458517Y42439D01*
X459115Y41841D01*
X459224Y41756D01*
X459331Y41667D01*
X459350Y41659D01*
X459366Y41646D01*
X459493Y41591D01*
X459619Y41532D01*
X459639Y41528D01*
X459658Y41520D01*
X459796Y41498D01*
X459932Y41472D01*
X459952Y41473D01*
X459972Y41470D01*
X460111Y41483D01*
X460249Y41492D01*
X460268Y41498D01*
X460288Y41500D01*
X460420Y41547D01*
X460551Y41590D01*
X460569Y41601D01*
X460588Y41608D01*
X460703Y41686D01*
X460820Y41760D01*
X460834Y41775D01*
X460851Y41786D01*
X460943Y41890D01*
X461038Y41992D01*
X461048Y42009D01*
X461061Y42025D01*
X461124Y42148D01*
X461192Y42270D01*
X461197Y42290D01*
X461206Y42308D01*
X461236Y42444D01*
X461271Y42578D01*
X461273Y42606D01*
X461276Y42618D01*
X461275Y42639D01*
X461281Y42739D01*
X461281Y60177D01*
X472242Y71138D01*
X472315Y71232D01*
X472394Y71321D01*
X472412Y71357D01*
X472437Y71389D01*
X472484Y71498D01*
X472538Y71604D01*
X472547Y71644D01*
X472563Y71681D01*
X472582Y71799D01*
X472608Y71915D01*
X472607Y71955D01*
X472613Y71995D01*
X472602Y72113D01*
X472598Y72232D01*
X472587Y72271D01*
X472583Y72311D01*
X472543Y72424D01*
X472510Y72538D01*
X472489Y72573D01*
X472476Y72611D01*
X472409Y72709D01*
X472348Y72812D01*
X472308Y72857D01*
X472297Y72874D01*
X472282Y72887D01*
X472242Y72933D01*
X471639Y73535D01*
X469899Y77736D01*
X469899Y82284D01*
X471639Y86485D01*
X474855Y89701D01*
X479056Y91441D01*
X483604Y91441D01*
X487805Y89701D01*
X491021Y86485D01*
X492761Y82284D01*
X492761Y81215D01*
X492778Y81078D01*
X492783Y80997D01*
X492787Y80986D01*
X492791Y80939D01*
X492798Y80920D01*
X492801Y80900D01*
X492852Y80771D01*
X492899Y80640D01*
X492910Y80623D01*
X492918Y80604D01*
X492999Y80492D01*
X493077Y80376D01*
X493093Y80363D01*
X493104Y80347D01*
X493212Y80258D01*
X493316Y80166D01*
X493334Y80157D01*
X493349Y80144D01*
X493475Y80085D01*
X493599Y80021D01*
X493619Y80017D01*
X493637Y80008D01*
X493773Y79982D01*
X493909Y79952D01*
X493930Y79952D01*
X493949Y79948D01*
X494088Y79957D01*
X494227Y79961D01*
X494247Y79967D01*
X494267Y79968D01*
X494399Y80011D01*
X494533Y80050D01*
X494550Y80060D01*
X494569Y80066D01*
X494687Y80141D01*
X494807Y80211D01*
X494828Y80230D01*
X494838Y80236D01*
X494852Y80251D01*
X494927Y80318D01*
X494928Y80318D01*
X494988Y80396D01*
X495056Y80468D01*
X495085Y80521D01*
X495122Y80569D01*
X495162Y80660D01*
X495210Y80747D01*
X495225Y80805D01*
X495249Y80861D01*
X495264Y80959D01*
X495289Y81055D01*
X495295Y81143D01*
X495297Y81154D01*
X495296Y81160D01*
X495299Y81175D01*
X495297Y81187D01*
X495299Y81215D01*
X495299Y82284D01*
X497039Y86485D01*
X500255Y89701D01*
X504456Y91441D01*
X509004Y91441D01*
X513205Y89701D01*
X516421Y86485D01*
X518161Y82284D01*
X518161Y77736D01*
X516421Y73535D01*
X513205Y70319D01*
X509004Y68579D01*
X504456Y68579D01*
X500255Y70319D01*
X499238Y71336D01*
X499144Y71409D01*
X499055Y71488D01*
X499019Y71507D01*
X498987Y71531D01*
X498878Y71579D01*
X498771Y71633D01*
X498732Y71642D01*
X498695Y71658D01*
X498577Y71676D01*
X498461Y71702D01*
X498421Y71701D01*
X498381Y71708D01*
X498262Y71696D01*
X498143Y71693D01*
X498104Y71682D01*
X498064Y71678D01*
X497952Y71637D01*
X497838Y71604D01*
X497803Y71584D01*
X497765Y71570D01*
X497666Y71503D01*
X497564Y71443D01*
X497519Y71403D01*
X497502Y71392D01*
X497488Y71376D01*
X497443Y71336D01*
X488551Y62445D01*
X488542Y62443D01*
X488450Y62407D01*
X488355Y62379D01*
X488302Y62349D01*
X488246Y62326D01*
X488166Y62268D01*
X488081Y62218D01*
X488005Y62152D01*
X487989Y62140D01*
X487981Y62130D01*
X487960Y62112D01*
X481814Y55966D01*
X481754Y55888D01*
X481686Y55816D01*
X481657Y55763D01*
X481620Y55715D01*
X481580Y55624D01*
X481532Y55537D01*
X481517Y55479D01*
X481493Y55423D01*
X481478Y55325D01*
X481453Y55229D01*
X481447Y55129D01*
X481443Y55109D01*
X481445Y55097D01*
X481443Y55069D01*
X481443Y13468D01*
X480252Y12277D01*
X476151Y12277D01*
X476053Y12265D01*
X475954Y12262D01*
X475896Y12245D01*
X475836Y12237D01*
X475744Y12201D01*
X475649Y12173D01*
X475597Y12143D01*
X475540Y12120D01*
X475460Y12062D01*
X475375Y12012D01*
X475299Y11946D01*
X475283Y11934D01*
X475275Y11924D01*
X475254Y11906D01*
X474781Y11433D01*
X474720Y11354D01*
X474690Y11322D01*
X470057Y6689D01*
X468075Y4707D01*
X467990Y4598D01*
X467901Y4491D01*
X467893Y4472D01*
X467880Y4456D01*
X467825Y4328D01*
X467766Y4203D01*
X467762Y4183D01*
X467754Y4164D01*
X467732Y4026D01*
X467706Y3890D01*
X467707Y3870D01*
X467704Y3850D01*
X467717Y3711D01*
X467726Y3573D01*
X467732Y3554D01*
X467734Y3534D01*
X467781Y3402D01*
X467824Y3271D01*
X467835Y3253D01*
X467842Y3234D01*
X467920Y3119D01*
X467994Y3002D01*
X468009Y2988D01*
X468020Y2971D01*
X468124Y2879D01*
X468226Y2784D01*
X468243Y2774D01*
X468259Y2761D01*
X468383Y2697D01*
X468504Y2630D01*
X468524Y2625D01*
X468542Y2616D01*
X468678Y2586D01*
X468812Y2551D01*
X468840Y2549D01*
X468852Y2546D01*
X468873Y2547D01*
X468973Y2541D01*
X502920Y2541D01*
X502942Y2543D01*
G37*
G36*
X393178Y32539D02*
X393178Y32539D01*
X393317Y32548D01*
X393336Y32554D01*
X393355Y32556D01*
X393487Y32603D01*
X393619Y32646D01*
X393636Y32657D01*
X393655Y32663D01*
X393771Y32742D01*
X393888Y32816D01*
X393902Y32831D01*
X393918Y32842D01*
X394011Y32946D01*
X394106Y33048D01*
X394116Y33065D01*
X394129Y33080D01*
X394192Y33204D01*
X394260Y33326D01*
X394265Y33345D01*
X394274Y33363D01*
X394304Y33499D01*
X394339Y33634D01*
X394341Y33662D01*
X394343Y33673D01*
X394343Y33694D01*
X394349Y33795D01*
X394349Y34644D01*
X394522Y35291D01*
X394687Y35576D01*
X394723Y35661D01*
X394768Y35742D01*
X394784Y35807D01*
X394810Y35869D01*
X394824Y35961D01*
X394847Y36050D01*
X394854Y36167D01*
X394857Y36184D01*
X394856Y36192D01*
X394857Y36211D01*
X394857Y49909D01*
X394846Y50001D01*
X394844Y50093D01*
X394826Y50158D01*
X394817Y50225D01*
X394783Y50311D01*
X394759Y50400D01*
X394707Y50505D01*
X394700Y50520D01*
X394695Y50527D01*
X394687Y50544D01*
X394522Y50829D01*
X394349Y51476D01*
X394349Y53041D01*
X401890Y53041D01*
X409431Y53041D01*
X409431Y51476D01*
X409258Y50829D01*
X409093Y50544D01*
X409057Y50459D01*
X409012Y50378D01*
X408996Y50313D01*
X408970Y50251D01*
X408956Y50159D01*
X408933Y50070D01*
X408926Y49953D01*
X408923Y49936D01*
X408924Y49928D01*
X408923Y49909D01*
X408923Y44391D01*
X408935Y44293D01*
X408938Y44194D01*
X408955Y44136D01*
X408963Y44076D01*
X408999Y43984D01*
X409027Y43889D01*
X409057Y43837D01*
X409080Y43780D01*
X409138Y43700D01*
X409188Y43615D01*
X409254Y43539D01*
X409266Y43523D01*
X409276Y43515D01*
X409294Y43494D01*
X410855Y41934D01*
X410964Y41849D01*
X411071Y41760D01*
X411090Y41751D01*
X411106Y41739D01*
X411234Y41683D01*
X411359Y41624D01*
X411379Y41621D01*
X411398Y41613D01*
X411536Y41591D01*
X411672Y41565D01*
X411692Y41566D01*
X411712Y41563D01*
X411851Y41576D01*
X411989Y41584D01*
X412008Y41591D01*
X412028Y41593D01*
X412160Y41640D01*
X412291Y41682D01*
X412309Y41693D01*
X412328Y41700D01*
X412443Y41778D01*
X412560Y41853D01*
X412574Y41867D01*
X412591Y41879D01*
X412683Y41983D01*
X412778Y42084D01*
X412788Y42102D01*
X412801Y42117D01*
X412865Y42241D01*
X412932Y42363D01*
X412937Y42382D01*
X412946Y42400D01*
X412976Y42536D01*
X413011Y42671D01*
X413013Y42699D01*
X413016Y42711D01*
X413015Y42731D01*
X413021Y42831D01*
X413021Y68250D01*
X413044Y68273D01*
X413087Y68328D01*
X413137Y68376D01*
X413184Y68453D01*
X413239Y68524D01*
X413267Y68588D01*
X413303Y68647D01*
X413330Y68733D01*
X413365Y68816D01*
X413376Y68885D01*
X413397Y68951D01*
X413401Y69041D01*
X413415Y69130D01*
X413409Y69199D01*
X413412Y69269D01*
X413394Y69357D01*
X413386Y69446D01*
X413362Y69512D01*
X413348Y69580D01*
X413308Y69661D01*
X413278Y69746D01*
X413239Y69803D01*
X413208Y69866D01*
X413150Y69934D01*
X413099Y70009D01*
X413047Y70055D01*
X413002Y70108D01*
X412928Y70160D01*
X412861Y70219D01*
X412799Y70251D01*
X412742Y70291D01*
X412658Y70323D01*
X412578Y70364D01*
X412510Y70379D01*
X412444Y70404D01*
X412355Y70414D01*
X412267Y70434D01*
X412198Y70431D01*
X412128Y70439D01*
X412039Y70427D01*
X411950Y70424D01*
X411882Y70405D01*
X411813Y70395D01*
X411661Y70343D01*
X407404Y68579D01*
X402856Y68579D01*
X398767Y70273D01*
X398739Y70281D01*
X398712Y70294D01*
X398586Y70323D01*
X398460Y70357D01*
X398431Y70357D01*
X398402Y70364D01*
X398272Y70360D01*
X398142Y70362D01*
X398114Y70355D01*
X398084Y70354D01*
X397960Y70318D01*
X397833Y70288D01*
X397807Y70274D01*
X397779Y70266D01*
X397667Y70200D01*
X397552Y70139D01*
X397530Y70119D01*
X397505Y70104D01*
X397384Y69998D01*
X385294Y57909D01*
X385234Y57830D01*
X385166Y57758D01*
X385137Y57705D01*
X385100Y57657D01*
X385060Y57566D01*
X385012Y57480D01*
X384997Y57421D01*
X384973Y57365D01*
X384958Y57267D01*
X384933Y57172D01*
X384927Y57072D01*
X384923Y57051D01*
X384925Y57039D01*
X384923Y57011D01*
X384923Y34398D01*
X384929Y34349D01*
X384927Y34299D01*
X384949Y34192D01*
X384963Y34083D01*
X384981Y34037D01*
X384991Y33988D01*
X385039Y33889D01*
X385080Y33787D01*
X385109Y33747D01*
X385131Y33702D01*
X385202Y33619D01*
X385266Y33530D01*
X385305Y33498D01*
X385337Y33460D01*
X385427Y33397D01*
X385511Y33327D01*
X385556Y33306D01*
X385597Y33277D01*
X385700Y33238D01*
X385799Y33191D01*
X385848Y33182D01*
X385894Y33164D01*
X386004Y33152D01*
X386111Y33132D01*
X386161Y33135D01*
X386210Y33129D01*
X386319Y33145D01*
X386429Y33151D01*
X386476Y33167D01*
X386525Y33174D01*
X386678Y33226D01*
X387722Y33658D01*
X390123Y33658D01*
X392512Y32669D01*
X392561Y32647D01*
X392687Y32588D01*
X392707Y32584D01*
X392725Y32576D01*
X392863Y32554D01*
X393000Y32528D01*
X393019Y32529D01*
X393039Y32526D01*
X393178Y32539D01*
G37*
%LPC*%
G36*
X509015Y54609D02*
X509015Y54609D01*
X509055Y54866D01*
X509636Y56653D01*
X510489Y58327D01*
X511594Y59848D01*
X512922Y61176D01*
X514443Y62281D01*
X516117Y63134D01*
X517904Y63715D01*
X518161Y63755D01*
X518161Y54609D01*
X509015Y54609D01*
G37*
%LPD*%
%LPC*%
G36*
X306639Y55579D02*
X306639Y55579D01*
X306639Y59351D01*
X310704Y59351D01*
X311351Y59178D01*
X311930Y58843D01*
X312403Y58370D01*
X312738Y57791D01*
X312911Y57144D01*
X312911Y55579D01*
X306639Y55579D01*
G37*
%LPD*%
%LPC*%
G36*
X499679Y55579D02*
X499679Y55579D01*
X499679Y59351D01*
X503744Y59351D01*
X504391Y59178D01*
X504970Y58843D01*
X505443Y58370D01*
X505778Y57791D01*
X505951Y57144D01*
X505951Y55579D01*
X499679Y55579D01*
G37*
%LPD*%
%LPC*%
G36*
X210119Y55579D02*
X210119Y55579D01*
X210119Y59351D01*
X214184Y59351D01*
X214831Y59178D01*
X215410Y58843D01*
X215883Y58370D01*
X216218Y57791D01*
X216391Y57144D01*
X216391Y55579D01*
X210119Y55579D01*
G37*
%LPD*%
%LPC*%
G36*
X65339Y55579D02*
X65339Y55579D01*
X65339Y59351D01*
X69404Y59351D01*
X70051Y59178D01*
X70630Y58843D01*
X71103Y58370D01*
X71438Y57791D01*
X71611Y57144D01*
X71611Y55579D01*
X65339Y55579D01*
G37*
%LPD*%
%LPC*%
G36*
X258379Y55579D02*
X258379Y55579D01*
X258379Y59351D01*
X262444Y59351D01*
X263091Y59178D01*
X263670Y58843D01*
X264143Y58370D01*
X264478Y57791D01*
X264651Y57144D01*
X264651Y55579D01*
X258379Y55579D01*
G37*
%LPD*%
%LPC*%
G36*
X113599Y55579D02*
X113599Y55579D01*
X113599Y59351D01*
X117664Y59351D01*
X118311Y59178D01*
X118890Y58843D01*
X119363Y58370D01*
X119698Y57791D01*
X119871Y57144D01*
X119871Y55579D01*
X113599Y55579D01*
G37*
%LPD*%
%LPC*%
G36*
X451419Y55579D02*
X451419Y55579D01*
X451419Y59351D01*
X455484Y59351D01*
X456131Y59178D01*
X456710Y58843D01*
X457183Y58370D01*
X457518Y57791D01*
X457691Y57144D01*
X457691Y55579D01*
X451419Y55579D01*
G37*
%LPD*%
%LPC*%
G36*
X161859Y55579D02*
X161859Y55579D01*
X161859Y59351D01*
X165924Y59351D01*
X166571Y59178D01*
X167150Y58843D01*
X167623Y58370D01*
X167958Y57791D01*
X168131Y57144D01*
X168131Y55579D01*
X161859Y55579D01*
G37*
%LPD*%
%LPC*%
G36*
X403159Y55579D02*
X403159Y55579D01*
X403159Y59351D01*
X407224Y59351D01*
X407871Y59178D01*
X408450Y58843D01*
X408923Y58370D01*
X409258Y57791D01*
X409431Y57144D01*
X409431Y55579D01*
X403159Y55579D01*
G37*
%LPD*%
%LPC*%
G36*
X354899Y55579D02*
X354899Y55579D01*
X354899Y59351D01*
X358964Y59351D01*
X359611Y59178D01*
X360190Y58843D01*
X360663Y58370D01*
X360998Y57791D01*
X361171Y57144D01*
X361171Y55579D01*
X354899Y55579D01*
G37*
%LPD*%
%LPC*%
G36*
X56529Y55579D02*
X56529Y55579D01*
X56529Y57144D01*
X56702Y57791D01*
X57037Y58370D01*
X57510Y58843D01*
X58089Y59178D01*
X58736Y59351D01*
X62801Y59351D01*
X62801Y55579D01*
X56529Y55579D01*
G37*
%LPD*%
%LPC*%
G36*
X346089Y55579D02*
X346089Y55579D01*
X346089Y57144D01*
X346262Y57791D01*
X346597Y58370D01*
X347070Y58843D01*
X347649Y59178D01*
X348296Y59351D01*
X352361Y59351D01*
X352361Y55579D01*
X346089Y55579D01*
G37*
%LPD*%
%LPC*%
G36*
X394349Y55579D02*
X394349Y55579D01*
X394349Y57144D01*
X394522Y57791D01*
X394857Y58370D01*
X395330Y58843D01*
X395909Y59178D01*
X396556Y59351D01*
X400621Y59351D01*
X400621Y55579D01*
X394349Y55579D01*
G37*
%LPD*%
%LPC*%
G36*
X249569Y55579D02*
X249569Y55579D01*
X249569Y57144D01*
X249742Y57791D01*
X250077Y58370D01*
X250550Y58843D01*
X251129Y59178D01*
X251776Y59351D01*
X255841Y59351D01*
X255841Y55579D01*
X249569Y55579D01*
G37*
%LPD*%
%LPC*%
G36*
X153049Y55579D02*
X153049Y55579D01*
X153049Y57144D01*
X153222Y57791D01*
X153557Y58370D01*
X154030Y58843D01*
X154609Y59178D01*
X155256Y59351D01*
X159321Y59351D01*
X159321Y55579D01*
X153049Y55579D01*
G37*
%LPD*%
%LPC*%
G36*
X297829Y55579D02*
X297829Y55579D01*
X297829Y57144D01*
X298002Y57791D01*
X298337Y58370D01*
X298810Y58843D01*
X299389Y59178D01*
X300036Y59351D01*
X304101Y59351D01*
X304101Y55579D01*
X297829Y55579D01*
G37*
%LPD*%
%LPC*%
G36*
X201309Y55579D02*
X201309Y55579D01*
X201309Y57144D01*
X201482Y57791D01*
X201817Y58370D01*
X202290Y58843D01*
X202869Y59178D01*
X203516Y59351D01*
X207581Y59351D01*
X207581Y55579D01*
X201309Y55579D01*
G37*
%LPD*%
%LPC*%
G36*
X442609Y55579D02*
X442609Y55579D01*
X442609Y57144D01*
X442782Y57791D01*
X443117Y58370D01*
X443590Y58843D01*
X444169Y59178D01*
X444816Y59351D01*
X448881Y59351D01*
X448881Y55579D01*
X442609Y55579D01*
G37*
%LPD*%
%LPC*%
G36*
X104789Y55579D02*
X104789Y55579D01*
X104789Y57144D01*
X104962Y57791D01*
X105297Y58370D01*
X105770Y58843D01*
X106349Y59178D01*
X106996Y59351D01*
X111061Y59351D01*
X111061Y55579D01*
X104789Y55579D01*
G37*
%LPD*%
%LPC*%
G36*
X490869Y55579D02*
X490869Y55579D01*
X490869Y57144D01*
X491042Y57791D01*
X491377Y58370D01*
X491850Y58843D01*
X492429Y59178D01*
X493076Y59351D01*
X497141Y59351D01*
X497141Y55579D01*
X490869Y55579D01*
G37*
%LPD*%
D10*
X64070Y16810D03*
X64070Y24310D03*
X64070Y31810D03*
X64070Y39310D03*
X64070Y46810D03*
X64070Y54310D03*
X40070Y54310D03*
X40070Y46810D03*
X40070Y39310D03*
X40070Y31810D03*
X40070Y24310D03*
X40070Y16810D03*
D11*
X12700Y52070D03*
X12700Y26670D03*
X520700Y52070D03*
X520700Y26670D03*
D10*
X112330Y16810D03*
X112330Y24310D03*
X112330Y31810D03*
X112330Y39310D03*
X112330Y46810D03*
X112330Y54310D03*
X88330Y54310D03*
X88330Y46810D03*
X88330Y39310D03*
X88330Y31810D03*
X88330Y24310D03*
X88330Y16810D03*
X160590Y16810D03*
X160590Y24310D03*
X160590Y31810D03*
X160590Y39310D03*
X160590Y46810D03*
X160590Y54310D03*
X136590Y54310D03*
X136590Y46810D03*
X136590Y39310D03*
X136590Y31810D03*
X136590Y24310D03*
X136590Y16810D03*
X208850Y16810D03*
X208850Y24310D03*
X208850Y31810D03*
X208850Y39310D03*
X208850Y46810D03*
X208850Y54310D03*
X184850Y54310D03*
X184850Y46810D03*
X184850Y39310D03*
X184850Y31810D03*
X184850Y24310D03*
X184850Y16810D03*
X257110Y16810D03*
X257110Y24310D03*
X257110Y31810D03*
X257110Y39310D03*
X257110Y46810D03*
X257110Y54310D03*
X233110Y54310D03*
X233110Y46810D03*
X233110Y39310D03*
X233110Y31810D03*
X233110Y24310D03*
X233110Y16810D03*
X305370Y16810D03*
X305370Y24310D03*
X305370Y31810D03*
X305370Y39310D03*
X305370Y46810D03*
X305370Y54310D03*
X281370Y54310D03*
X281370Y46810D03*
X281370Y39310D03*
X281370Y31810D03*
X281370Y24310D03*
X281370Y16810D03*
X353630Y16810D03*
X353630Y24310D03*
X353630Y31810D03*
X353630Y39310D03*
X353630Y46810D03*
X353630Y54310D03*
X329630Y54310D03*
X329630Y46810D03*
X329630Y39310D03*
X329630Y31810D03*
X329630Y24310D03*
X329630Y16810D03*
X401890Y16810D03*
X401890Y24310D03*
X401890Y31810D03*
X401890Y39310D03*
X401890Y46810D03*
X401890Y54310D03*
X377890Y54310D03*
X377890Y46810D03*
X377890Y39310D03*
X377890Y31810D03*
X377890Y24310D03*
X377890Y16810D03*
X450150Y16810D03*
X450150Y24310D03*
X450150Y31810D03*
X450150Y39310D03*
X450150Y46810D03*
X450150Y54310D03*
X426150Y54310D03*
X426150Y46810D03*
X426150Y39310D03*
X426150Y31810D03*
X426150Y24310D03*
X426150Y16810D03*
X498410Y16810D03*
X498410Y24310D03*
X498410Y31810D03*
X498410Y39310D03*
X498410Y46810D03*
X498410Y54310D03*
X474410Y54310D03*
X474410Y46810D03*
X474410Y39310D03*
X474410Y31810D03*
X474410Y24310D03*
X474410Y16810D03*
D11*
X24130Y80010D03*
X49530Y80010D03*
X74930Y80010D03*
X100330Y80010D03*
X125730Y80010D03*
X151130Y80010D03*
X176530Y80010D03*
X201930Y80010D03*
X227330Y80010D03*
X252730Y80010D03*
X278130Y80010D03*
X303530Y80010D03*
X328930Y80010D03*
X354330Y80010D03*
X379730Y80010D03*
X405130Y80010D03*
X430530Y80010D03*
X455930Y80010D03*
X481330Y80010D03*
X506730Y80010D03*
D12*
X57387Y53374D02*
X55006Y50993D01*
X55006Y35127D02*
X57387Y32746D01*
X55006Y35127D02*
X55006Y50993D01*
X63134Y53374D02*
X64070Y54310D01*
X63134Y53374D02*
X57387Y53374D01*
X57387Y32746D02*
X57424Y32746D01*
X58420Y31750D01*
X64010Y31750D01*
X64070Y31810D01*
X103266Y35127D02*
X105647Y32746D01*
X103266Y35127D02*
X103266Y50993D01*
X105647Y32746D02*
X111394Y32746D01*
X112330Y31810D01*
X151526Y50993D02*
X153907Y53374D01*
X151526Y35127D02*
X153907Y32746D01*
X151526Y35127D02*
X151526Y50993D01*
X159654Y53374D02*
X160590Y54310D01*
X159654Y53374D02*
X153907Y53374D01*
X153907Y32746D02*
X153944Y32746D01*
X154940Y31750D01*
X160530Y31750D01*
X160590Y31810D01*
X73264Y63504D02*
X64070Y54310D01*
X73264Y63504D02*
X73264Y63896D01*
D13*
X73264Y63896D03*
D12*
X157750Y57150D02*
X160590Y54310D01*
X157750Y57150D02*
X148590Y57150D01*
D13*
X148590Y57150D03*
D12*
X112330Y54310D02*
X106583Y54310D01*
X103266Y50993D01*
X101900Y54310D02*
X112330Y54310D01*
X101900Y54310D02*
X100817Y55393D01*
D13*
X100817Y55393D03*
D12*
X207280Y55880D02*
X208850Y54310D01*
X207280Y55880D02*
X195883Y55880D01*
D13*
X195883Y55880D03*
D12*
X199786Y50993D02*
X202167Y53374D01*
X199786Y50993D02*
X199786Y35127D01*
X208382Y32278D02*
X208850Y31810D01*
X207914Y53374D02*
X202167Y53374D01*
X207914Y53374D02*
X208850Y54310D01*
X208382Y32278D02*
X202635Y32278D01*
X199786Y35127D01*
X248046Y50993D02*
X250427Y53374D01*
X248046Y50993D02*
X248046Y35127D01*
X256642Y32278D02*
X257110Y31810D01*
X256174Y53374D02*
X250427Y53374D01*
X256174Y53374D02*
X257110Y54310D01*
X256642Y32278D02*
X250895Y32278D01*
X248046Y35127D01*
X245713Y54310D02*
X257110Y54310D01*
X245713Y54310D02*
X244143Y55880D01*
D13*
X244143Y55880D03*
D12*
X296306Y50993D02*
X298687Y53374D01*
X296306Y35127D02*
X298687Y32746D01*
X296306Y35127D02*
X296306Y50993D01*
X304434Y53374D02*
X305370Y54310D01*
X304434Y53374D02*
X298687Y53374D01*
X298687Y32746D02*
X304434Y32746D01*
X305370Y31810D01*
X305370Y54310D02*
X293973Y54310D01*
X292403Y55880D01*
D13*
X292403Y55880D03*
D12*
X344566Y50993D02*
X346947Y53374D01*
X344566Y35127D02*
X346947Y32746D01*
X344566Y35127D02*
X344566Y50993D01*
X352694Y53374D02*
X353630Y54310D01*
X352694Y53374D02*
X346947Y53374D01*
X346947Y32746D02*
X352694Y32746D01*
X353630Y31810D01*
X353630Y54310D02*
X343503Y54310D01*
X340663Y57150D01*
D13*
X340663Y57150D03*
D12*
X392826Y35127D02*
X395207Y32746D01*
X392826Y50993D02*
X395207Y53374D01*
X392826Y50993D02*
X392826Y35127D01*
X400954Y32746D02*
X401890Y31810D01*
X400954Y32746D02*
X395207Y32746D01*
X395207Y53374D02*
X400954Y53374D01*
X401890Y54310D01*
X390493Y54310D01*
X388923Y55880D01*
D13*
X388923Y55880D03*
D12*
X441086Y50993D02*
X443467Y53374D01*
X441086Y35127D02*
X443467Y32746D01*
X441086Y35127D02*
X441086Y50993D01*
X449214Y53374D02*
X450150Y54310D01*
X449214Y53374D02*
X443467Y53374D01*
X443467Y32746D02*
X443504Y32746D01*
X444500Y31750D01*
X450090Y31750D01*
X450150Y31810D01*
X450150Y54310D02*
X439720Y54310D01*
X438150Y55880D01*
D13*
X438150Y55880D03*
D12*
X489346Y50993D02*
X491727Y53374D01*
X489346Y35127D02*
X491727Y32746D01*
X489346Y35127D02*
X489346Y50993D01*
X497474Y53374D02*
X498410Y54310D01*
X497474Y53374D02*
X491727Y53374D01*
X491727Y32746D02*
X491764Y32746D01*
X492760Y31750D01*
X498350Y31750D01*
X498410Y31810D01*
X519730Y53040D02*
X519730Y53040D01*
X520700Y52070D01*
X518460Y54310D02*
X498410Y54310D01*
X518460Y54310D02*
X519730Y53040D01*
X40070Y54310D02*
X40070Y70550D01*
X49530Y80010D01*
X70753Y38374D02*
X73134Y35993D01*
X73134Y27627D01*
X70753Y25246D01*
X65006Y38374D02*
X64070Y39310D01*
X65006Y38374D02*
X70753Y38374D01*
X70753Y25246D02*
X65006Y25246D01*
X64070Y24310D01*
X121394Y27627D02*
X121394Y35993D01*
X121394Y27627D02*
X119013Y25246D01*
X112798Y38842D02*
X112330Y39310D01*
X113266Y25246D02*
X119013Y25246D01*
X113266Y25246D02*
X112330Y24310D01*
X112798Y38842D02*
X118545Y38842D01*
X121394Y35993D01*
X167273Y38374D02*
X169654Y35993D01*
X169654Y27627D01*
X167273Y25246D01*
X161526Y38374D02*
X160590Y39310D01*
X161526Y38374D02*
X167273Y38374D01*
X167273Y25246D02*
X161526Y25246D01*
X160590Y24310D01*
X64070Y24310D02*
X52250Y24310D01*
X52070Y24130D01*
D13*
X52070Y24130D03*
D12*
X102678Y24310D02*
X112330Y24310D01*
D13*
X99363Y27625D03*
D12*
X147623Y27625D02*
X150938Y24310D01*
D13*
X147623Y27625D03*
D12*
X215533Y38374D02*
X217914Y35993D01*
X217914Y27627D01*
X215533Y25246D01*
X209786Y38374D02*
X208850Y39310D01*
X209786Y38374D02*
X215533Y38374D01*
X215533Y25246D02*
X209786Y25246D01*
X208850Y24310D01*
X199198Y24310D01*
X195883Y27625D01*
D13*
X195883Y27625D03*
D12*
X263793Y38374D02*
X266174Y35993D01*
X266174Y27627D01*
X263793Y25246D01*
X258046Y38374D02*
X257110Y39310D01*
X258046Y38374D02*
X263793Y38374D01*
X263793Y25246D02*
X258046Y25246D01*
X257110Y24310D01*
D13*
X244143Y27625D03*
D12*
X256174Y25246D02*
X257110Y24310D01*
X246926Y27625D02*
X244143Y27625D01*
X249306Y25246D02*
X256174Y25246D01*
X249306Y25246D02*
X246926Y27625D01*
X312053Y25246D02*
X314434Y27627D01*
X314434Y35993D01*
X306306Y25246D02*
X305370Y24310D01*
X306306Y25246D02*
X312053Y25246D01*
X311150Y39277D02*
X311150Y39370D01*
X311150Y39277D02*
X314434Y35993D01*
X311150Y39370D02*
X305430Y39370D01*
X305370Y39310D01*
X305370Y24310D02*
X295718Y24310D01*
X292403Y27625D01*
D13*
X292403Y27625D03*
D12*
X360313Y25246D02*
X362694Y27627D01*
X362694Y35993D01*
X354566Y25246D02*
X353630Y24310D01*
X354566Y25246D02*
X360313Y25246D01*
X359410Y39277D02*
X359410Y39370D01*
X359410Y39277D02*
X362694Y35993D01*
X359410Y39370D02*
X353690Y39370D01*
X353630Y39310D01*
X353630Y24310D02*
X343978Y24310D01*
X340663Y27625D01*
D13*
X340663Y27625D03*
D12*
X102678Y24310D02*
X99363Y27625D01*
X150938Y24310D02*
X160590Y24310D01*
X408573Y25246D02*
X410954Y27627D01*
X410954Y35993D01*
X402826Y25246D02*
X401890Y24310D01*
X402826Y25246D02*
X408573Y25246D01*
X407670Y39277D02*
X407670Y39370D01*
X407670Y39277D02*
X410954Y35993D01*
X407670Y39370D02*
X401950Y39370D01*
X401890Y39310D01*
X401890Y24310D02*
X392238Y24310D01*
X388923Y27625D01*
D13*
X388923Y27625D03*
D12*
X456833Y38374D02*
X459214Y35993D01*
X459214Y27627D01*
X456833Y25246D01*
X451086Y38374D02*
X450150Y39310D01*
X451086Y38374D02*
X456833Y38374D01*
X456833Y25246D02*
X451086Y25246D01*
X450150Y24310D01*
X440498Y24310D01*
X437183Y27625D01*
D13*
X437183Y27625D03*
D12*
X505093Y38374D02*
X507474Y35993D01*
X507474Y27627D01*
X499346Y38374D02*
X498410Y39310D01*
X499346Y38374D02*
X505093Y38374D01*
X499346Y25246D02*
X498410Y24310D01*
X499346Y25246D02*
X505093Y25246D01*
X507474Y27627D01*
X508431Y26670D01*
X520700Y26670D01*
D13*
X76200Y16066D03*
D12*
X87394Y23374D02*
X88330Y24310D01*
X87394Y23374D02*
X81647Y23374D01*
X79266Y20993D01*
X79266Y19132D01*
X76200Y16066D01*
D13*
X125558Y16066D03*
D12*
X127526Y18034D02*
X127526Y20993D01*
X127526Y18034D02*
X125558Y16066D01*
X130843Y24310D02*
X136590Y24310D01*
X130843Y24310D02*
X127526Y20993D01*
X24910Y39860D02*
X12700Y52070D01*
X24910Y39860D02*
X24910Y32602D01*
X33202Y24310D01*
X40070Y24310D01*
D13*
X172720Y16066D03*
D12*
X175786Y19132D02*
X175786Y20993D01*
X175786Y19132D02*
X172720Y16066D01*
X179103Y24310D02*
X184850Y24310D01*
X179103Y24310D02*
X175786Y20993D01*
D13*
X220980Y16066D03*
D12*
X232174Y23374D02*
X233110Y24310D01*
X232174Y23374D02*
X226427Y23374D01*
X224046Y20993D01*
X224046Y19132D01*
X220980Y16066D01*
D13*
X269240Y16066D03*
D12*
X280434Y23374D02*
X281370Y24310D01*
X280434Y23374D02*
X274687Y23374D01*
X272306Y20993D01*
X272306Y19132D01*
X269240Y16066D01*
D13*
X317500Y16066D03*
D12*
X328694Y23374D02*
X329630Y24310D01*
X328694Y23374D02*
X322947Y23374D01*
X320566Y20993D01*
X320566Y19132D01*
X317500Y16066D01*
D13*
X365760Y16066D03*
D12*
X376954Y23374D02*
X377890Y24310D01*
X376954Y23374D02*
X371207Y23374D01*
X368826Y20993D01*
X368826Y19132D01*
X365760Y16066D01*
D13*
X414020Y16066D03*
D12*
X425214Y23374D02*
X426150Y24310D01*
X425214Y23374D02*
X419467Y23374D01*
X417086Y20993D01*
X417086Y19132D01*
X414020Y16066D01*
D13*
X462280Y16066D03*
D12*
X473474Y23374D02*
X474410Y24310D01*
X473474Y23374D02*
X467727Y23374D01*
X465346Y20993D01*
X465346Y19132D01*
X462280Y16066D01*
X22560Y16810D02*
X20020Y16810D01*
X22560Y16810D02*
X40070Y16810D01*
X22560Y16810D02*
X12700Y26670D01*
X79540Y8001D02*
X84265Y12725D01*
X84265Y12745D02*
X88330Y16810D01*
X84265Y12745D02*
X84265Y12725D01*
X79540Y8001D02*
X28829Y8001D01*
X20020Y16810D01*
X128898Y8001D02*
X133622Y12725D01*
X133622Y13842D02*
X136590Y16810D01*
X133622Y13842D02*
X133622Y12725D01*
X128898Y8001D02*
X79540Y8001D01*
X176060Y8001D02*
X180785Y12725D01*
X180785Y12745D02*
X184850Y16810D01*
X180785Y12745D02*
X180785Y12725D01*
X176060Y8001D02*
X128898Y8001D01*
X224320Y8001D02*
X229045Y12725D01*
X229045Y12745D02*
X233110Y16810D01*
X229045Y12745D02*
X229045Y12725D01*
X224320Y8001D02*
X176060Y8001D01*
X272580Y8001D02*
X277305Y12725D01*
X277305Y12745D02*
X281370Y16810D01*
X277305Y12745D02*
X277305Y12725D01*
X272580Y8001D02*
X224320Y8001D01*
X320840Y8001D02*
X325565Y12725D01*
X325565Y12745D02*
X329630Y16810D01*
X325565Y12745D02*
X325565Y12725D01*
X320840Y8001D02*
X272580Y8001D01*
X373825Y12745D02*
X377890Y16810D01*
X373825Y12745D02*
X373825Y12725D01*
X369100Y8001D02*
X320840Y8001D01*
X369100Y8001D02*
X373825Y12725D01*
X417360Y8001D02*
X422085Y12725D01*
X422085Y12745D02*
X426150Y16810D01*
X422085Y12745D02*
X422085Y12725D01*
X417360Y8001D02*
X369100Y8001D01*
X465620Y8001D02*
X470345Y12725D01*
X470345Y12745D02*
X474410Y16810D01*
X470345Y12745D02*
X470345Y12725D01*
X465620Y8001D02*
X417360Y8001D01*
X40070Y31810D02*
X39134Y32746D01*
X33387Y32746D01*
X31006Y35127D01*
X24130Y59678D02*
X24130Y80010D01*
X31006Y52802D02*
X31006Y35127D01*
X31006Y52802D02*
X24130Y59678D01*
X88330Y54310D02*
X88330Y68010D01*
X100330Y80010D01*
X79266Y35127D02*
X81647Y32746D01*
X79266Y35127D02*
X79266Y58493D01*
X87394Y32746D02*
X88330Y31810D01*
X87394Y32746D02*
X81647Y32746D01*
X79266Y58493D02*
X81328Y60556D01*
X81328Y73612D01*
X74930Y80010D01*
X136590Y65470D02*
X136590Y54310D01*
X136590Y65470D02*
X151130Y80010D01*
X127526Y35127D02*
X129907Y32746D01*
X135654Y32746D02*
X136590Y31810D01*
X135654Y32746D02*
X129907Y32746D01*
X127526Y78214D02*
X125730Y80010D01*
X127526Y78214D02*
X127526Y35127D01*
X184850Y54310D02*
X184850Y62930D01*
X201930Y80010D01*
X175786Y35127D02*
X178167Y32746D01*
X175786Y35127D02*
X175786Y58493D01*
X183914Y32746D02*
X184850Y31810D01*
X183914Y32746D02*
X178167Y32746D01*
X175786Y58493D02*
X176530Y59237D01*
X176530Y80010D01*
X233110Y60390D02*
X233110Y54310D01*
X233110Y60390D02*
X252730Y80010D01*
X224046Y35127D02*
X226427Y32746D01*
X232174Y32746D02*
X233110Y31810D01*
X232174Y32746D02*
X226427Y32746D01*
X227330Y63231D02*
X227330Y80010D01*
X224046Y59947D02*
X224046Y35127D01*
X224046Y59947D02*
X227330Y63231D01*
X281370Y54310D02*
X284338Y57278D01*
X284338Y59220D01*
X303530Y78412D02*
X303530Y80010D01*
X303530Y78412D02*
X284338Y59220D01*
X272306Y35127D02*
X274687Y32746D01*
X280434Y32746D01*
X281370Y31810D01*
X272306Y35127D02*
X272306Y58493D01*
X278130Y64317D02*
X278130Y80010D01*
X278130Y64317D02*
X272306Y58493D01*
X329630Y54310D02*
X332598Y57278D01*
X332598Y60490D01*
X337322Y65215D01*
X339535Y65215D01*
X354330Y80010D01*
X320566Y35127D02*
X322947Y32746D01*
X320566Y35127D02*
X320566Y58493D01*
X328694Y32746D02*
X329630Y31810D01*
X328694Y32746D02*
X322947Y32746D01*
X328930Y66857D02*
X328930Y80010D01*
X328930Y66857D02*
X320566Y58493D01*
X377890Y54310D02*
X380858Y57278D01*
X380858Y59220D01*
X401648Y80010D01*
X405130Y80010D01*
X368826Y35127D02*
X371207Y32746D01*
X376954Y32746D02*
X377890Y31810D01*
X376954Y32746D02*
X371207Y32746D01*
X368826Y35127D02*
X368826Y69106D01*
X379730Y80010D01*
X426150Y54310D02*
X430086Y58246D01*
X430086Y59220D01*
X450875Y80010D01*
X455930Y80010D01*
X417086Y35127D02*
X419467Y32746D01*
X425214Y32746D02*
X426150Y31810D01*
X425214Y32746D02*
X419467Y32746D01*
X417086Y35127D02*
X417086Y66566D01*
X430530Y80010D01*
X474410Y54310D02*
X486648Y66548D01*
X486906Y66548D01*
X500368Y80010D02*
X506730Y80010D01*
X500368Y80010D02*
X486906Y66548D01*
X465346Y35127D02*
X467727Y32746D01*
X465346Y35127D02*
X465346Y58493D01*
X473474Y32746D02*
X474410Y31810D01*
X473474Y32746D02*
X467727Y32746D01*
X481330Y74477D02*
X481330Y80010D01*
X481330Y74477D02*
X465346Y58493D01*
M02*
