G04 EAGLE Gerber RS-274X export*
G75*
%MOMM*%
%FSLAX34Y34*%
%LPD*%
%IN*%
%IPPOS*%
%AMOC8*
5,1,8,0,0,1.08239X$1,22.5*%
G01*
%ADD10C,0.254000*%


D10*
X0Y25400D02*
X97Y23186D01*
X386Y20989D01*
X865Y18826D01*
X1532Y16713D01*
X2380Y14666D01*
X3403Y12700D01*
X4594Y10831D01*
X5942Y9073D01*
X7440Y7440D01*
X9073Y5942D01*
X10831Y4594D01*
X12700Y3403D01*
X14666Y2380D01*
X16713Y1532D01*
X18826Y865D01*
X20989Y386D01*
X23186Y97D01*
X25400Y0D01*
X502920Y0D01*
X505687Y121D01*
X508433Y482D01*
X511138Y1082D01*
X513779Y1915D01*
X516338Y2975D01*
X518795Y4254D01*
X521131Y5742D01*
X523329Y7428D01*
X525371Y9299D01*
X527242Y11342D01*
X528928Y13539D01*
X530416Y15875D01*
X531695Y18332D01*
X532755Y20891D01*
X533588Y23533D01*
X534188Y26237D01*
X534549Y28983D01*
X534670Y31750D01*
X534670Y74930D01*
X534569Y77254D01*
X534265Y79561D01*
X533761Y81833D01*
X533062Y84052D01*
X532171Y86201D01*
X531097Y88265D01*
X529847Y90227D01*
X528430Y92073D01*
X526859Y93789D01*
X525143Y95360D01*
X523297Y96777D01*
X521335Y98027D01*
X519271Y99101D01*
X517122Y99992D01*
X514903Y100691D01*
X512631Y101195D01*
X510324Y101499D01*
X508000Y101600D01*
X25400Y101600D01*
X22922Y101215D01*
X20486Y100615D01*
X18112Y99805D01*
X15818Y98791D01*
X13621Y97581D01*
X11538Y96184D01*
X9584Y94611D01*
X7775Y92874D01*
X6124Y90986D01*
X4644Y88960D01*
X3347Y86814D01*
X2241Y84563D01*
X1335Y82224D01*
X637Y79815D01*
X152Y77354D01*
X-117Y74860D01*
X-168Y72353D01*
X0Y69850D01*
X0Y25400D01*
M02*
