G04 EAGLE Gerber RS-274X export*
G75*
%MOMM*%
%FSLAX34Y34*%
%LPD*%
%INSoldermask Top*%
%IPPOS*%
%AMOC8*
5,1,8,0,0,1.08239X$1,22.5*%
G01*
%ADD10R,1.101600X0.601600*%
%ADD11C,1.981200*%


D10*
X64070Y16810D03*
X64070Y24310D03*
X64070Y31810D03*
X64070Y39310D03*
X64070Y46810D03*
X64070Y54310D03*
X40070Y54310D03*
X40070Y46810D03*
X40070Y39310D03*
X40070Y31810D03*
X40070Y24310D03*
X40070Y16810D03*
D11*
X12700Y52070D03*
X12700Y26670D03*
X520700Y52070D03*
X520700Y26670D03*
D10*
X112330Y16810D03*
X112330Y24310D03*
X112330Y31810D03*
X112330Y39310D03*
X112330Y46810D03*
X112330Y54310D03*
X88330Y54310D03*
X88330Y46810D03*
X88330Y39310D03*
X88330Y31810D03*
X88330Y24310D03*
X88330Y16810D03*
X160590Y16810D03*
X160590Y24310D03*
X160590Y31810D03*
X160590Y39310D03*
X160590Y46810D03*
X160590Y54310D03*
X136590Y54310D03*
X136590Y46810D03*
X136590Y39310D03*
X136590Y31810D03*
X136590Y24310D03*
X136590Y16810D03*
X208850Y16810D03*
X208850Y24310D03*
X208850Y31810D03*
X208850Y39310D03*
X208850Y46810D03*
X208850Y54310D03*
X184850Y54310D03*
X184850Y46810D03*
X184850Y39310D03*
X184850Y31810D03*
X184850Y24310D03*
X184850Y16810D03*
X257110Y16810D03*
X257110Y24310D03*
X257110Y31810D03*
X257110Y39310D03*
X257110Y46810D03*
X257110Y54310D03*
X233110Y54310D03*
X233110Y46810D03*
X233110Y39310D03*
X233110Y31810D03*
X233110Y24310D03*
X233110Y16810D03*
X305370Y16810D03*
X305370Y24310D03*
X305370Y31810D03*
X305370Y39310D03*
X305370Y46810D03*
X305370Y54310D03*
X281370Y54310D03*
X281370Y46810D03*
X281370Y39310D03*
X281370Y31810D03*
X281370Y24310D03*
X281370Y16810D03*
X353630Y16810D03*
X353630Y24310D03*
X353630Y31810D03*
X353630Y39310D03*
X353630Y46810D03*
X353630Y54310D03*
X329630Y54310D03*
X329630Y46810D03*
X329630Y39310D03*
X329630Y31810D03*
X329630Y24310D03*
X329630Y16810D03*
X401890Y16810D03*
X401890Y24310D03*
X401890Y31810D03*
X401890Y39310D03*
X401890Y46810D03*
X401890Y54310D03*
X377890Y54310D03*
X377890Y46810D03*
X377890Y39310D03*
X377890Y31810D03*
X377890Y24310D03*
X377890Y16810D03*
X450150Y16810D03*
X450150Y24310D03*
X450150Y31810D03*
X450150Y39310D03*
X450150Y46810D03*
X450150Y54310D03*
X426150Y54310D03*
X426150Y46810D03*
X426150Y39310D03*
X426150Y31810D03*
X426150Y24310D03*
X426150Y16810D03*
X498410Y16810D03*
X498410Y24310D03*
X498410Y31810D03*
X498410Y39310D03*
X498410Y46810D03*
X498410Y54310D03*
X474410Y54310D03*
X474410Y46810D03*
X474410Y39310D03*
X474410Y31810D03*
X474410Y24310D03*
X474410Y16810D03*
D11*
X24130Y80010D03*
X49530Y80010D03*
X74930Y80010D03*
X100330Y80010D03*
X125730Y80010D03*
X151130Y80010D03*
X176530Y80010D03*
X201930Y80010D03*
X227330Y80010D03*
X252730Y80010D03*
X278130Y80010D03*
X303530Y80010D03*
X328930Y80010D03*
X354330Y80010D03*
X379730Y80010D03*
X405130Y80010D03*
X430530Y80010D03*
X455930Y80010D03*
X481330Y80010D03*
X506730Y80010D03*
M02*
