G04 EAGLE Gerber RS-274X export*
G75*
%MOMM*%
%FSLAX34Y34*%
%LPD*%
%INTop Copper*%
%IPPOS*%
%AMOC8*
5,1,8,0,0,1.08239X$1,22.5*%
G01*
%ADD10R,0.800000X1.350000*%
%ADD11R,1.300000X1.500000*%
%ADD12R,1.200000X0.550000*%
%ADD13R,1.000000X1.100000*%
%ADD14R,0.900000X0.450000*%
%ADD15R,0.500000X0.500000*%
%ADD16R,0.400000X0.500000*%
%ADD17R,0.800000X0.800000*%
%ADD18C,1.879600*%
%ADD19C,0.254000*%
%ADD20C,0.889000*%
%ADD21C,0.406400*%

G36*
X25721Y58599D02*
X25721Y58599D01*
X25840Y58602D01*
X25879Y58614D01*
X25919Y58617D01*
X26031Y58658D01*
X26146Y58691D01*
X26180Y58711D01*
X26218Y58725D01*
X26317Y58792D01*
X26420Y58852D01*
X26464Y58892D01*
X26481Y58903D01*
X26495Y58919D01*
X26540Y58959D01*
X26872Y59291D01*
X28258Y59291D01*
X28376Y59306D01*
X28495Y59313D01*
X28533Y59326D01*
X28574Y59331D01*
X28684Y59374D01*
X28797Y59411D01*
X28832Y59433D01*
X28869Y59448D01*
X28965Y59517D01*
X29066Y59581D01*
X29094Y59611D01*
X29127Y59634D01*
X29203Y59726D01*
X29284Y59813D01*
X29304Y59848D01*
X29329Y59879D01*
X29380Y59987D01*
X29438Y60091D01*
X29448Y60131D01*
X29465Y60167D01*
X29487Y60284D01*
X29517Y60399D01*
X29521Y60459D01*
X29525Y60479D01*
X29523Y60500D01*
X29527Y60560D01*
X29527Y73632D01*
X30718Y74823D01*
X30988Y74823D01*
X31106Y74838D01*
X31225Y74845D01*
X31263Y74858D01*
X31304Y74863D01*
X31414Y74906D01*
X31527Y74943D01*
X31562Y74965D01*
X31599Y74980D01*
X31695Y75049D01*
X31796Y75113D01*
X31824Y75143D01*
X31857Y75166D01*
X31933Y75258D01*
X32014Y75345D01*
X32034Y75380D01*
X32059Y75411D01*
X32110Y75519D01*
X32168Y75623D01*
X32178Y75663D01*
X32195Y75699D01*
X32217Y75816D01*
X32247Y75931D01*
X32251Y75991D01*
X32255Y76011D01*
X32253Y76032D01*
X32257Y76092D01*
X32257Y81378D01*
X32464Y81584D01*
X32482Y81608D01*
X32504Y81627D01*
X32579Y81733D01*
X32659Y81836D01*
X32670Y81863D01*
X32687Y81887D01*
X32733Y82008D01*
X32785Y82127D01*
X32789Y82157D01*
X32800Y82184D01*
X32814Y82313D01*
X32835Y82442D01*
X32832Y82471D01*
X32835Y82500D01*
X32817Y82629D01*
X32805Y82758D01*
X32795Y82786D01*
X32791Y82815D01*
X32739Y82968D01*
X31749Y85356D01*
X31749Y89904D01*
X33489Y94105D01*
X36705Y97321D01*
X40906Y99061D01*
X45454Y99061D01*
X49655Y97321D01*
X52871Y94105D01*
X54611Y89904D01*
X54611Y85356D01*
X52871Y81155D01*
X49655Y77939D01*
X45454Y76199D01*
X42090Y76199D01*
X41952Y76182D01*
X41813Y76169D01*
X41794Y76162D01*
X41774Y76159D01*
X41645Y76108D01*
X41514Y76061D01*
X41497Y76050D01*
X41478Y76042D01*
X41366Y75961D01*
X41251Y75883D01*
X41238Y75867D01*
X41221Y75856D01*
X41132Y75748D01*
X41040Y75644D01*
X41031Y75626D01*
X41018Y75611D01*
X40959Y75485D01*
X40896Y75361D01*
X40891Y75341D01*
X40883Y75323D01*
X40857Y75186D01*
X40826Y75051D01*
X40827Y75030D01*
X40823Y75011D01*
X40832Y74872D01*
X40836Y74733D01*
X40841Y74713D01*
X40843Y74693D01*
X40885Y74561D01*
X40924Y74427D01*
X40935Y74410D01*
X40941Y74391D01*
X41015Y74273D01*
X41086Y74153D01*
X41104Y74132D01*
X41111Y74122D01*
X41126Y74108D01*
X41192Y74033D01*
X41593Y73632D01*
X41593Y63364D01*
X41608Y63246D01*
X41615Y63127D01*
X41628Y63089D01*
X41633Y63048D01*
X41676Y62938D01*
X41713Y62825D01*
X41735Y62790D01*
X41750Y62753D01*
X41819Y62657D01*
X41883Y62556D01*
X41913Y62528D01*
X41936Y62495D01*
X42028Y62419D01*
X42115Y62338D01*
X42150Y62318D01*
X42181Y62293D01*
X42289Y62242D01*
X42393Y62184D01*
X42433Y62174D01*
X42469Y62157D01*
X42586Y62135D01*
X42701Y62105D01*
X42761Y62101D01*
X42781Y62097D01*
X42802Y62099D01*
X42862Y62095D01*
X45038Y62095D01*
X45156Y62110D01*
X45275Y62117D01*
X45313Y62130D01*
X45354Y62135D01*
X45464Y62178D01*
X45577Y62215D01*
X45612Y62237D01*
X45649Y62252D01*
X45745Y62321D01*
X45846Y62385D01*
X45874Y62415D01*
X45907Y62438D01*
X45983Y62530D01*
X46064Y62617D01*
X46084Y62652D01*
X46109Y62683D01*
X46160Y62791D01*
X46218Y62895D01*
X46228Y62935D01*
X46245Y62971D01*
X46267Y63088D01*
X46297Y63203D01*
X46301Y63263D01*
X46305Y63283D01*
X46303Y63304D01*
X46307Y63364D01*
X46307Y64372D01*
X47498Y65563D01*
X59182Y65563D01*
X60062Y64682D01*
X60156Y64609D01*
X60246Y64530D01*
X60282Y64512D01*
X60314Y64487D01*
X60423Y64440D01*
X60529Y64386D01*
X60568Y64377D01*
X60606Y64361D01*
X60723Y64342D01*
X60839Y64316D01*
X60880Y64317D01*
X60920Y64311D01*
X61038Y64322D01*
X61157Y64326D01*
X61196Y64337D01*
X61236Y64341D01*
X61349Y64381D01*
X61463Y64414D01*
X61497Y64435D01*
X61536Y64448D01*
X61634Y64515D01*
X61737Y64576D01*
X61782Y64616D01*
X61799Y64627D01*
X61812Y64642D01*
X61857Y64682D01*
X62738Y65563D01*
X74422Y65563D01*
X75613Y64372D01*
X75613Y63364D01*
X75628Y63246D01*
X75635Y63127D01*
X75648Y63089D01*
X75653Y63048D01*
X75696Y62938D01*
X75733Y62825D01*
X75755Y62790D01*
X75770Y62753D01*
X75839Y62657D01*
X75903Y62556D01*
X75933Y62528D01*
X75956Y62495D01*
X76048Y62419D01*
X76135Y62338D01*
X76170Y62318D01*
X76201Y62293D01*
X76309Y62242D01*
X76413Y62184D01*
X76453Y62174D01*
X76489Y62157D01*
X76606Y62135D01*
X76721Y62105D01*
X76781Y62101D01*
X76801Y62097D01*
X76822Y62099D01*
X76882Y62095D01*
X79058Y62095D01*
X79176Y62110D01*
X79295Y62117D01*
X79333Y62130D01*
X79374Y62135D01*
X79484Y62178D01*
X79597Y62215D01*
X79632Y62237D01*
X79669Y62252D01*
X79765Y62321D01*
X79866Y62385D01*
X79894Y62415D01*
X79927Y62438D01*
X80003Y62530D01*
X80084Y62617D01*
X80104Y62652D01*
X80129Y62683D01*
X80180Y62791D01*
X80238Y62895D01*
X80248Y62935D01*
X80265Y62971D01*
X80287Y63088D01*
X80317Y63203D01*
X80321Y63263D01*
X80325Y63283D01*
X80323Y63304D01*
X80327Y63364D01*
X80327Y73632D01*
X81518Y74823D01*
X81788Y74823D01*
X81906Y74838D01*
X82025Y74845D01*
X82063Y74858D01*
X82104Y74863D01*
X82214Y74906D01*
X82327Y74943D01*
X82362Y74965D01*
X82399Y74980D01*
X82495Y75049D01*
X82596Y75113D01*
X82624Y75143D01*
X82657Y75166D01*
X82733Y75258D01*
X82814Y75345D01*
X82834Y75380D01*
X82859Y75411D01*
X82910Y75519D01*
X82968Y75623D01*
X82978Y75663D01*
X82995Y75699D01*
X83017Y75816D01*
X83047Y75931D01*
X83051Y75991D01*
X83055Y76011D01*
X83053Y76032D01*
X83057Y76092D01*
X83057Y81378D01*
X83264Y81584D01*
X83282Y81608D01*
X83304Y81627D01*
X83379Y81733D01*
X83459Y81836D01*
X83470Y81863D01*
X83487Y81887D01*
X83533Y82008D01*
X83585Y82127D01*
X83589Y82157D01*
X83600Y82184D01*
X83614Y82313D01*
X83635Y82442D01*
X83632Y82471D01*
X83635Y82500D01*
X83617Y82629D01*
X83605Y82758D01*
X83595Y82786D01*
X83591Y82815D01*
X83539Y82968D01*
X82549Y85356D01*
X82549Y89904D01*
X84289Y94105D01*
X87505Y97321D01*
X91706Y99061D01*
X96254Y99061D01*
X100455Y97321D01*
X103671Y94105D01*
X105411Y89904D01*
X105411Y85356D01*
X103671Y81155D01*
X100455Y77939D01*
X96254Y76199D01*
X92890Y76199D01*
X92752Y76182D01*
X92613Y76169D01*
X92594Y76162D01*
X92574Y76159D01*
X92445Y76108D01*
X92314Y76061D01*
X92297Y76050D01*
X92278Y76042D01*
X92166Y75961D01*
X92051Y75883D01*
X92038Y75867D01*
X92021Y75856D01*
X91932Y75748D01*
X91840Y75644D01*
X91831Y75626D01*
X91818Y75611D01*
X91759Y75485D01*
X91696Y75361D01*
X91691Y75341D01*
X91683Y75323D01*
X91657Y75186D01*
X91626Y75051D01*
X91627Y75030D01*
X91623Y75011D01*
X91632Y74872D01*
X91636Y74733D01*
X91641Y74713D01*
X91643Y74693D01*
X91685Y74561D01*
X91724Y74427D01*
X91735Y74410D01*
X91741Y74391D01*
X91815Y74273D01*
X91886Y74153D01*
X91904Y74132D01*
X91911Y74122D01*
X91926Y74108D01*
X91992Y74033D01*
X92393Y73632D01*
X92393Y63364D01*
X92408Y63246D01*
X92415Y63127D01*
X92428Y63089D01*
X92433Y63048D01*
X92476Y62938D01*
X92513Y62825D01*
X92535Y62790D01*
X92550Y62753D01*
X92619Y62657D01*
X92683Y62556D01*
X92713Y62528D01*
X92736Y62495D01*
X92828Y62419D01*
X92915Y62338D01*
X92950Y62318D01*
X92981Y62293D01*
X93089Y62242D01*
X93193Y62184D01*
X93233Y62174D01*
X93269Y62157D01*
X93386Y62135D01*
X93501Y62105D01*
X93561Y62101D01*
X93581Y62097D01*
X93602Y62099D01*
X93662Y62095D01*
X95838Y62095D01*
X95956Y62110D01*
X96075Y62117D01*
X96113Y62130D01*
X96154Y62135D01*
X96264Y62178D01*
X96377Y62215D01*
X96412Y62237D01*
X96449Y62252D01*
X96545Y62321D01*
X96646Y62385D01*
X96674Y62415D01*
X96707Y62438D01*
X96783Y62530D01*
X96864Y62617D01*
X96884Y62652D01*
X96909Y62683D01*
X96960Y62791D01*
X97018Y62895D01*
X97028Y62935D01*
X97045Y62971D01*
X97067Y63088D01*
X97097Y63203D01*
X97101Y63263D01*
X97105Y63283D01*
X97103Y63304D01*
X97107Y63364D01*
X97107Y64372D01*
X98298Y65563D01*
X109982Y65563D01*
X110862Y64682D01*
X110956Y64609D01*
X111046Y64530D01*
X111082Y64512D01*
X111114Y64487D01*
X111223Y64440D01*
X111329Y64386D01*
X111368Y64377D01*
X111406Y64361D01*
X111523Y64342D01*
X111639Y64316D01*
X111680Y64317D01*
X111720Y64311D01*
X111838Y64322D01*
X111957Y64326D01*
X111996Y64337D01*
X112036Y64341D01*
X112149Y64381D01*
X112263Y64414D01*
X112297Y64435D01*
X112336Y64448D01*
X112434Y64515D01*
X112537Y64576D01*
X112582Y64616D01*
X112599Y64627D01*
X112612Y64642D01*
X112657Y64682D01*
X113538Y65563D01*
X125222Y65563D01*
X126413Y64372D01*
X126413Y63364D01*
X126428Y63246D01*
X126435Y63127D01*
X126448Y63089D01*
X126453Y63048D01*
X126496Y62938D01*
X126533Y62825D01*
X126555Y62790D01*
X126570Y62753D01*
X126639Y62657D01*
X126703Y62556D01*
X126733Y62528D01*
X126756Y62495D01*
X126848Y62419D01*
X126935Y62338D01*
X126970Y62318D01*
X127001Y62293D01*
X127109Y62242D01*
X127213Y62184D01*
X127253Y62174D01*
X127289Y62157D01*
X127406Y62135D01*
X127521Y62105D01*
X127581Y62101D01*
X127601Y62097D01*
X127622Y62099D01*
X127682Y62095D01*
X129858Y62095D01*
X129976Y62110D01*
X130095Y62117D01*
X130133Y62130D01*
X130174Y62135D01*
X130284Y62178D01*
X130397Y62215D01*
X130432Y62237D01*
X130469Y62252D01*
X130565Y62321D01*
X130666Y62385D01*
X130694Y62415D01*
X130727Y62438D01*
X130803Y62530D01*
X130884Y62617D01*
X130904Y62652D01*
X130929Y62683D01*
X130980Y62791D01*
X131038Y62895D01*
X131048Y62935D01*
X131065Y62971D01*
X131087Y63088D01*
X131117Y63203D01*
X131121Y63263D01*
X131125Y63283D01*
X131123Y63304D01*
X131127Y63364D01*
X131127Y73632D01*
X132318Y74823D01*
X132588Y74823D01*
X132706Y74838D01*
X132825Y74845D01*
X132863Y74858D01*
X132904Y74863D01*
X133014Y74906D01*
X133127Y74943D01*
X133162Y74965D01*
X133199Y74980D01*
X133295Y75049D01*
X133396Y75113D01*
X133424Y75143D01*
X133457Y75166D01*
X133533Y75258D01*
X133614Y75345D01*
X133634Y75380D01*
X133659Y75411D01*
X133710Y75519D01*
X133768Y75623D01*
X133778Y75663D01*
X133795Y75699D01*
X133817Y75816D01*
X133847Y75931D01*
X133851Y75991D01*
X133855Y76011D01*
X133853Y76032D01*
X133857Y76092D01*
X133857Y81378D01*
X134064Y81584D01*
X134082Y81608D01*
X134104Y81627D01*
X134179Y81733D01*
X134258Y81836D01*
X134270Y81863D01*
X134287Y81887D01*
X134333Y82008D01*
X134385Y82127D01*
X134389Y82157D01*
X134400Y82184D01*
X134414Y82313D01*
X134435Y82442D01*
X134432Y82471D01*
X134435Y82500D01*
X134417Y82629D01*
X134405Y82758D01*
X134395Y82786D01*
X134391Y82815D01*
X134339Y82968D01*
X133349Y85356D01*
X133349Y89904D01*
X135089Y94105D01*
X138305Y97321D01*
X142506Y99061D01*
X147054Y99061D01*
X151255Y97321D01*
X154471Y94105D01*
X156211Y89904D01*
X156211Y85356D01*
X154471Y81155D01*
X151255Y77939D01*
X147054Y76199D01*
X143690Y76199D01*
X143552Y76182D01*
X143413Y76169D01*
X143394Y76162D01*
X143374Y76159D01*
X143245Y76108D01*
X143114Y76061D01*
X143097Y76050D01*
X143078Y76042D01*
X142966Y75961D01*
X142851Y75883D01*
X142838Y75867D01*
X142821Y75856D01*
X142732Y75748D01*
X142640Y75644D01*
X142631Y75626D01*
X142618Y75611D01*
X142559Y75485D01*
X142496Y75361D01*
X142491Y75341D01*
X142483Y75323D01*
X142457Y75186D01*
X142426Y75051D01*
X142427Y75030D01*
X142423Y75011D01*
X142432Y74872D01*
X142436Y74733D01*
X142441Y74713D01*
X142443Y74693D01*
X142485Y74561D01*
X142524Y74427D01*
X142535Y74410D01*
X142541Y74391D01*
X142615Y74273D01*
X142686Y74153D01*
X142704Y74132D01*
X142711Y74122D01*
X142726Y74108D01*
X142792Y74033D01*
X143193Y73632D01*
X143193Y63364D01*
X143208Y63246D01*
X143215Y63127D01*
X143228Y63089D01*
X143233Y63048D01*
X143276Y62938D01*
X143313Y62825D01*
X143335Y62790D01*
X143350Y62753D01*
X143419Y62657D01*
X143483Y62556D01*
X143513Y62528D01*
X143536Y62495D01*
X143628Y62419D01*
X143715Y62338D01*
X143750Y62318D01*
X143781Y62293D01*
X143889Y62242D01*
X143993Y62184D01*
X144033Y62174D01*
X144069Y62157D01*
X144186Y62135D01*
X144301Y62105D01*
X144361Y62101D01*
X144381Y62097D01*
X144402Y62099D01*
X144462Y62095D01*
X146638Y62095D01*
X146756Y62110D01*
X146875Y62117D01*
X146913Y62130D01*
X146954Y62135D01*
X147064Y62178D01*
X147177Y62215D01*
X147212Y62237D01*
X147249Y62252D01*
X147345Y62321D01*
X147446Y62385D01*
X147474Y62415D01*
X147507Y62438D01*
X147583Y62530D01*
X147664Y62617D01*
X147684Y62652D01*
X147709Y62683D01*
X147760Y62791D01*
X147818Y62895D01*
X147828Y62935D01*
X147845Y62971D01*
X147867Y63088D01*
X147897Y63203D01*
X147901Y63263D01*
X147905Y63283D01*
X147903Y63304D01*
X147907Y63364D01*
X147907Y64372D01*
X149098Y65563D01*
X160782Y65563D01*
X161662Y64682D01*
X161756Y64609D01*
X161846Y64530D01*
X161882Y64512D01*
X161914Y64487D01*
X162023Y64440D01*
X162129Y64386D01*
X162168Y64377D01*
X162206Y64361D01*
X162323Y64342D01*
X162439Y64316D01*
X162480Y64317D01*
X162520Y64311D01*
X162638Y64322D01*
X162757Y64326D01*
X162796Y64337D01*
X162836Y64341D01*
X162949Y64381D01*
X163063Y64414D01*
X163097Y64435D01*
X163136Y64448D01*
X163234Y64515D01*
X163337Y64576D01*
X163382Y64616D01*
X163399Y64627D01*
X163412Y64642D01*
X163457Y64682D01*
X164338Y65563D01*
X176022Y65563D01*
X177213Y64372D01*
X177213Y63364D01*
X177228Y63246D01*
X177235Y63127D01*
X177248Y63089D01*
X177253Y63048D01*
X177296Y62938D01*
X177333Y62825D01*
X177355Y62790D01*
X177370Y62753D01*
X177439Y62657D01*
X177503Y62556D01*
X177533Y62528D01*
X177556Y62495D01*
X177648Y62419D01*
X177735Y62338D01*
X177770Y62318D01*
X177801Y62293D01*
X177909Y62242D01*
X178013Y62184D01*
X178053Y62174D01*
X178089Y62157D01*
X178206Y62135D01*
X178321Y62105D01*
X178381Y62101D01*
X178401Y62097D01*
X178422Y62099D01*
X178482Y62095D01*
X180658Y62095D01*
X180776Y62110D01*
X180895Y62117D01*
X180933Y62130D01*
X180974Y62135D01*
X181084Y62178D01*
X181197Y62215D01*
X181232Y62237D01*
X181269Y62252D01*
X181365Y62321D01*
X181466Y62385D01*
X181494Y62415D01*
X181527Y62438D01*
X181603Y62530D01*
X181684Y62617D01*
X181704Y62652D01*
X181729Y62683D01*
X181780Y62791D01*
X181838Y62895D01*
X181848Y62935D01*
X181865Y62971D01*
X181887Y63088D01*
X181917Y63203D01*
X181921Y63263D01*
X181925Y63283D01*
X181923Y63304D01*
X181927Y63364D01*
X181927Y73632D01*
X183118Y74823D01*
X183388Y74823D01*
X183506Y74838D01*
X183625Y74845D01*
X183663Y74858D01*
X183704Y74863D01*
X183814Y74906D01*
X183927Y74943D01*
X183962Y74965D01*
X183999Y74980D01*
X184095Y75049D01*
X184196Y75113D01*
X184224Y75143D01*
X184257Y75166D01*
X184333Y75258D01*
X184414Y75345D01*
X184434Y75380D01*
X184459Y75411D01*
X184510Y75519D01*
X184568Y75623D01*
X184578Y75663D01*
X184595Y75699D01*
X184617Y75816D01*
X184647Y75931D01*
X184651Y75991D01*
X184655Y76011D01*
X184653Y76032D01*
X184657Y76092D01*
X184657Y81378D01*
X184864Y81584D01*
X184882Y81608D01*
X184904Y81627D01*
X184979Y81733D01*
X185058Y81836D01*
X185070Y81863D01*
X185087Y81887D01*
X185133Y82008D01*
X185185Y82127D01*
X185189Y82157D01*
X185200Y82184D01*
X185214Y82313D01*
X185235Y82442D01*
X185232Y82471D01*
X185235Y82500D01*
X185217Y82629D01*
X185205Y82758D01*
X185195Y82786D01*
X185191Y82815D01*
X185139Y82968D01*
X184149Y85356D01*
X184149Y89904D01*
X185889Y94105D01*
X189105Y97321D01*
X193306Y99061D01*
X197854Y99061D01*
X202055Y97321D01*
X205271Y94105D01*
X207011Y89904D01*
X207011Y85356D01*
X205271Y81155D01*
X202055Y77939D01*
X197854Y76199D01*
X194490Y76199D01*
X194352Y76182D01*
X194213Y76169D01*
X194194Y76162D01*
X194174Y76159D01*
X194045Y76108D01*
X193914Y76061D01*
X193897Y76050D01*
X193878Y76042D01*
X193766Y75961D01*
X193651Y75883D01*
X193638Y75867D01*
X193621Y75856D01*
X193532Y75748D01*
X193440Y75644D01*
X193431Y75626D01*
X193418Y75611D01*
X193359Y75485D01*
X193296Y75361D01*
X193291Y75341D01*
X193283Y75323D01*
X193257Y75186D01*
X193226Y75051D01*
X193227Y75030D01*
X193223Y75011D01*
X193232Y74872D01*
X193236Y74733D01*
X193241Y74713D01*
X193243Y74693D01*
X193285Y74561D01*
X193324Y74427D01*
X193335Y74410D01*
X193341Y74391D01*
X193415Y74273D01*
X193486Y74153D01*
X193504Y74132D01*
X193511Y74122D01*
X193526Y74108D01*
X193592Y74033D01*
X193993Y73632D01*
X193993Y63364D01*
X194008Y63246D01*
X194015Y63127D01*
X194028Y63089D01*
X194033Y63048D01*
X194076Y62938D01*
X194113Y62825D01*
X194135Y62790D01*
X194150Y62753D01*
X194219Y62657D01*
X194283Y62556D01*
X194313Y62528D01*
X194336Y62495D01*
X194428Y62419D01*
X194515Y62338D01*
X194550Y62318D01*
X194581Y62293D01*
X194689Y62242D01*
X194793Y62184D01*
X194833Y62174D01*
X194869Y62157D01*
X194986Y62135D01*
X195101Y62105D01*
X195161Y62101D01*
X195181Y62097D01*
X195202Y62099D01*
X195262Y62095D01*
X197438Y62095D01*
X197556Y62110D01*
X197675Y62117D01*
X197713Y62130D01*
X197754Y62135D01*
X197864Y62178D01*
X197977Y62215D01*
X198012Y62237D01*
X198049Y62252D01*
X198145Y62321D01*
X198246Y62385D01*
X198274Y62415D01*
X198307Y62438D01*
X198383Y62530D01*
X198464Y62617D01*
X198484Y62652D01*
X198509Y62683D01*
X198560Y62791D01*
X198618Y62895D01*
X198628Y62935D01*
X198645Y62971D01*
X198667Y63088D01*
X198697Y63203D01*
X198701Y63263D01*
X198705Y63283D01*
X198703Y63304D01*
X198707Y63364D01*
X198707Y64372D01*
X199898Y65563D01*
X211582Y65563D01*
X212462Y64682D01*
X212556Y64609D01*
X212646Y64530D01*
X212682Y64512D01*
X212714Y64487D01*
X212823Y64440D01*
X212929Y64386D01*
X212968Y64377D01*
X213006Y64361D01*
X213123Y64342D01*
X213239Y64316D01*
X213280Y64317D01*
X213320Y64311D01*
X213438Y64322D01*
X213557Y64326D01*
X213596Y64337D01*
X213636Y64341D01*
X213749Y64381D01*
X213863Y64414D01*
X213897Y64435D01*
X213936Y64448D01*
X214034Y64515D01*
X214137Y64576D01*
X214182Y64616D01*
X214199Y64627D01*
X214212Y64642D01*
X214257Y64682D01*
X215138Y65563D01*
X226822Y65563D01*
X228013Y64372D01*
X228013Y63364D01*
X228028Y63246D01*
X228035Y63127D01*
X228048Y63089D01*
X228053Y63048D01*
X228096Y62938D01*
X228133Y62825D01*
X228155Y62790D01*
X228170Y62753D01*
X228239Y62657D01*
X228303Y62556D01*
X228333Y62528D01*
X228356Y62495D01*
X228448Y62419D01*
X228535Y62338D01*
X228570Y62318D01*
X228601Y62293D01*
X228709Y62242D01*
X228813Y62184D01*
X228853Y62174D01*
X228889Y62157D01*
X229006Y62135D01*
X229121Y62105D01*
X229181Y62101D01*
X229201Y62097D01*
X229222Y62099D01*
X229282Y62095D01*
X231458Y62095D01*
X231576Y62110D01*
X231695Y62117D01*
X231733Y62130D01*
X231774Y62135D01*
X231884Y62178D01*
X231997Y62215D01*
X232032Y62237D01*
X232069Y62252D01*
X232165Y62321D01*
X232266Y62385D01*
X232294Y62415D01*
X232327Y62438D01*
X232403Y62530D01*
X232484Y62617D01*
X232504Y62652D01*
X232529Y62683D01*
X232580Y62791D01*
X232638Y62895D01*
X232648Y62935D01*
X232665Y62971D01*
X232687Y63088D01*
X232717Y63203D01*
X232721Y63263D01*
X232725Y63283D01*
X232723Y63304D01*
X232727Y63364D01*
X232727Y73632D01*
X233918Y74823D01*
X234188Y74823D01*
X234306Y74838D01*
X234425Y74845D01*
X234463Y74858D01*
X234504Y74863D01*
X234614Y74906D01*
X234727Y74943D01*
X234762Y74965D01*
X234799Y74980D01*
X234895Y75049D01*
X234996Y75113D01*
X235024Y75143D01*
X235057Y75166D01*
X235133Y75258D01*
X235214Y75345D01*
X235234Y75380D01*
X235259Y75411D01*
X235310Y75519D01*
X235368Y75623D01*
X235378Y75663D01*
X235395Y75699D01*
X235417Y75816D01*
X235447Y75931D01*
X235451Y75991D01*
X235455Y76011D01*
X235453Y76032D01*
X235457Y76092D01*
X235457Y81378D01*
X235664Y81584D01*
X235682Y81608D01*
X235704Y81627D01*
X235779Y81733D01*
X235858Y81836D01*
X235870Y81863D01*
X235887Y81887D01*
X235933Y82008D01*
X235985Y82127D01*
X235989Y82157D01*
X236000Y82184D01*
X236014Y82313D01*
X236035Y82442D01*
X236032Y82471D01*
X236035Y82500D01*
X236017Y82629D01*
X236005Y82758D01*
X235995Y82786D01*
X235991Y82815D01*
X235939Y82968D01*
X234949Y85356D01*
X234949Y89904D01*
X236689Y94105D01*
X239905Y97321D01*
X244106Y99061D01*
X248654Y99061D01*
X252855Y97321D01*
X256071Y94105D01*
X257811Y89904D01*
X257811Y85356D01*
X256071Y81155D01*
X252855Y77939D01*
X248654Y76199D01*
X245290Y76199D01*
X245152Y76182D01*
X245013Y76169D01*
X244994Y76162D01*
X244974Y76159D01*
X244845Y76108D01*
X244714Y76061D01*
X244697Y76050D01*
X244678Y76042D01*
X244566Y75961D01*
X244451Y75883D01*
X244438Y75867D01*
X244421Y75856D01*
X244332Y75748D01*
X244240Y75644D01*
X244231Y75626D01*
X244218Y75611D01*
X244159Y75485D01*
X244096Y75361D01*
X244091Y75341D01*
X244083Y75323D01*
X244057Y75186D01*
X244026Y75051D01*
X244027Y75030D01*
X244023Y75011D01*
X244032Y74872D01*
X244036Y74733D01*
X244041Y74713D01*
X244043Y74693D01*
X244085Y74561D01*
X244124Y74427D01*
X244135Y74410D01*
X244141Y74391D01*
X244215Y74273D01*
X244286Y74153D01*
X244304Y74132D01*
X244311Y74122D01*
X244326Y74108D01*
X244392Y74033D01*
X244793Y73632D01*
X244793Y63364D01*
X244808Y63246D01*
X244815Y63127D01*
X244828Y63089D01*
X244833Y63048D01*
X244876Y62938D01*
X244913Y62825D01*
X244935Y62790D01*
X244950Y62753D01*
X245019Y62657D01*
X245083Y62556D01*
X245113Y62528D01*
X245136Y62495D01*
X245228Y62419D01*
X245315Y62338D01*
X245350Y62318D01*
X245381Y62293D01*
X245489Y62242D01*
X245593Y62184D01*
X245633Y62174D01*
X245669Y62157D01*
X245786Y62135D01*
X245901Y62105D01*
X245961Y62101D01*
X245981Y62097D01*
X246002Y62099D01*
X246062Y62095D01*
X248238Y62095D01*
X248356Y62110D01*
X248475Y62117D01*
X248513Y62130D01*
X248554Y62135D01*
X248664Y62178D01*
X248777Y62215D01*
X248812Y62237D01*
X248849Y62252D01*
X248945Y62321D01*
X249046Y62385D01*
X249074Y62415D01*
X249107Y62438D01*
X249183Y62530D01*
X249264Y62617D01*
X249284Y62652D01*
X249309Y62683D01*
X249360Y62791D01*
X249418Y62895D01*
X249428Y62935D01*
X249445Y62971D01*
X249467Y63088D01*
X249497Y63203D01*
X249501Y63263D01*
X249505Y63283D01*
X249503Y63304D01*
X249507Y63364D01*
X249507Y64372D01*
X250698Y65563D01*
X262382Y65563D01*
X263262Y64682D01*
X263356Y64609D01*
X263446Y64530D01*
X263482Y64512D01*
X263514Y64487D01*
X263623Y64440D01*
X263729Y64386D01*
X263768Y64377D01*
X263806Y64361D01*
X263923Y64342D01*
X264039Y64316D01*
X264080Y64317D01*
X264120Y64311D01*
X264238Y64322D01*
X264357Y64326D01*
X264396Y64337D01*
X264436Y64341D01*
X264549Y64381D01*
X264663Y64414D01*
X264697Y64435D01*
X264736Y64448D01*
X264834Y64515D01*
X264937Y64576D01*
X264982Y64616D01*
X264999Y64627D01*
X265012Y64642D01*
X265057Y64682D01*
X265938Y65563D01*
X277622Y65563D01*
X278813Y64372D01*
X278813Y63364D01*
X278828Y63246D01*
X278835Y63127D01*
X278848Y63089D01*
X278853Y63048D01*
X278896Y62938D01*
X278933Y62825D01*
X278955Y62790D01*
X278970Y62753D01*
X279039Y62657D01*
X279103Y62556D01*
X279133Y62528D01*
X279156Y62495D01*
X279248Y62419D01*
X279335Y62338D01*
X279370Y62318D01*
X279401Y62293D01*
X279509Y62242D01*
X279613Y62184D01*
X279653Y62174D01*
X279689Y62157D01*
X279806Y62135D01*
X279921Y62105D01*
X279981Y62101D01*
X280001Y62097D01*
X280022Y62099D01*
X280082Y62095D01*
X282258Y62095D01*
X282376Y62110D01*
X282495Y62117D01*
X282533Y62130D01*
X282574Y62135D01*
X282684Y62178D01*
X282797Y62215D01*
X282832Y62237D01*
X282869Y62252D01*
X282965Y62321D01*
X283066Y62385D01*
X283094Y62415D01*
X283127Y62438D01*
X283203Y62530D01*
X283284Y62617D01*
X283304Y62652D01*
X283329Y62683D01*
X283380Y62791D01*
X283438Y62895D01*
X283448Y62935D01*
X283465Y62971D01*
X283487Y63088D01*
X283517Y63203D01*
X283521Y63263D01*
X283525Y63283D01*
X283523Y63304D01*
X283527Y63364D01*
X283527Y73632D01*
X284718Y74823D01*
X291849Y74823D01*
X291918Y74831D01*
X291988Y74830D01*
X292075Y74851D01*
X292164Y74863D01*
X292229Y74888D01*
X292297Y74905D01*
X292376Y74947D01*
X292460Y74980D01*
X292516Y75021D01*
X292578Y75053D01*
X292645Y75114D01*
X292717Y75166D01*
X292762Y75220D01*
X292813Y75267D01*
X292863Y75342D01*
X292920Y75411D01*
X292950Y75475D01*
X292988Y75533D01*
X293017Y75618D01*
X293056Y75699D01*
X293069Y75768D01*
X293091Y75834D01*
X293098Y75923D01*
X293115Y76011D01*
X293111Y76081D01*
X293117Y76151D01*
X293101Y76239D01*
X293096Y76329D01*
X293074Y76395D01*
X293062Y76464D01*
X293025Y76546D01*
X292998Y76631D01*
X292960Y76690D01*
X292932Y76754D01*
X292875Y76824D01*
X292827Y76900D01*
X292777Y76948D01*
X292733Y77002D01*
X292661Y77057D01*
X292596Y77118D01*
X292535Y77152D01*
X292479Y77194D01*
X292334Y77265D01*
X290705Y77939D01*
X287489Y81155D01*
X285749Y85356D01*
X285749Y89904D01*
X287489Y94105D01*
X290705Y97321D01*
X294906Y99061D01*
X299454Y99061D01*
X303655Y97321D01*
X306871Y94105D01*
X308611Y89904D01*
X308611Y85356D01*
X306871Y81155D01*
X303655Y77939D01*
X301266Y76950D01*
X301241Y76935D01*
X301213Y76926D01*
X301103Y76857D01*
X300990Y76793D01*
X300969Y76772D01*
X300944Y76756D01*
X300855Y76662D01*
X300762Y76571D01*
X300746Y76546D01*
X300726Y76525D01*
X300663Y76411D01*
X300595Y76300D01*
X300587Y76272D01*
X300572Y76246D01*
X300540Y76120D01*
X300502Y75996D01*
X300500Y75967D01*
X300493Y75938D01*
X300483Y75777D01*
X300483Y72292D01*
X295964Y67774D01*
X295904Y67695D01*
X295836Y67623D01*
X295807Y67570D01*
X295770Y67522D01*
X295730Y67431D01*
X295682Y67345D01*
X295667Y67286D01*
X295643Y67231D01*
X295628Y67133D01*
X295603Y67037D01*
X295597Y66937D01*
X295593Y66916D01*
X295595Y66904D01*
X295593Y66876D01*
X295593Y63364D01*
X295608Y63246D01*
X295615Y63127D01*
X295628Y63089D01*
X295633Y63048D01*
X295676Y62938D01*
X295713Y62825D01*
X295735Y62790D01*
X295750Y62753D01*
X295819Y62657D01*
X295883Y62556D01*
X295913Y62528D01*
X295936Y62495D01*
X296028Y62419D01*
X296115Y62338D01*
X296150Y62318D01*
X296181Y62293D01*
X296289Y62242D01*
X296393Y62184D01*
X296433Y62174D01*
X296469Y62157D01*
X296586Y62135D01*
X296701Y62105D01*
X296761Y62101D01*
X296781Y62097D01*
X296802Y62099D01*
X296862Y62095D01*
X299038Y62095D01*
X299156Y62110D01*
X299275Y62117D01*
X299313Y62130D01*
X299354Y62135D01*
X299464Y62178D01*
X299577Y62215D01*
X299612Y62237D01*
X299649Y62252D01*
X299745Y62321D01*
X299846Y62385D01*
X299874Y62415D01*
X299907Y62438D01*
X299983Y62530D01*
X300064Y62617D01*
X300084Y62652D01*
X300109Y62683D01*
X300160Y62791D01*
X300218Y62895D01*
X300228Y62935D01*
X300245Y62971D01*
X300267Y63088D01*
X300297Y63203D01*
X300301Y63263D01*
X300305Y63283D01*
X300303Y63304D01*
X300307Y63364D01*
X300307Y64372D01*
X301498Y65563D01*
X313182Y65563D01*
X314062Y64682D01*
X314156Y64609D01*
X314246Y64530D01*
X314282Y64512D01*
X314314Y64487D01*
X314423Y64440D01*
X314529Y64386D01*
X314568Y64377D01*
X314606Y64361D01*
X314723Y64342D01*
X314839Y64316D01*
X314880Y64317D01*
X314920Y64311D01*
X315038Y64322D01*
X315157Y64326D01*
X315196Y64337D01*
X315236Y64341D01*
X315349Y64381D01*
X315463Y64414D01*
X315497Y64435D01*
X315536Y64448D01*
X315634Y64515D01*
X315737Y64576D01*
X315782Y64616D01*
X315799Y64627D01*
X315812Y64642D01*
X315857Y64682D01*
X316738Y65563D01*
X328422Y65563D01*
X329613Y64372D01*
X329613Y63364D01*
X329628Y63246D01*
X329635Y63127D01*
X329648Y63089D01*
X329653Y63048D01*
X329696Y62938D01*
X329733Y62825D01*
X329755Y62790D01*
X329770Y62753D01*
X329839Y62657D01*
X329903Y62556D01*
X329933Y62528D01*
X329956Y62495D01*
X330048Y62419D01*
X330135Y62338D01*
X330170Y62318D01*
X330201Y62293D01*
X330309Y62242D01*
X330413Y62184D01*
X330453Y62174D01*
X330489Y62157D01*
X330606Y62135D01*
X330721Y62105D01*
X330781Y62101D01*
X330801Y62097D01*
X330822Y62099D01*
X330882Y62095D01*
X333058Y62095D01*
X333176Y62110D01*
X333295Y62117D01*
X333333Y62130D01*
X333374Y62135D01*
X333484Y62178D01*
X333597Y62215D01*
X333632Y62237D01*
X333669Y62252D01*
X333765Y62321D01*
X333866Y62385D01*
X333894Y62415D01*
X333927Y62438D01*
X334003Y62530D01*
X334084Y62617D01*
X334104Y62652D01*
X334129Y62683D01*
X334180Y62791D01*
X334238Y62895D01*
X334248Y62935D01*
X334265Y62971D01*
X334287Y63088D01*
X334317Y63203D01*
X334321Y63263D01*
X334325Y63283D01*
X334323Y63304D01*
X334327Y63364D01*
X334327Y73632D01*
X335518Y74823D01*
X342649Y74823D01*
X342718Y74831D01*
X342788Y74830D01*
X342875Y74851D01*
X342964Y74863D01*
X343029Y74888D01*
X343097Y74905D01*
X343176Y74947D01*
X343260Y74980D01*
X343316Y75021D01*
X343378Y75053D01*
X343445Y75114D01*
X343517Y75166D01*
X343562Y75220D01*
X343613Y75267D01*
X343663Y75342D01*
X343720Y75411D01*
X343750Y75475D01*
X343788Y75533D01*
X343817Y75618D01*
X343856Y75699D01*
X343869Y75768D01*
X343891Y75834D01*
X343898Y75923D01*
X343915Y76011D01*
X343911Y76081D01*
X343917Y76151D01*
X343901Y76239D01*
X343896Y76329D01*
X343874Y76395D01*
X343862Y76464D01*
X343825Y76546D01*
X343798Y76631D01*
X343760Y76690D01*
X343732Y76754D01*
X343675Y76824D01*
X343627Y76900D01*
X343577Y76948D01*
X343533Y77002D01*
X343461Y77057D01*
X343396Y77118D01*
X343335Y77152D01*
X343279Y77194D01*
X343134Y77265D01*
X341505Y77939D01*
X338289Y81155D01*
X336549Y85356D01*
X336549Y89904D01*
X338289Y94105D01*
X341505Y97321D01*
X345706Y99061D01*
X350254Y99061D01*
X354455Y97321D01*
X357671Y94105D01*
X359411Y89904D01*
X359411Y85356D01*
X357671Y81155D01*
X354455Y77939D01*
X352066Y76950D01*
X352041Y76935D01*
X352013Y76926D01*
X351903Y76857D01*
X351790Y76793D01*
X351769Y76772D01*
X351744Y76756D01*
X351655Y76662D01*
X351562Y76571D01*
X351546Y76546D01*
X351526Y76525D01*
X351463Y76411D01*
X351395Y76300D01*
X351387Y76272D01*
X351372Y76246D01*
X351340Y76120D01*
X351302Y75996D01*
X351300Y75967D01*
X351293Y75938D01*
X351283Y75777D01*
X351283Y72292D01*
X346764Y67774D01*
X346704Y67695D01*
X346636Y67623D01*
X346607Y67570D01*
X346570Y67522D01*
X346530Y67431D01*
X346482Y67345D01*
X346467Y67286D01*
X346443Y67231D01*
X346428Y67133D01*
X346403Y67037D01*
X346397Y66937D01*
X346393Y66916D01*
X346395Y66904D01*
X346393Y66876D01*
X346393Y63364D01*
X346408Y63246D01*
X346415Y63127D01*
X346428Y63089D01*
X346433Y63048D01*
X346476Y62938D01*
X346513Y62825D01*
X346535Y62790D01*
X346550Y62753D01*
X346619Y62657D01*
X346683Y62556D01*
X346713Y62528D01*
X346736Y62495D01*
X346828Y62419D01*
X346915Y62338D01*
X346950Y62318D01*
X346981Y62293D01*
X347089Y62242D01*
X347193Y62184D01*
X347233Y62174D01*
X347269Y62157D01*
X347386Y62135D01*
X347501Y62105D01*
X347561Y62101D01*
X347581Y62097D01*
X347602Y62099D01*
X347662Y62095D01*
X349838Y62095D01*
X349956Y62110D01*
X350075Y62117D01*
X350113Y62130D01*
X350154Y62135D01*
X350264Y62178D01*
X350377Y62215D01*
X350412Y62237D01*
X350449Y62252D01*
X350545Y62321D01*
X350646Y62385D01*
X350674Y62415D01*
X350707Y62438D01*
X350783Y62530D01*
X350864Y62617D01*
X350884Y62652D01*
X350909Y62683D01*
X350960Y62791D01*
X351018Y62895D01*
X351028Y62935D01*
X351045Y62971D01*
X351067Y63088D01*
X351097Y63203D01*
X351101Y63263D01*
X351105Y63283D01*
X351103Y63304D01*
X351107Y63364D01*
X351107Y64372D01*
X352298Y65563D01*
X363982Y65563D01*
X364862Y64682D01*
X364956Y64609D01*
X365046Y64530D01*
X365082Y64512D01*
X365114Y64487D01*
X365223Y64440D01*
X365329Y64386D01*
X365368Y64377D01*
X365406Y64361D01*
X365523Y64342D01*
X365639Y64316D01*
X365680Y64317D01*
X365720Y64311D01*
X365838Y64322D01*
X365957Y64326D01*
X365996Y64337D01*
X366036Y64341D01*
X366149Y64381D01*
X366263Y64414D01*
X366297Y64435D01*
X366336Y64448D01*
X366434Y64515D01*
X366537Y64576D01*
X366582Y64616D01*
X366599Y64627D01*
X366612Y64642D01*
X366657Y64682D01*
X367538Y65563D01*
X379222Y65563D01*
X380413Y64372D01*
X380413Y63364D01*
X380428Y63246D01*
X380435Y63127D01*
X380448Y63089D01*
X380453Y63048D01*
X380496Y62938D01*
X380533Y62825D01*
X380555Y62790D01*
X380570Y62753D01*
X380639Y62657D01*
X380703Y62556D01*
X380733Y62528D01*
X380756Y62495D01*
X380848Y62419D01*
X380935Y62338D01*
X380970Y62318D01*
X381001Y62293D01*
X381109Y62242D01*
X381213Y62184D01*
X381253Y62174D01*
X381289Y62157D01*
X381406Y62135D01*
X381521Y62105D01*
X381581Y62101D01*
X381601Y62097D01*
X381622Y62099D01*
X381682Y62095D01*
X383858Y62095D01*
X383976Y62110D01*
X384095Y62117D01*
X384133Y62130D01*
X384174Y62135D01*
X384284Y62178D01*
X384397Y62215D01*
X384432Y62237D01*
X384469Y62252D01*
X384565Y62321D01*
X384666Y62385D01*
X384694Y62415D01*
X384727Y62438D01*
X384803Y62530D01*
X384884Y62617D01*
X384904Y62652D01*
X384929Y62683D01*
X384980Y62791D01*
X385038Y62895D01*
X385048Y62935D01*
X385065Y62971D01*
X385087Y63088D01*
X385117Y63203D01*
X385121Y63263D01*
X385125Y63283D01*
X385123Y63304D01*
X385127Y63364D01*
X385127Y73632D01*
X386318Y74823D01*
X386588Y74823D01*
X386706Y74838D01*
X386825Y74845D01*
X386863Y74858D01*
X386904Y74863D01*
X387014Y74906D01*
X387127Y74943D01*
X387162Y74965D01*
X387199Y74980D01*
X387295Y75049D01*
X387396Y75113D01*
X387424Y75143D01*
X387457Y75166D01*
X387533Y75258D01*
X387614Y75345D01*
X387634Y75380D01*
X387659Y75411D01*
X387710Y75519D01*
X387768Y75623D01*
X387778Y75663D01*
X387795Y75699D01*
X387817Y75816D01*
X387847Y75931D01*
X387851Y75991D01*
X387855Y76011D01*
X387853Y76032D01*
X387857Y76092D01*
X387857Y81378D01*
X388064Y81584D01*
X388082Y81608D01*
X388104Y81627D01*
X388179Y81733D01*
X388259Y81836D01*
X388270Y81863D01*
X388287Y81887D01*
X388333Y82008D01*
X388385Y82127D01*
X388389Y82157D01*
X388400Y82184D01*
X388414Y82313D01*
X388435Y82442D01*
X388432Y82471D01*
X388435Y82500D01*
X388417Y82629D01*
X388405Y82758D01*
X388395Y82786D01*
X388391Y82815D01*
X388339Y82968D01*
X387349Y85356D01*
X387349Y89904D01*
X389089Y94105D01*
X392333Y97348D01*
X392380Y97382D01*
X392458Y97427D01*
X392508Y97475D01*
X392564Y97516D01*
X392622Y97586D01*
X392686Y97648D01*
X392723Y97708D01*
X392767Y97761D01*
X392806Y97843D01*
X392852Y97919D01*
X392873Y97986D01*
X392903Y98049D01*
X392920Y98137D01*
X392946Y98223D01*
X392949Y98293D01*
X392963Y98362D01*
X392957Y98451D01*
X392961Y98541D01*
X392947Y98609D01*
X392943Y98679D01*
X392915Y98764D01*
X392897Y98852D01*
X392866Y98915D01*
X392845Y98981D01*
X392797Y99057D01*
X392757Y99138D01*
X392712Y99191D01*
X392675Y99250D01*
X392609Y99312D01*
X392551Y99380D01*
X392494Y99420D01*
X392443Y99468D01*
X392364Y99511D01*
X392291Y99563D01*
X392226Y99588D01*
X392165Y99622D01*
X392078Y99644D01*
X391994Y99676D01*
X391924Y99684D01*
X391857Y99701D01*
X391696Y99711D01*
X381733Y99711D01*
X378980Y102464D01*
X375909Y105536D01*
X375830Y105596D01*
X375758Y105664D01*
X375705Y105693D01*
X375657Y105730D01*
X375566Y105770D01*
X375480Y105818D01*
X375421Y105833D01*
X375366Y105857D01*
X375268Y105872D01*
X375172Y105897D01*
X375072Y105903D01*
X375052Y105907D01*
X375039Y105905D01*
X375011Y105907D01*
X367116Y105907D01*
X367108Y105911D01*
X367060Y105948D01*
X366970Y105988D01*
X366883Y106036D01*
X366824Y106051D01*
X366769Y106075D01*
X366671Y106090D01*
X366575Y106115D01*
X366475Y106121D01*
X366455Y106125D01*
X366442Y106123D01*
X366414Y106125D01*
X338316Y106125D01*
X337506Y106936D01*
X337428Y106996D01*
X337356Y107064D01*
X337303Y107093D01*
X337255Y107130D01*
X337164Y107170D01*
X337077Y107218D01*
X337019Y107233D01*
X336963Y107257D01*
X336865Y107272D01*
X336769Y107297D01*
X336669Y107303D01*
X336649Y107307D01*
X336637Y107305D01*
X336609Y107307D01*
X326008Y107307D01*
X325024Y108292D01*
X324924Y108369D01*
X324829Y108451D01*
X324799Y108466D01*
X324772Y108487D01*
X324657Y108537D01*
X324544Y108593D01*
X324511Y108600D01*
X324480Y108613D01*
X324356Y108633D01*
X324233Y108659D01*
X324200Y108658D01*
X324166Y108663D01*
X324041Y108651D01*
X323916Y108646D01*
X323883Y108636D01*
X323850Y108633D01*
X323731Y108591D01*
X323611Y108554D01*
X323582Y108537D01*
X323550Y108526D01*
X323446Y108455D01*
X323339Y108390D01*
X323315Y108366D01*
X323287Y108347D01*
X323204Y108253D01*
X323116Y108163D01*
X323089Y108122D01*
X323077Y108109D01*
X323067Y108089D01*
X323027Y108029D01*
X322883Y107780D01*
X322410Y107307D01*
X321831Y106972D01*
X321184Y106799D01*
X316889Y106799D01*
X316889Y115570D01*
X316874Y115688D01*
X316867Y115807D01*
X316854Y115845D01*
X316849Y115885D01*
X316805Y115996D01*
X316769Y116109D01*
X316747Y116144D01*
X316732Y116181D01*
X316662Y116277D01*
X316599Y116378D01*
X316569Y116406D01*
X316545Y116438D01*
X316454Y116514D01*
X316367Y116596D01*
X316332Y116615D01*
X316300Y116641D01*
X316193Y116692D01*
X316089Y116749D01*
X316049Y116760D01*
X316013Y116777D01*
X315896Y116799D01*
X315781Y116829D01*
X315720Y116833D01*
X315700Y116837D01*
X315680Y116835D01*
X315620Y116839D01*
X314349Y116839D01*
X314349Y118110D01*
X314334Y118228D01*
X314327Y118347D01*
X314314Y118385D01*
X314309Y118425D01*
X314265Y118536D01*
X314229Y118649D01*
X314207Y118684D01*
X314192Y118721D01*
X314122Y118817D01*
X314059Y118918D01*
X314029Y118946D01*
X314005Y118978D01*
X313914Y119054D01*
X313827Y119136D01*
X313792Y119155D01*
X313760Y119181D01*
X313653Y119232D01*
X313549Y119289D01*
X313509Y119300D01*
X313473Y119317D01*
X313356Y119339D01*
X313241Y119369D01*
X313180Y119373D01*
X313160Y119377D01*
X313140Y119375D01*
X313080Y119379D01*
X305309Y119379D01*
X305309Y122546D01*
X305294Y122664D01*
X305287Y122783D01*
X305274Y122821D01*
X305269Y122862D01*
X305226Y122972D01*
X305189Y123085D01*
X305167Y123120D01*
X305152Y123157D01*
X305083Y123253D01*
X305019Y123354D01*
X304989Y123382D01*
X304966Y123415D01*
X304874Y123491D01*
X304787Y123572D01*
X304752Y123592D01*
X304721Y123617D01*
X304613Y123668D01*
X304509Y123726D01*
X304469Y123736D01*
X304433Y123753D01*
X304316Y123775D01*
X304201Y123805D01*
X304141Y123809D01*
X304121Y123813D01*
X304100Y123811D01*
X304040Y123815D01*
X269922Y123815D01*
X269804Y123800D01*
X269685Y123793D01*
X269647Y123780D01*
X269606Y123775D01*
X269496Y123732D01*
X269383Y123695D01*
X269348Y123673D01*
X269311Y123658D01*
X269215Y123589D01*
X269114Y123525D01*
X269086Y123495D01*
X269053Y123472D01*
X268977Y123380D01*
X268896Y123293D01*
X268876Y123258D01*
X268851Y123227D01*
X268800Y123119D01*
X268742Y123015D01*
X268732Y122975D01*
X268715Y122939D01*
X268693Y122822D01*
X268663Y122707D01*
X268659Y122647D01*
X268655Y122627D01*
X268657Y122606D01*
X268653Y122546D01*
X268653Y121538D01*
X267668Y120554D01*
X267591Y120454D01*
X267509Y120359D01*
X267494Y120329D01*
X267473Y120302D01*
X267423Y120187D01*
X267367Y120074D01*
X267360Y120041D01*
X267347Y120010D01*
X267327Y119886D01*
X267301Y119763D01*
X267302Y119730D01*
X267297Y119696D01*
X267309Y119571D01*
X267314Y119446D01*
X267324Y119413D01*
X267327Y119380D01*
X267369Y119261D01*
X267406Y119141D01*
X267423Y119112D01*
X267434Y119080D01*
X267505Y118976D01*
X267570Y118869D01*
X267594Y118845D01*
X267613Y118817D01*
X267707Y118734D01*
X267797Y118646D01*
X267838Y118619D01*
X267851Y118607D01*
X267871Y118597D01*
X267931Y118557D01*
X268180Y118413D01*
X268653Y117940D01*
X268988Y117361D01*
X269161Y116714D01*
X269161Y113379D01*
X262850Y113379D01*
X262732Y113364D01*
X262613Y113357D01*
X262575Y113344D01*
X262535Y113339D01*
X262424Y113296D01*
X262311Y113259D01*
X262277Y113237D01*
X262239Y113222D01*
X262143Y113153D01*
X262042Y113089D01*
X262014Y113059D01*
X261982Y113036D01*
X261906Y112944D01*
X261824Y112857D01*
X261805Y112822D01*
X261779Y112791D01*
X261728Y112683D01*
X261671Y112579D01*
X261661Y112539D01*
X261643Y112503D01*
X261623Y112396D01*
X261619Y112426D01*
X261575Y112536D01*
X261539Y112649D01*
X261517Y112684D01*
X261502Y112721D01*
X261432Y112817D01*
X261369Y112918D01*
X261339Y112946D01*
X261315Y112979D01*
X261224Y113055D01*
X261137Y113136D01*
X261102Y113156D01*
X261070Y113181D01*
X260963Y113232D01*
X260858Y113290D01*
X260819Y113300D01*
X260783Y113317D01*
X260666Y113339D01*
X260550Y113369D01*
X260490Y113373D01*
X260470Y113377D01*
X260450Y113375D01*
X260390Y113379D01*
X254079Y113379D01*
X254079Y116714D01*
X254252Y117361D01*
X254587Y117940D01*
X255060Y118413D01*
X255309Y118557D01*
X255409Y118633D01*
X255513Y118703D01*
X255535Y118729D01*
X255562Y118749D01*
X255640Y118848D01*
X255724Y118942D01*
X255739Y118972D01*
X255760Y118998D01*
X255811Y119113D01*
X255868Y119225D01*
X255876Y119258D01*
X255889Y119289D01*
X255910Y119413D01*
X255938Y119535D01*
X255937Y119569D01*
X255942Y119602D01*
X255932Y119728D01*
X255928Y119853D01*
X255919Y119886D01*
X255916Y119919D01*
X255875Y120038D01*
X255840Y120159D01*
X255823Y120188D01*
X255812Y120220D01*
X255742Y120324D01*
X255678Y120433D01*
X255646Y120469D01*
X255636Y120485D01*
X255620Y120499D01*
X255572Y120554D01*
X254587Y121538D01*
X254587Y123546D01*
X254572Y123664D01*
X254565Y123783D01*
X254552Y123821D01*
X254547Y123862D01*
X254504Y123972D01*
X254467Y124085D01*
X254445Y124120D01*
X254430Y124157D01*
X254361Y124253D01*
X254297Y124354D01*
X254267Y124382D01*
X254244Y124415D01*
X254152Y124491D01*
X254065Y124572D01*
X254030Y124592D01*
X253999Y124617D01*
X253891Y124668D01*
X253787Y124726D01*
X253747Y124736D01*
X253711Y124753D01*
X253594Y124775D01*
X253479Y124805D01*
X253419Y124809D01*
X253399Y124813D01*
X253378Y124811D01*
X253318Y124815D01*
X223017Y124815D01*
X222919Y124803D01*
X222820Y124800D01*
X222761Y124783D01*
X222701Y124775D01*
X222609Y124739D01*
X222514Y124711D01*
X222462Y124681D01*
X222406Y124658D01*
X222325Y124600D01*
X222240Y124550D01*
X222165Y124484D01*
X222148Y124472D01*
X222140Y124462D01*
X222119Y124444D01*
X221773Y124097D01*
X208089Y124097D01*
X206898Y125288D01*
X206898Y126532D01*
X206881Y126670D01*
X206868Y126808D01*
X206861Y126827D01*
X206858Y126848D01*
X206807Y126977D01*
X206760Y127108D01*
X206749Y127125D01*
X206741Y127143D01*
X206660Y127256D01*
X206582Y127371D01*
X206566Y127384D01*
X206555Y127401D01*
X206447Y127489D01*
X206343Y127581D01*
X206325Y127590D01*
X206310Y127603D01*
X206184Y127663D01*
X206060Y127726D01*
X206040Y127730D01*
X206022Y127739D01*
X205885Y127765D01*
X205750Y127796D01*
X205729Y127795D01*
X205710Y127799D01*
X205571Y127790D01*
X205432Y127786D01*
X205412Y127780D01*
X205392Y127779D01*
X205260Y127736D01*
X205126Y127697D01*
X205109Y127687D01*
X205090Y127681D01*
X204972Y127606D01*
X204852Y127536D01*
X204831Y127517D01*
X204821Y127511D01*
X204807Y127496D01*
X204732Y127430D01*
X203429Y126127D01*
X203369Y126049D01*
X203301Y125977D01*
X203272Y125924D01*
X203235Y125876D01*
X203195Y125785D01*
X203147Y125699D01*
X203132Y125640D01*
X203108Y125584D01*
X203093Y125486D01*
X203068Y125391D01*
X203062Y125291D01*
X203058Y125270D01*
X203060Y125258D01*
X203058Y125230D01*
X203058Y113263D01*
X198296Y108501D01*
X198231Y108501D01*
X198113Y108486D01*
X197994Y108479D01*
X197956Y108466D01*
X197915Y108461D01*
X197805Y108418D01*
X197692Y108381D01*
X197657Y108359D01*
X197620Y108344D01*
X197524Y108275D01*
X197423Y108211D01*
X197395Y108181D01*
X197362Y108158D01*
X197286Y108066D01*
X197205Y107979D01*
X197185Y107944D01*
X197160Y107913D01*
X197109Y107805D01*
X197051Y107701D01*
X197041Y107661D01*
X197024Y107625D01*
X197002Y107508D01*
X196972Y107393D01*
X196968Y107333D01*
X196964Y107313D01*
X196966Y107292D01*
X196962Y107232D01*
X196962Y106288D01*
X195771Y105097D01*
X182087Y105097D01*
X180896Y106288D01*
X180896Y113497D01*
X180950Y113557D01*
X180968Y113593D01*
X180993Y113625D01*
X181040Y113734D01*
X181094Y113841D01*
X181103Y113880D01*
X181119Y113916D01*
X181138Y114034D01*
X181164Y114151D01*
X181162Y114191D01*
X181169Y114230D01*
X181158Y114349D01*
X181154Y114469D01*
X181143Y114507D01*
X181139Y114547D01*
X181099Y114659D01*
X181065Y114774D01*
X181045Y114809D01*
X181031Y114846D01*
X180984Y114916D01*
X180979Y114925D01*
X180561Y115649D01*
X180388Y116296D01*
X180388Y118006D01*
X188824Y118006D01*
X188942Y118021D01*
X189061Y118028D01*
X189099Y118040D01*
X189139Y118046D01*
X189250Y118089D01*
X189363Y118126D01*
X189397Y118148D01*
X189435Y118163D01*
X189531Y118232D01*
X189632Y118296D01*
X189660Y118326D01*
X189692Y118349D01*
X189768Y118441D01*
X189850Y118528D01*
X189869Y118563D01*
X189895Y118594D01*
X189946Y118702D01*
X190003Y118806D01*
X190013Y118846D01*
X190031Y118882D01*
X190053Y118999D01*
X190083Y119114D01*
X190087Y119174D01*
X190090Y119194D01*
X190089Y119215D01*
X190093Y119275D01*
X190093Y119485D01*
X190078Y119603D01*
X190071Y119722D01*
X190058Y119760D01*
X190053Y119801D01*
X190009Y119911D01*
X189973Y120024D01*
X189951Y120059D01*
X189936Y120096D01*
X189866Y120192D01*
X189803Y120293D01*
X189773Y120321D01*
X189749Y120354D01*
X189658Y120430D01*
X189571Y120511D01*
X189536Y120531D01*
X189504Y120556D01*
X189397Y120607D01*
X189292Y120665D01*
X189253Y120675D01*
X189217Y120692D01*
X189100Y120714D01*
X188984Y120744D01*
X188924Y120748D01*
X188904Y120752D01*
X188884Y120750D01*
X188824Y120754D01*
X180388Y120754D01*
X180388Y122546D01*
X180373Y122664D01*
X180366Y122783D01*
X180353Y122821D01*
X180348Y122862D01*
X180305Y122972D01*
X180268Y123085D01*
X180246Y123120D01*
X180231Y123157D01*
X180162Y123253D01*
X180098Y123354D01*
X180068Y123382D01*
X180045Y123415D01*
X179953Y123491D01*
X179866Y123572D01*
X179831Y123592D01*
X179800Y123617D01*
X179692Y123668D01*
X179588Y123726D01*
X179548Y123736D01*
X179512Y123753D01*
X179395Y123775D01*
X179280Y123805D01*
X179220Y123809D01*
X179200Y123813D01*
X179179Y123811D01*
X179119Y123815D01*
X167810Y123815D01*
X167672Y123798D01*
X167533Y123785D01*
X167514Y123778D01*
X167494Y123775D01*
X167365Y123724D01*
X167234Y123677D01*
X167217Y123666D01*
X167199Y123658D01*
X167086Y123577D01*
X166971Y123498D01*
X166958Y123483D01*
X166941Y123472D01*
X166852Y123364D01*
X166760Y123260D01*
X166751Y123242D01*
X166738Y123227D01*
X166679Y123101D01*
X166616Y122977D01*
X166611Y122957D01*
X166603Y122939D01*
X166577Y122803D01*
X166546Y122666D01*
X166547Y122646D01*
X166543Y122627D01*
X166552Y122488D01*
X166556Y122348D01*
X166562Y122329D01*
X166563Y122309D01*
X166606Y122177D01*
X166645Y122043D01*
X166655Y122026D01*
X166661Y122007D01*
X166736Y121889D01*
X166738Y121885D01*
X167768Y119399D01*
X167768Y116821D01*
X166782Y114441D01*
X164959Y112618D01*
X162579Y111632D01*
X161086Y111632D01*
X160988Y111620D01*
X160889Y111617D01*
X160831Y111600D01*
X160771Y111592D01*
X160679Y111556D01*
X160584Y111528D01*
X160532Y111498D01*
X160475Y111475D01*
X160395Y111417D01*
X160310Y111367D01*
X160234Y111301D01*
X160218Y111289D01*
X160210Y111279D01*
X160189Y111261D01*
X155744Y106815D01*
X151812Y106815D01*
X151694Y106800D01*
X151575Y106793D01*
X151537Y106780D01*
X151496Y106775D01*
X151386Y106732D01*
X151273Y106695D01*
X151238Y106673D01*
X151201Y106658D01*
X151105Y106589D01*
X151004Y106525D01*
X150976Y106495D01*
X150943Y106472D01*
X150867Y106380D01*
X150786Y106293D01*
X150766Y106258D01*
X150741Y106227D01*
X150690Y106119D01*
X150632Y106015D01*
X150622Y105975D01*
X150605Y105939D01*
X150583Y105822D01*
X150553Y105707D01*
X150549Y105647D01*
X150545Y105627D01*
X150547Y105606D01*
X150543Y105546D01*
X150543Y104538D01*
X149352Y103347D01*
X137668Y103347D01*
X136477Y104538D01*
X136477Y112035D01*
X136460Y112172D01*
X136447Y112311D01*
X136440Y112330D01*
X136437Y112350D01*
X136386Y112479D01*
X136339Y112610D01*
X136328Y112627D01*
X136320Y112646D01*
X136239Y112758D01*
X136161Y112873D01*
X136145Y112887D01*
X136134Y112903D01*
X136026Y112992D01*
X135922Y113084D01*
X135904Y113093D01*
X135889Y113106D01*
X135763Y113165D01*
X135639Y113228D01*
X135619Y113233D01*
X135601Y113242D01*
X135464Y113268D01*
X135329Y113298D01*
X135308Y113298D01*
X135289Y113301D01*
X135150Y113293D01*
X135011Y113288D01*
X134991Y113283D01*
X134971Y113282D01*
X134839Y113239D01*
X134705Y113200D01*
X134688Y113190D01*
X134669Y113184D01*
X134551Y113109D01*
X134431Y113039D01*
X134410Y113020D01*
X134400Y113013D01*
X134386Y112998D01*
X134311Y112932D01*
X132884Y111505D01*
X115822Y111505D01*
X115704Y111490D01*
X115585Y111483D01*
X115547Y111470D01*
X115506Y111465D01*
X115396Y111422D01*
X115283Y111385D01*
X115248Y111363D01*
X115211Y111348D01*
X115115Y111279D01*
X115014Y111215D01*
X114986Y111185D01*
X114953Y111162D01*
X114877Y111070D01*
X114796Y110983D01*
X114776Y110948D01*
X114751Y110917D01*
X114700Y110809D01*
X114642Y110705D01*
X114632Y110665D01*
X114615Y110629D01*
X114593Y110512D01*
X114563Y110397D01*
X114559Y110337D01*
X114555Y110317D01*
X114557Y110296D01*
X114553Y110236D01*
X114553Y107228D01*
X113362Y106037D01*
X98678Y106037D01*
X97694Y107022D01*
X97594Y107099D01*
X97499Y107181D01*
X97469Y107196D01*
X97442Y107217D01*
X97327Y107267D01*
X97214Y107323D01*
X97181Y107330D01*
X97150Y107343D01*
X97026Y107363D01*
X96903Y107389D01*
X96870Y107388D01*
X96836Y107393D01*
X96711Y107381D01*
X96586Y107376D01*
X96553Y107366D01*
X96520Y107363D01*
X96401Y107321D01*
X96281Y107284D01*
X96252Y107267D01*
X96220Y107256D01*
X96116Y107185D01*
X96009Y107120D01*
X95985Y107096D01*
X95957Y107077D01*
X95874Y106983D01*
X95786Y106893D01*
X95759Y106852D01*
X95747Y106839D01*
X95737Y106819D01*
X95697Y106759D01*
X95553Y106510D01*
X95080Y106037D01*
X94501Y105702D01*
X93854Y105529D01*
X89559Y105529D01*
X89559Y114300D01*
X89544Y114418D01*
X89537Y114537D01*
X89524Y114575D01*
X89519Y114615D01*
X89475Y114726D01*
X89439Y114839D01*
X89417Y114874D01*
X89402Y114911D01*
X89332Y115007D01*
X89269Y115108D01*
X89239Y115136D01*
X89215Y115168D01*
X89124Y115244D01*
X89037Y115326D01*
X89002Y115345D01*
X88970Y115371D01*
X88863Y115422D01*
X88759Y115479D01*
X88719Y115490D01*
X88683Y115507D01*
X88566Y115529D01*
X88451Y115559D01*
X88390Y115563D01*
X88370Y115567D01*
X88350Y115565D01*
X88290Y115569D01*
X87019Y115569D01*
X87019Y116840D01*
X87004Y116958D01*
X86997Y117077D01*
X86984Y117115D01*
X86979Y117155D01*
X86935Y117266D01*
X86899Y117379D01*
X86877Y117414D01*
X86862Y117451D01*
X86792Y117547D01*
X86729Y117648D01*
X86699Y117676D01*
X86675Y117708D01*
X86584Y117784D01*
X86497Y117866D01*
X86462Y117885D01*
X86430Y117911D01*
X86323Y117962D01*
X86219Y118019D01*
X86179Y118030D01*
X86143Y118047D01*
X86026Y118069D01*
X85911Y118099D01*
X85850Y118103D01*
X85830Y118107D01*
X85810Y118105D01*
X85750Y118109D01*
X77979Y118109D01*
X77979Y121800D01*
X77964Y121918D01*
X77957Y122037D01*
X77944Y122075D01*
X77939Y122116D01*
X77896Y122226D01*
X77859Y122339D01*
X77837Y122374D01*
X77822Y122411D01*
X77753Y122507D01*
X77689Y122608D01*
X77659Y122636D01*
X77636Y122669D01*
X77544Y122745D01*
X77457Y122826D01*
X77422Y122846D01*
X77391Y122871D01*
X77283Y122922D01*
X77179Y122980D01*
X77139Y122990D01*
X77103Y123007D01*
X76986Y123029D01*
X76871Y123059D01*
X76811Y123063D01*
X76791Y123067D01*
X76770Y123065D01*
X76710Y123069D01*
X59372Y123069D01*
X59254Y123054D01*
X59135Y123047D01*
X59097Y123034D01*
X59056Y123029D01*
X58946Y122986D01*
X58833Y122949D01*
X58798Y122927D01*
X58761Y122912D01*
X58665Y122843D01*
X58564Y122779D01*
X58536Y122749D01*
X58503Y122726D01*
X58427Y122634D01*
X58346Y122547D01*
X58326Y122512D01*
X58301Y122481D01*
X58250Y122373D01*
X58192Y122269D01*
X58182Y122229D01*
X58165Y122193D01*
X58143Y122076D01*
X58113Y121961D01*
X58109Y121901D01*
X58105Y121881D01*
X58107Y121860D01*
X58103Y121800D01*
X58103Y118228D01*
X56901Y117026D01*
X56838Y117018D01*
X56687Y117001D01*
X56681Y116998D01*
X56674Y116997D01*
X56531Y116941D01*
X56390Y116887D01*
X56384Y116883D01*
X56378Y116880D01*
X56254Y116791D01*
X56131Y116703D01*
X56126Y116698D01*
X56121Y116694D01*
X56023Y116575D01*
X55925Y116460D01*
X55922Y116454D01*
X55918Y116449D01*
X55853Y116311D01*
X55787Y116174D01*
X55785Y116167D01*
X55782Y116161D01*
X55754Y116012D01*
X55724Y115862D01*
X55724Y115855D01*
X55723Y115849D01*
X55732Y115697D01*
X55740Y115544D01*
X55742Y115538D01*
X55742Y115531D01*
X55789Y115387D01*
X55835Y115241D01*
X55838Y115235D01*
X55840Y115229D01*
X55922Y115100D01*
X56002Y114970D01*
X56007Y114966D01*
X56011Y114960D01*
X56122Y114855D01*
X56231Y114750D01*
X56237Y114747D01*
X56242Y114742D01*
X56376Y114668D01*
X56508Y114593D01*
X56517Y114591D01*
X56521Y114588D01*
X56531Y114586D01*
X56661Y114542D01*
X57051Y114438D01*
X57630Y114103D01*
X58103Y113630D01*
X58438Y113051D01*
X58611Y112404D01*
X58611Y110069D01*
X52800Y110069D01*
X52682Y110054D01*
X52563Y110047D01*
X52525Y110034D01*
X52485Y110029D01*
X52374Y109986D01*
X52261Y109949D01*
X52227Y109927D01*
X52189Y109912D01*
X52093Y109843D01*
X52076Y109832D01*
X52052Y109846D01*
X52020Y109871D01*
X51913Y109922D01*
X51808Y109980D01*
X51769Y109990D01*
X51733Y110007D01*
X51616Y110029D01*
X51500Y110059D01*
X51440Y110063D01*
X51420Y110067D01*
X51400Y110065D01*
X51340Y110069D01*
X45529Y110069D01*
X45529Y112404D01*
X45702Y113051D01*
X46037Y113630D01*
X46510Y114103D01*
X47089Y114438D01*
X47479Y114542D01*
X47620Y114600D01*
X47762Y114656D01*
X47767Y114660D01*
X47774Y114662D01*
X47897Y114753D01*
X48019Y114842D01*
X48024Y114848D01*
X48029Y114852D01*
X48125Y114970D01*
X48222Y115087D01*
X48225Y115094D01*
X48229Y115099D01*
X48293Y115239D01*
X48358Y115375D01*
X48359Y115382D01*
X48362Y115388D01*
X48389Y115539D01*
X48417Y115688D01*
X48417Y115694D01*
X48418Y115701D01*
X48407Y115851D01*
X48398Y116005D01*
X48396Y116011D01*
X48395Y116018D01*
X48346Y116163D01*
X48300Y116307D01*
X48296Y116313D01*
X48294Y116320D01*
X48211Y116447D01*
X48129Y116576D01*
X48124Y116581D01*
X48121Y116586D01*
X48009Y116690D01*
X47898Y116794D01*
X47892Y116797D01*
X47887Y116802D01*
X47753Y116874D01*
X47619Y116948D01*
X47613Y116949D01*
X47607Y116952D01*
X47459Y116989D01*
X47311Y117027D01*
X47302Y117028D01*
X47298Y117029D01*
X47287Y117029D01*
X47233Y117032D01*
X46037Y118228D01*
X46037Y122936D01*
X46022Y123054D01*
X46015Y123173D01*
X46002Y123211D01*
X45997Y123252D01*
X45954Y123362D01*
X45917Y123475D01*
X45895Y123510D01*
X45880Y123547D01*
X45811Y123643D01*
X45747Y123744D01*
X45717Y123772D01*
X45694Y123805D01*
X45602Y123881D01*
X45515Y123962D01*
X45480Y123982D01*
X45449Y124007D01*
X45341Y124058D01*
X45237Y124116D01*
X45197Y124126D01*
X45161Y124143D01*
X45044Y124165D01*
X44929Y124195D01*
X44869Y124199D01*
X44849Y124203D01*
X44828Y124201D01*
X44768Y124205D01*
X25507Y124205D01*
X25478Y124202D01*
X25448Y124204D01*
X25320Y124182D01*
X25191Y124165D01*
X25164Y124155D01*
X25135Y124150D01*
X25016Y124096D01*
X24896Y124048D01*
X24872Y124031D01*
X24845Y124019D01*
X24744Y123938D01*
X24638Y123862D01*
X24620Y123839D01*
X24597Y123820D01*
X24519Y123717D01*
X24436Y123617D01*
X24423Y123590D01*
X24405Y123566D01*
X24334Y123422D01*
X23661Y121795D01*
X20445Y118579D01*
X16486Y116940D01*
X16374Y116876D01*
X16259Y116817D01*
X16236Y116797D01*
X16210Y116782D01*
X16117Y116692D01*
X16020Y116607D01*
X16003Y116582D01*
X15982Y116561D01*
X15914Y116450D01*
X15841Y116344D01*
X15831Y116315D01*
X15815Y116290D01*
X15777Y116166D01*
X15734Y116045D01*
X15731Y116015D01*
X15722Y115986D01*
X15716Y115857D01*
X15703Y115728D01*
X15708Y115698D01*
X15707Y115668D01*
X15733Y115542D01*
X15753Y115414D01*
X15765Y115386D01*
X15771Y115357D01*
X15828Y115240D01*
X15879Y115122D01*
X15897Y115098D01*
X15911Y115071D01*
X15995Y114973D01*
X16074Y114870D01*
X16097Y114852D01*
X16117Y114829D01*
X16223Y114755D01*
X16325Y114675D01*
X16352Y114663D01*
X16377Y114646D01*
X16498Y114600D01*
X16617Y114549D01*
X16658Y114539D01*
X16674Y114533D01*
X16696Y114531D01*
X16761Y114516D01*
X18553Y113934D01*
X20227Y113081D01*
X21748Y111976D01*
X23076Y110648D01*
X24181Y109127D01*
X25034Y107453D01*
X25615Y105666D01*
X25655Y105409D01*
X15240Y105409D01*
X15122Y105394D01*
X15003Y105387D01*
X14965Y105374D01*
X14925Y105369D01*
X14814Y105326D01*
X14701Y105289D01*
X14667Y105267D01*
X14629Y105252D01*
X14533Y105182D01*
X14432Y105119D01*
X14404Y105089D01*
X14372Y105065D01*
X14296Y104974D01*
X14214Y104887D01*
X14195Y104852D01*
X14169Y104821D01*
X14118Y104713D01*
X14061Y104609D01*
X14050Y104569D01*
X14033Y104533D01*
X14011Y104416D01*
X13981Y104301D01*
X13977Y104240D01*
X13973Y104220D01*
X13975Y104200D01*
X13971Y104140D01*
X13971Y102869D01*
X12700Y102869D01*
X12582Y102854D01*
X12463Y102847D01*
X12425Y102834D01*
X12384Y102829D01*
X12274Y102785D01*
X12161Y102749D01*
X12126Y102727D01*
X12089Y102712D01*
X11993Y102642D01*
X11892Y102579D01*
X11864Y102549D01*
X11831Y102525D01*
X11756Y102434D01*
X11674Y102347D01*
X11654Y102312D01*
X11629Y102280D01*
X11578Y102173D01*
X11520Y102068D01*
X11510Y102029D01*
X11493Y101993D01*
X11471Y101876D01*
X11441Y101761D01*
X11437Y101700D01*
X11433Y101680D01*
X11435Y101660D01*
X11431Y101600D01*
X11431Y91185D01*
X11174Y91225D01*
X9387Y91806D01*
X7713Y92659D01*
X6192Y93764D01*
X4864Y95092D01*
X4837Y95129D01*
X4782Y95187D01*
X4736Y95252D01*
X4674Y95303D01*
X4619Y95361D01*
X4552Y95404D01*
X4491Y95455D01*
X4418Y95489D01*
X4351Y95532D01*
X4275Y95556D01*
X4203Y95590D01*
X4125Y95605D01*
X4049Y95630D01*
X3969Y95635D01*
X3890Y95650D01*
X3811Y95645D01*
X3731Y95650D01*
X3653Y95635D01*
X3573Y95630D01*
X3497Y95606D01*
X3419Y95591D01*
X3346Y95557D01*
X3271Y95532D01*
X3203Y95490D01*
X3131Y95456D01*
X3069Y95405D01*
X3002Y95362D01*
X2947Y95304D01*
X2886Y95253D01*
X2839Y95189D01*
X2784Y95130D01*
X2745Y95061D01*
X2698Y94996D01*
X2669Y94922D01*
X2630Y94852D01*
X2610Y94775D01*
X2581Y94700D01*
X2571Y94621D01*
X2551Y94544D01*
X2541Y94387D01*
X2541Y94385D01*
X2541Y94384D01*
X2541Y94383D01*
X2541Y74527D01*
X2551Y74447D01*
X2551Y74368D01*
X2571Y74290D01*
X2581Y74211D01*
X2610Y74137D01*
X2630Y74060D01*
X2668Y73990D01*
X2698Y73915D01*
X2744Y73851D01*
X2783Y73781D01*
X2838Y73723D01*
X2884Y73658D01*
X2946Y73607D01*
X3001Y73549D01*
X3068Y73506D01*
X3129Y73455D01*
X3202Y73421D01*
X3269Y73378D01*
X3345Y73354D01*
X3417Y73320D01*
X3495Y73305D01*
X3571Y73280D01*
X3651Y73275D01*
X3729Y73260D01*
X3809Y73265D01*
X3889Y73260D01*
X3967Y73275D01*
X4047Y73280D01*
X4123Y73304D01*
X4201Y73319D01*
X4273Y73353D01*
X4349Y73378D01*
X4417Y73420D01*
X4489Y73454D01*
X4551Y73505D01*
X4618Y73548D01*
X4673Y73606D01*
X4734Y73657D01*
X4835Y73778D01*
X4836Y73780D01*
X4837Y73781D01*
X4864Y73818D01*
X6192Y75146D01*
X7713Y76251D01*
X9387Y77104D01*
X11174Y77685D01*
X11431Y77725D01*
X11431Y67310D01*
X11446Y67192D01*
X11453Y67073D01*
X11466Y67035D01*
X11471Y66995D01*
X11514Y66884D01*
X11551Y66771D01*
X11573Y66737D01*
X11588Y66699D01*
X11658Y66603D01*
X11721Y66502D01*
X11751Y66474D01*
X11774Y66442D01*
X11866Y66366D01*
X11953Y66284D01*
X11988Y66265D01*
X12019Y66239D01*
X12127Y66188D01*
X12231Y66131D01*
X12271Y66120D01*
X12307Y66103D01*
X12424Y66081D01*
X12539Y66051D01*
X12600Y66047D01*
X12620Y66043D01*
X12640Y66045D01*
X12700Y66041D01*
X13971Y66041D01*
X13971Y64770D01*
X13986Y64652D01*
X13993Y64533D01*
X14006Y64495D01*
X14011Y64454D01*
X14055Y64344D01*
X14091Y64231D01*
X14113Y64196D01*
X14128Y64159D01*
X14198Y64063D01*
X14261Y63962D01*
X14291Y63934D01*
X14315Y63901D01*
X14406Y63826D01*
X14493Y63744D01*
X14528Y63724D01*
X14560Y63699D01*
X14667Y63648D01*
X14772Y63590D01*
X14811Y63580D01*
X14847Y63563D01*
X14964Y63541D01*
X15079Y63511D01*
X15140Y63507D01*
X15160Y63503D01*
X15180Y63505D01*
X15240Y63501D01*
X25655Y63501D01*
X25615Y63244D01*
X25034Y61457D01*
X24512Y60433D01*
X24471Y60320D01*
X24424Y60211D01*
X24418Y60171D01*
X24404Y60133D01*
X24393Y60015D01*
X24374Y59897D01*
X24378Y59857D01*
X24374Y59817D01*
X24393Y59699D01*
X24404Y59580D01*
X24418Y59542D01*
X24424Y59503D01*
X24471Y59393D01*
X24512Y59281D01*
X24534Y59248D01*
X24550Y59211D01*
X24623Y59116D01*
X24690Y59017D01*
X24720Y58991D01*
X24745Y58959D01*
X24839Y58886D01*
X24929Y58807D01*
X24964Y58789D01*
X24996Y58764D01*
X25106Y58717D01*
X25212Y58662D01*
X25251Y58654D01*
X25288Y58638D01*
X25406Y58619D01*
X25522Y58593D01*
X25562Y58594D01*
X25602Y58588D01*
X25721Y58599D01*
G37*
%LPC*%
G36*
X269506Y76199D02*
X269506Y76199D01*
X265305Y77939D01*
X262089Y81155D01*
X260349Y85356D01*
X260349Y89904D01*
X262089Y94105D01*
X265305Y97321D01*
X269506Y99061D01*
X274054Y99061D01*
X278255Y97321D01*
X281471Y94105D01*
X283211Y89904D01*
X283211Y85356D01*
X281471Y81155D01*
X278255Y77939D01*
X274054Y76199D01*
X269506Y76199D01*
G37*
%LPD*%
%LPC*%
G36*
X320306Y76199D02*
X320306Y76199D01*
X316105Y77939D01*
X312889Y81155D01*
X311149Y85356D01*
X311149Y89904D01*
X312889Y94105D01*
X316105Y97321D01*
X320306Y99061D01*
X324854Y99061D01*
X329055Y97321D01*
X332271Y94105D01*
X334011Y89904D01*
X334011Y85356D01*
X332271Y81155D01*
X329055Y77939D01*
X324854Y76199D01*
X320306Y76199D01*
G37*
%LPD*%
%LPC*%
G36*
X371106Y76199D02*
X371106Y76199D01*
X366905Y77939D01*
X363689Y81155D01*
X361949Y85356D01*
X361949Y89904D01*
X363689Y94105D01*
X366905Y97321D01*
X371106Y99061D01*
X375654Y99061D01*
X379855Y97321D01*
X383071Y94105D01*
X384811Y89904D01*
X384811Y85356D01*
X383071Y81155D01*
X379855Y77939D01*
X375654Y76199D01*
X371106Y76199D01*
G37*
%LPD*%
%LPC*%
G36*
X66306Y76199D02*
X66306Y76199D01*
X62105Y77939D01*
X58889Y81155D01*
X57149Y85356D01*
X57149Y89904D01*
X58889Y94105D01*
X62105Y97321D01*
X66306Y99061D01*
X70854Y99061D01*
X75055Y97321D01*
X78271Y94105D01*
X80011Y89904D01*
X80011Y85356D01*
X78271Y81155D01*
X75055Y77939D01*
X70854Y76199D01*
X66306Y76199D01*
G37*
%LPD*%
%LPC*%
G36*
X218706Y76199D02*
X218706Y76199D01*
X214505Y77939D01*
X211289Y81155D01*
X209549Y85356D01*
X209549Y89904D01*
X211289Y94105D01*
X214505Y97321D01*
X218706Y99061D01*
X223254Y99061D01*
X227455Y97321D01*
X230671Y94105D01*
X232411Y89904D01*
X232411Y85356D01*
X230671Y81155D01*
X227455Y77939D01*
X223254Y76199D01*
X218706Y76199D01*
G37*
%LPD*%
%LPC*%
G36*
X167906Y76199D02*
X167906Y76199D01*
X163705Y77939D01*
X160489Y81155D01*
X158749Y85356D01*
X158749Y89904D01*
X160489Y94105D01*
X163705Y97321D01*
X167906Y99061D01*
X172454Y99061D01*
X176655Y97321D01*
X179871Y94105D01*
X181611Y89904D01*
X181611Y85356D01*
X179871Y81155D01*
X176655Y77939D01*
X172454Y76199D01*
X167906Y76199D01*
G37*
%LPD*%
%LPC*%
G36*
X117106Y76199D02*
X117106Y76199D01*
X112905Y77939D01*
X109689Y81155D01*
X107949Y85356D01*
X107949Y89904D01*
X109689Y94105D01*
X112905Y97321D01*
X117106Y99061D01*
X121654Y99061D01*
X125855Y97321D01*
X129071Y94105D01*
X130811Y89904D01*
X130811Y85356D01*
X129071Y81155D01*
X125855Y77939D01*
X121654Y76199D01*
X117106Y76199D01*
G37*
%LPD*%
%LPC*%
G36*
X208089Y105097D02*
X208089Y105097D01*
X206898Y106288D01*
X206898Y113472D01*
X208089Y114663D01*
X221773Y114663D01*
X222964Y113472D01*
X222964Y106288D01*
X221773Y105097D01*
X208089Y105097D01*
G37*
%LPD*%
%LPC*%
G36*
X16509Y68579D02*
X16509Y68579D01*
X16509Y77725D01*
X16766Y77685D01*
X18553Y77104D01*
X20227Y76251D01*
X21748Y75146D01*
X23076Y73818D01*
X24181Y72297D01*
X25034Y70623D01*
X25615Y68836D01*
X25655Y68579D01*
X16509Y68579D01*
G37*
%LPD*%
%LPC*%
G36*
X16509Y100331D02*
X16509Y100331D01*
X25655Y100331D01*
X25615Y100074D01*
X25034Y98287D01*
X24181Y96613D01*
X23076Y95092D01*
X21748Y93764D01*
X20227Y92659D01*
X18553Y91806D01*
X16766Y91225D01*
X16509Y91185D01*
X16509Y100331D01*
G37*
%LPD*%
%LPC*%
G36*
X307516Y106799D02*
X307516Y106799D01*
X306869Y106972D01*
X306290Y107307D01*
X305817Y107780D01*
X305482Y108359D01*
X305309Y109006D01*
X305309Y114301D01*
X311811Y114301D01*
X311811Y106799D01*
X307516Y106799D01*
G37*
%LPD*%
%LPC*%
G36*
X80186Y105529D02*
X80186Y105529D01*
X79539Y105702D01*
X78960Y106037D01*
X78487Y106510D01*
X78152Y107089D01*
X77979Y107736D01*
X77979Y113031D01*
X84481Y113031D01*
X84481Y105529D01*
X80186Y105529D01*
G37*
%LPD*%
%LPC*%
G36*
X264119Y102839D02*
X264119Y102839D01*
X264119Y108381D01*
X269161Y108381D01*
X269161Y105046D01*
X268988Y104399D01*
X268653Y103820D01*
X268180Y103347D01*
X267601Y103012D01*
X266954Y102839D01*
X264119Y102839D01*
G37*
%LPD*%
%LPC*%
G36*
X256286Y102839D02*
X256286Y102839D01*
X255639Y103012D01*
X255060Y103347D01*
X254587Y103820D01*
X254252Y104399D01*
X254079Y105046D01*
X254079Y108381D01*
X259121Y108381D01*
X259121Y102839D01*
X256286Y102839D01*
G37*
%LPD*%
%LPC*%
G36*
X54069Y101529D02*
X54069Y101529D01*
X54069Y106071D01*
X58611Y106071D01*
X58611Y103736D01*
X58438Y103089D01*
X58103Y102510D01*
X57630Y102037D01*
X57051Y101702D01*
X56404Y101529D01*
X54069Y101529D01*
G37*
%LPD*%
%LPC*%
G36*
X47736Y101529D02*
X47736Y101529D01*
X47089Y101702D01*
X46510Y102037D01*
X46037Y102510D01*
X45702Y103089D01*
X45529Y103736D01*
X45529Y106071D01*
X50071Y106071D01*
X50071Y101529D01*
X47736Y101529D01*
G37*
%LPD*%
D10*
X35560Y66040D03*
X35560Y40640D03*
D11*
X106020Y115570D03*
X87020Y115570D03*
D12*
X188929Y128880D03*
X188929Y119380D03*
X188929Y109880D03*
X214931Y109880D03*
X214931Y128880D03*
D11*
X333350Y116840D03*
X314350Y116840D03*
D13*
X261620Y127880D03*
X261620Y110880D03*
D14*
X389500Y136190D03*
X372500Y136190D03*
X389500Y127190D03*
X389500Y119190D03*
X389500Y110190D03*
X372500Y110190D03*
X372500Y127190D03*
X372500Y119190D03*
D15*
X459620Y127110D03*
D16*
X452120Y127110D03*
D15*
X444620Y127110D03*
X444620Y109110D03*
D16*
X452120Y109110D03*
D15*
X459620Y109110D03*
D17*
X52070Y108070D03*
X52070Y123070D03*
D13*
X53340Y41030D03*
X53340Y58030D03*
X68580Y41030D03*
X68580Y58030D03*
X143510Y110880D03*
X143510Y127880D03*
D18*
X43180Y87630D03*
X68580Y87630D03*
X93980Y87630D03*
X119380Y87630D03*
X144780Y87630D03*
X170180Y87630D03*
X195580Y87630D03*
X220980Y87630D03*
X246380Y87630D03*
X271780Y87630D03*
X297180Y87630D03*
X322580Y87630D03*
X347980Y87630D03*
X373380Y87630D03*
X398780Y87630D03*
X424180Y87630D03*
X449580Y87630D03*
X474980Y87630D03*
X500380Y87630D03*
X525780Y87630D03*
X13970Y102870D03*
X13970Y128270D03*
X546100Y146050D03*
X546100Y120650D03*
X43180Y19050D03*
X68580Y19050D03*
X93980Y19050D03*
X119380Y19050D03*
X144780Y19050D03*
X170180Y19050D03*
X195580Y19050D03*
X220980Y19050D03*
X246380Y19050D03*
X271780Y19050D03*
X297180Y19050D03*
X322580Y19050D03*
X347980Y19050D03*
X373380Y19050D03*
X398780Y19050D03*
X424180Y19050D03*
X449580Y19050D03*
X474980Y19050D03*
X500380Y19050D03*
X525780Y19050D03*
D10*
X86360Y66040D03*
X86360Y40640D03*
D13*
X104140Y41030D03*
X104140Y58030D03*
X119380Y41030D03*
X119380Y58030D03*
D18*
X13970Y66040D03*
X13970Y40640D03*
X546100Y36830D03*
X546100Y62230D03*
D10*
X137160Y66040D03*
X137160Y40640D03*
D13*
X154940Y41030D03*
X154940Y58030D03*
X170180Y41030D03*
X170180Y58030D03*
D10*
X187960Y66040D03*
X187960Y40640D03*
D13*
X205740Y41030D03*
X205740Y58030D03*
X220980Y41030D03*
X220980Y58030D03*
D10*
X238760Y66040D03*
X238760Y40640D03*
D13*
X256540Y41030D03*
X256540Y58030D03*
X271780Y41030D03*
X271780Y58030D03*
D10*
X289560Y66040D03*
X289560Y40640D03*
D13*
X307340Y41030D03*
X307340Y58030D03*
X322580Y41030D03*
X322580Y58030D03*
D10*
X391160Y66040D03*
X391160Y40640D03*
D13*
X408940Y41030D03*
X408940Y58030D03*
X424180Y41030D03*
X424180Y58030D03*
D10*
X441960Y66040D03*
X441960Y40640D03*
D13*
X459740Y41030D03*
X459740Y58030D03*
X474980Y41030D03*
X474980Y58030D03*
D10*
X492760Y66040D03*
X492760Y40640D03*
D13*
X510540Y41030D03*
X510540Y58030D03*
X525780Y41030D03*
X525780Y58030D03*
D10*
X340360Y66040D03*
X340360Y40640D03*
D13*
X358140Y41030D03*
X358140Y58030D03*
X373380Y41030D03*
X373380Y58030D03*
D19*
X389500Y119190D02*
X436700Y119190D01*
X444620Y127110D01*
X446786Y129276D01*
X446786Y130946D01*
X461890Y146050D01*
X546100Y146050D01*
X437564Y136190D02*
X389500Y136190D01*
X459620Y109110D02*
X486520Y109110D01*
X491490Y104140D01*
D20*
X491490Y104140D03*
X437564Y136190D03*
D19*
X459620Y109110D02*
X459620Y100041D01*
X461440Y98220D01*
D20*
X461440Y98220D03*
D21*
X13970Y102870D02*
X13970Y66040D01*
X13970Y102870D02*
X19170Y108070D01*
X52070Y108070D01*
X79520Y108070D01*
X87020Y115570D01*
X261620Y110880D02*
X308390Y110880D01*
X314350Y116840D01*
X181246Y103066D02*
X178865Y105447D01*
X178865Y114313D01*
X181246Y116694D01*
X230428Y110880D02*
X261620Y110880D01*
X230428Y110880D02*
X222614Y103066D01*
X181246Y103066D01*
X181246Y116694D02*
X186243Y116694D01*
X188929Y119380D01*
X95456Y107134D02*
X87020Y115570D01*
X95456Y107134D02*
X95456Y106387D01*
X100527Y101316D01*
X165868Y101316D01*
X178865Y114313D01*
D19*
X35560Y80010D02*
X35560Y66040D01*
X35560Y80010D02*
X43180Y87630D01*
D21*
X53340Y58030D02*
X68580Y58030D01*
X104140Y58030D02*
X119380Y58030D01*
X92043Y55226D02*
X80677Y55226D01*
X77873Y58030D02*
X68580Y58030D01*
X94847Y58030D02*
X104140Y58030D01*
X80677Y55226D02*
X77873Y58030D01*
X92043Y55226D02*
X94847Y58030D01*
X182277Y55226D02*
X193643Y55226D01*
X179473Y58030D02*
X170180Y58030D01*
X196447Y58030D02*
X205740Y58030D01*
X182277Y55226D02*
X179473Y58030D01*
X193643Y55226D02*
X196447Y58030D01*
X233077Y55226D02*
X244443Y55226D01*
X230273Y58030D02*
X220980Y58030D01*
X247247Y58030D02*
X256540Y58030D01*
X233077Y55226D02*
X230273Y58030D01*
X244443Y55226D02*
X247247Y58030D01*
X170180Y58030D02*
X154940Y58030D01*
X205740Y58030D02*
X220980Y58030D01*
X307340Y58030D02*
X322580Y58030D01*
X334677Y55226D02*
X346043Y55226D01*
X331873Y58030D02*
X322580Y58030D01*
X348847Y58030D02*
X358140Y58030D01*
X334677Y55226D02*
X331873Y58030D01*
X346043Y55226D02*
X348847Y58030D01*
X358140Y58030D02*
X373380Y58030D01*
X385477Y55226D02*
X396843Y55226D01*
X382673Y58030D02*
X373380Y58030D01*
X399647Y58030D02*
X408940Y58030D01*
X385477Y55226D02*
X382673Y58030D01*
X396843Y55226D02*
X399647Y58030D01*
X436277Y55226D02*
X447643Y55226D01*
X433473Y58030D02*
X424180Y58030D01*
X450447Y58030D02*
X459740Y58030D01*
X436277Y55226D02*
X433473Y58030D01*
X447643Y55226D02*
X450447Y58030D01*
X424180Y58030D02*
X408940Y58030D01*
X459740Y58030D02*
X474980Y58030D01*
X487077Y55226D02*
X498443Y55226D01*
X484273Y58030D02*
X474980Y58030D01*
X501247Y58030D02*
X510540Y58030D01*
X487077Y55226D02*
X484273Y58030D01*
X498443Y55226D02*
X501247Y58030D01*
X510540Y58030D02*
X525780Y58030D01*
X142843Y55226D02*
X131477Y55226D01*
X128673Y58030D02*
X119380Y58030D01*
X145647Y58030D02*
X154940Y58030D01*
X131477Y55226D02*
X128673Y58030D01*
X142843Y55226D02*
X145647Y58030D01*
X283877Y55226D02*
X295243Y55226D01*
X298047Y58030D02*
X307340Y58030D01*
X283877Y55226D02*
X281073Y58030D01*
X295243Y55226D02*
X298047Y58030D01*
X28556Y55226D02*
X13970Y40640D01*
X44047Y58030D02*
X53340Y58030D01*
X41243Y55226D02*
X28556Y55226D01*
X41243Y55226D02*
X44047Y58030D01*
X214931Y128880D02*
X260620Y128880D01*
X261620Y127880D01*
X305643Y127880D01*
X306167Y128404D01*
X322533Y128404D01*
X324914Y126023D01*
X324914Y125276D01*
X329870Y120320D01*
X333350Y116840D01*
X340000Y110190D02*
X372500Y110190D01*
X340000Y110190D02*
X333350Y116840D01*
X531356Y74168D02*
X539242Y82054D01*
X539242Y93206D01*
X455437Y115674D02*
X453056Y113293D01*
X453056Y110046D01*
X452120Y109110D01*
X516774Y115674D02*
X539242Y93206D01*
X516774Y115674D02*
X494411Y115674D01*
X455437Y115674D01*
X510540Y58030D02*
X526678Y74168D01*
X531356Y74168D01*
X453056Y126174D02*
X452120Y127110D01*
X453056Y126174D02*
X453056Y113293D01*
D20*
X411480Y101363D03*
D21*
X409067Y103776D01*
X377003Y110190D02*
X372500Y110190D01*
X377003Y110190D02*
X383417Y103776D01*
X409067Y103776D01*
D20*
X481330Y128755D03*
D21*
X494411Y115674D01*
X372500Y127190D02*
X368110Y127190D01*
X358140Y137160D01*
X346710Y137160D01*
X329870Y120320D01*
X281073Y58030D02*
X271780Y58030D01*
X256540Y58030D01*
D19*
X544576Y63754D02*
X546100Y62230D01*
X544576Y63754D02*
X544576Y95416D01*
X414210Y127190D02*
X389500Y127190D01*
X414210Y127190D02*
X415290Y128270D01*
D20*
X415290Y128270D03*
X467360Y137160D03*
D19*
X467360Y134850D01*
X459620Y127110D01*
X516846Y123146D02*
X544576Y95416D01*
X516846Y123146D02*
X515809Y124183D01*
X502832Y137160D02*
X467360Y137160D01*
X502832Y137160D02*
X515809Y124183D01*
X444620Y109110D02*
X444500Y109110D01*
X390580Y109110D01*
X389500Y110190D01*
X546100Y39779D02*
X546100Y36830D01*
X546100Y39779D02*
X555625Y49304D01*
D20*
X555625Y49304D03*
X436880Y97790D03*
D19*
X436880Y101490D01*
X444500Y109110D01*
D21*
X131200Y115570D02*
X106020Y115570D01*
X131200Y115570D02*
X143510Y127880D01*
X187929Y127880D01*
X188319Y128270D02*
X188929Y128880D01*
X198993Y114947D02*
X196612Y112566D01*
X198993Y114947D02*
X198993Y123813D01*
X196612Y126194D01*
X191615Y112566D02*
X188929Y109880D01*
X191615Y112566D02*
X196612Y112566D01*
X196612Y126194D02*
X196386Y126194D01*
X194310Y128270D01*
X188319Y128270D01*
X187929Y127880D01*
X43523Y128270D02*
X13970Y128270D01*
X43523Y128270D02*
X48483Y133230D01*
X138160Y133230D01*
X143510Y127880D01*
X188929Y128880D02*
X200434Y128880D01*
X208998Y137444D01*
X355790Y119190D02*
X372500Y119190D01*
X355790Y119190D02*
X353060Y121920D01*
D20*
X353060Y121920D03*
X331470Y134620D03*
D21*
X367731Y136190D02*
X372500Y136190D01*
X367731Y136190D02*
X360665Y143256D01*
X340106Y143256D02*
X331470Y134620D01*
X340106Y143256D02*
X360665Y143256D01*
X331470Y134620D02*
X271127Y134620D01*
X268303Y137444D01*
X208998Y137444D01*
D20*
X121920Y124460D03*
D21*
X116877Y124460D01*
X114203Y127134D01*
X56134Y127134D02*
X52070Y123070D01*
X56134Y127134D02*
X114203Y127134D01*
D20*
X161290Y118110D03*
D21*
X154060Y110880D01*
X143510Y110880D01*
D19*
X53340Y41030D02*
X52950Y40640D01*
X35560Y40640D01*
X35560Y27940D01*
X43180Y20320D02*
X43180Y19050D01*
X43180Y20320D02*
X35560Y27940D01*
X68580Y19050D02*
X68580Y41030D01*
X86360Y40640D02*
X86995Y40005D01*
X88020Y41030D02*
X104140Y41030D01*
X88020Y41030D02*
X86995Y40005D01*
X86360Y26670D02*
X93980Y19050D01*
X86360Y26670D02*
X86360Y40640D01*
X119380Y41030D02*
X119380Y19050D01*
X86360Y66040D02*
X86360Y80010D01*
X93980Y87630D01*
X525780Y41030D02*
X525780Y19050D01*
X510150Y40640D02*
X510540Y41030D01*
X492760Y26670D02*
X500380Y19050D01*
X492760Y26670D02*
X492760Y40640D01*
X510150Y40640D01*
X474980Y41030D02*
X474980Y19050D01*
X459350Y40640D02*
X441960Y40640D01*
X459350Y40640D02*
X459740Y41030D01*
X441960Y26670D02*
X449580Y19050D01*
X441960Y26670D02*
X441960Y40640D01*
X424180Y41030D02*
X424180Y39370D01*
X424180Y19050D01*
X398780Y19050D02*
X391160Y26670D01*
X391160Y40640D01*
X408550Y40640D01*
X408940Y41030D01*
X373380Y41030D02*
X373380Y19050D01*
X340360Y26670D02*
X340360Y40640D01*
X340360Y26670D02*
X347980Y19050D01*
X340360Y40640D02*
X340750Y41030D01*
X358140Y41030D01*
X322580Y41030D02*
X322580Y19050D01*
X289560Y26670D02*
X289560Y40640D01*
X289560Y26670D02*
X297180Y19050D01*
X289560Y40640D02*
X306950Y40640D01*
X307340Y41030D01*
X271780Y41030D02*
X271780Y19050D01*
X246380Y19050D02*
X238760Y26670D01*
X238760Y40640D01*
X239150Y41030D01*
X256540Y41030D01*
X205740Y41030D02*
X205350Y40640D01*
X187960Y40640D01*
X189230Y39370D01*
X189230Y25400D02*
X195580Y19050D01*
X189230Y25400D02*
X189230Y39370D01*
X170180Y41030D02*
X170180Y19050D01*
X154550Y40640D02*
X137160Y40640D01*
X154550Y40640D02*
X154940Y41030D01*
X137160Y26670D02*
X144780Y19050D01*
X137160Y26670D02*
X137160Y40640D01*
X492760Y66040D02*
X492760Y80010D01*
X500380Y87630D01*
X441960Y80010D02*
X441960Y66040D01*
X441960Y80010D02*
X449580Y87630D01*
X391160Y80010D02*
X391160Y66040D01*
X391160Y80010D02*
X398780Y87630D01*
X347980Y73660D02*
X340360Y66040D01*
X347980Y73660D02*
X347980Y87630D01*
X297180Y73660D02*
X289560Y66040D01*
X297180Y73660D02*
X297180Y87630D01*
X238760Y80010D02*
X238760Y66040D01*
X238760Y80010D02*
X246380Y87630D01*
X187960Y80010D02*
X187960Y66040D01*
X187960Y80010D02*
X195580Y87630D01*
X137160Y80010D02*
X137160Y66040D01*
X137160Y80010D02*
X144780Y87630D01*
X220980Y41030D02*
X220980Y19050D01*
M02*
