G04 EAGLE Gerber RS-274X export*
G75*
%MOMM*%
%FSLAX34Y34*%
%LPD*%
%IN*%
%IPPOS*%
%AMOC8*
5,1,8,0,0,1.08239X$1,22.5*%
G01*
%ADD10C,0.254000*%


D10*
X0Y25400D02*
X97Y23186D01*
X386Y20989D01*
X865Y18826D01*
X1532Y16713D01*
X2380Y14666D01*
X3403Y12700D01*
X4594Y10831D01*
X5942Y9073D01*
X7440Y7440D01*
X9073Y5942D01*
X10831Y4594D01*
X12700Y3403D01*
X14666Y2380D01*
X16713Y1532D01*
X18826Y865D01*
X20989Y386D01*
X23186Y97D01*
X25400Y0D01*
X537210Y0D01*
X539424Y97D01*
X541621Y386D01*
X543784Y865D01*
X545897Y1532D01*
X547945Y2380D01*
X549910Y3403D01*
X551779Y4594D01*
X553537Y5942D01*
X555171Y7440D01*
X556668Y9073D01*
X558016Y10831D01*
X559207Y12700D01*
X560230Y14666D01*
X561078Y16713D01*
X561745Y18826D01*
X562224Y20989D01*
X562513Y23186D01*
X562610Y25400D01*
X562610Y139700D01*
X562513Y141914D01*
X562224Y144111D01*
X561745Y146274D01*
X561078Y148387D01*
X560230Y150435D01*
X559207Y152400D01*
X558016Y154269D01*
X556668Y156027D01*
X555171Y157661D01*
X553537Y159158D01*
X551779Y160506D01*
X549910Y161697D01*
X547945Y162720D01*
X545897Y163568D01*
X543784Y164235D01*
X541621Y164714D01*
X539424Y165003D01*
X537210Y165100D01*
X25400Y165100D01*
X23186Y165003D01*
X20989Y164714D01*
X18826Y164235D01*
X16713Y163568D01*
X14666Y162720D01*
X12700Y161697D01*
X10831Y160506D01*
X9073Y159158D01*
X7440Y157661D01*
X5942Y156027D01*
X4594Y154269D01*
X3403Y152400D01*
X2380Y150435D01*
X1532Y148387D01*
X865Y146274D01*
X386Y144111D01*
X97Y141914D01*
X0Y139700D01*
X0Y25400D01*
M02*
