G04 EAGLE Gerber RS-274X export*
G75*
%MOMM*%
%FSLAX34Y34*%
%LPD*%
%INSolderpaste Top*%
%IPPOS*%
%AMOC8*
5,1,8,0,0,1.08239X$1,22.5*%
G01*
%ADD10R,0.800000X1.350000*%
%ADD11R,1.300000X1.500000*%
%ADD12R,1.200000X0.550000*%
%ADD13R,1.000000X1.100000*%
%ADD14R,0.900000X0.450000*%
%ADD15R,0.500000X0.500000*%
%ADD16R,0.400000X0.500000*%
%ADD17R,0.800000X0.800000*%


D10*
X35560Y66040D03*
X35560Y40640D03*
D11*
X106020Y115570D03*
X87020Y115570D03*
D12*
X188929Y128880D03*
X188929Y119380D03*
X188929Y109880D03*
X214931Y109880D03*
X214931Y128880D03*
D11*
X333350Y116840D03*
X314350Y116840D03*
D13*
X261620Y127880D03*
X261620Y110880D03*
D14*
X389500Y136190D03*
X372500Y136190D03*
X389500Y127190D03*
X389500Y119190D03*
X389500Y110190D03*
X372500Y110190D03*
X372500Y127190D03*
X372500Y119190D03*
D15*
X459620Y127110D03*
D16*
X452120Y127110D03*
D15*
X444620Y127110D03*
X444620Y109110D03*
D16*
X452120Y109110D03*
D15*
X459620Y109110D03*
D17*
X52070Y108070D03*
X52070Y123070D03*
D13*
X53340Y41030D03*
X53340Y58030D03*
X68580Y41030D03*
X68580Y58030D03*
X143510Y110880D03*
X143510Y127880D03*
D10*
X86360Y66040D03*
X86360Y40640D03*
D13*
X104140Y41030D03*
X104140Y58030D03*
X119380Y41030D03*
X119380Y58030D03*
D10*
X137160Y66040D03*
X137160Y40640D03*
D13*
X154940Y41030D03*
X154940Y58030D03*
X170180Y41030D03*
X170180Y58030D03*
D10*
X187960Y66040D03*
X187960Y40640D03*
D13*
X205740Y41030D03*
X205740Y58030D03*
X220980Y41030D03*
X220980Y58030D03*
D10*
X238760Y66040D03*
X238760Y40640D03*
D13*
X256540Y41030D03*
X256540Y58030D03*
X271780Y41030D03*
X271780Y58030D03*
D10*
X289560Y66040D03*
X289560Y40640D03*
D13*
X307340Y41030D03*
X307340Y58030D03*
X322580Y41030D03*
X322580Y58030D03*
D10*
X391160Y66040D03*
X391160Y40640D03*
D13*
X408940Y41030D03*
X408940Y58030D03*
X424180Y41030D03*
X424180Y58030D03*
D10*
X441960Y66040D03*
X441960Y40640D03*
D13*
X459740Y41030D03*
X459740Y58030D03*
X474980Y41030D03*
X474980Y58030D03*
D10*
X492760Y66040D03*
X492760Y40640D03*
D13*
X510540Y41030D03*
X510540Y58030D03*
X525780Y41030D03*
X525780Y58030D03*
D10*
X340360Y66040D03*
X340360Y40640D03*
D13*
X358140Y41030D03*
X358140Y58030D03*
X373380Y41030D03*
X373380Y58030D03*
M02*
